<svg width="32" height="32" viewBox="0 0 32 32" fill="none" xmlns="http://www.w3.org/2000/svg">
<path d="M13.3876 28.3501L13.8626 26.1334C13.9417 25.7904 14.1067 25.5067 14.3574 25.2824C14.6081 25.0581 14.9181 24.9195 15.2876 24.8667L20.1959 24.4709C20.539 24.4181 20.8556 24.4841 21.1459 24.6688C21.4362 24.8536 21.6473 25.1042 21.7792 25.4209L22.4126 26.9251C23.4417 26.3181 24.3654 25.5858 25.1834 24.7282C26.0015 23.8706 26.6876 22.914 27.2417 21.8584L26.7667 21.6209C26.4765 21.4098 26.2654 21.1525 26.1334 20.849C26.0015 20.5456 25.9751 20.2223 26.0542 19.8792L27.1626 15.0501C27.2417 14.7334 27.4067 14.4695 27.6574 14.2584C27.9081 14.0473 28.1917 13.9154 28.5084 13.8626C28.3765 13.2029 28.2115 12.5629 28.0136 11.9428C27.8157 11.3226 27.5584 10.7223 27.2417 10.1417C27.0042 10.2737 26.747 10.3331 26.4699 10.3199C26.1928 10.3067 25.9487 10.2209 25.7376 10.0626L21.5417 7.52925C21.2515 7.34453 21.0404 7.09383 20.9084 6.77716C20.7765 6.4605 20.7501 6.13064 20.8292 5.78758L21.1459 4.44175C20.3279 4.0723 19.49 3.79522 18.6324 3.6105C17.7747 3.42578 16.8973 3.33341 16.0001 3.33341C15.6306 3.33341 15.248 3.35321 14.8522 3.39279C14.4563 3.43237 14.0737 3.49175 13.7042 3.57091L14.8917 6.26258C15.0237 6.57925 15.0567 6.90911 14.9907 7.25216C14.9247 7.59522 14.7598 7.8723 14.4959 8.08341L10.7751 11.3292C10.5112 11.5667 10.2011 11.6987 9.84487 11.7251C9.48862 11.7515 9.16536 11.6723 8.87508 11.4876L5.23341 9.27091C4.62647 10.2737 4.15807 11.349 3.82821 12.497C3.49835 13.6449 3.33341 14.8126 3.33341 16.0001C3.33341 16.4223 3.38619 17.1084 3.49175 18.0584L6.97508 17.7417C7.34453 17.689 7.68098 17.7483 7.98446 17.9199C8.28793 18.0914 8.50564 18.3487 8.63758 18.6917L10.5376 23.2042C10.6695 23.5209 10.7025 23.8508 10.6365 24.1938C10.5706 24.5369 10.4056 24.814 10.1417 25.0251L8.63758 26.2917C9.35008 26.8195 10.1088 27.2549 10.9136 27.598C11.7185 27.9411 12.5431 28.1917 13.3876 28.3501ZM16.2376 21.5417C15.8945 21.5945 15.5779 21.5286 15.2876 21.3438C14.9973 21.1591 14.7862 20.9084 14.6542 20.5917L12.5167 15.6834C12.3848 15.3667 12.365 15.0369 12.4574 14.6938C12.5497 14.3508 12.7279 14.0737 12.9917 13.8626L17.0292 10.4584C17.2667 10.2209 17.557 10.089 17.9001 10.0626C18.2431 10.0362 18.5598 10.1154 18.8501 10.3001L23.2834 12.9126C23.5737 13.0973 23.798 13.348 23.9563 13.6647C24.1147 13.9813 24.1542 14.3112 24.0751 14.6542L22.8084 19.8001C22.7292 20.1431 22.5709 20.4268 22.3334 20.6511C22.0959 20.8754 21.8056 21.014 21.4626 21.0667L16.2376 21.5417ZM16.0001 31.8334C13.8098 31.8334 11.7515 31.4178 9.82508 30.5865C7.89869 29.7553 6.223 28.6272 4.798 27.2022C3.373 25.7772 2.24487 24.1015 1.41362 22.1751C0.582373 20.2487 0.166748 18.1904 0.166748 16.0001C0.166748 13.8098 0.582373 11.7515 1.41362 9.82508C2.24487 7.89869 3.373 6.223 4.798 4.798C6.223 3.373 7.89869 2.24487 9.82508 1.41362C11.7515 0.582373 13.8098 0.166748 16.0001 0.166748C18.1904 0.166748 20.2487 0.582373 22.1751 1.41362C24.1015 2.24487 25.7772 3.373 27.2022 4.798C28.6272 6.223 29.7553 7.89869 30.5865 9.82508C31.4178 11.7515 31.8334 13.8098 31.8334 16.0001C31.8334 18.1904 31.4178 20.2487 30.5865 22.1751C29.7553 24.1015 28.6272 25.7772 27.2022 27.2022C25.7772 28.6272 24.1015 29.7553 22.1751 30.5865C20.2487 31.4178 18.1904 31.8334 16.0001 31.8334Z" fill="#F2BBD2"/>
</svg>
