<svg width="56" height="43" viewBox="0 0 56 43" fill="none" xmlns="http://www.w3.org/2000/svg">
<g clip-path="url(#clip0_231_558)">
<mask id="mask0_231_558" style="mask-type:luminance" maskUnits="userSpaceOnUse" x="1" y="-2" width="56" height="45">
<path d="M1.92828 -1.32422H56.2634V42.4944H1.92828V-1.32422Z" fill="white"/>
</mask>
<g mask="url(#mask0_231_558)">
<path d="M29.912 19.2085L29.9719 18.7734" stroke="#76375B" stroke-width="2"/>
<path d="M30.9179 11.6259C30.8421 11.5633 30.7649 11.5687 30.6891 11.6405C29.5209 12.7502 28.5722 13.8518 27.8444 14.9442C26.9915 16.2215 26.434 17.6226 26.1706 19.146" stroke="#76375B" stroke-width="2"/>
<path d="M26.3636 15.1811C26.4461 15.1132 26.5007 15.052 26.5286 14.9988C27.3549 13.4394 28.4206 12.0663 29.7286 10.8781C30.0346 10.6001 30.5122 10.2182 31.1629 9.73389" stroke="#76375B" stroke-width="2"/>
</g>
<path d="M25.2547 1.30469H29.9336C30.0072 1.488 29.9755 1.57695 29.8397 1.57021C29.7547 1.56617 29.6747 1.56752 29.6011 1.57426C29.5516 1.57965 29.5275 1.6093 29.5301 1.66187C29.5466 1.94357 29.4489 2.12149 29.2369 2.19831C29.176 2.22123 29.1367 2.28323 29.1392 2.35062L29.1468 2.54471C29.1481 2.5811 29.1659 2.59593 29.1989 2.59054L29.4971 2.54471C29.6608 2.52045 29.8067 2.65389 29.8067 2.82911V5.65286C29.8067 5.67173 29.7915 5.68655 29.7737 5.68655H18.6404C18.5985 5.68655 18.5782 5.66364 18.5795 5.61916L18.5922 5.30376C18.5947 5.23907 18.6251 5.19594 18.6823 5.17572L19.4653 4.89537C19.5071 4.88054 19.5287 4.84819 19.5287 4.80102C19.5262 4.46136 19.4564 3.76721 19.6378 3.47069C19.6988 3.37229 19.7901 3.28199 19.9107 3.19977C21.2546 2.28862 22.7457 1.7077 24.3841 1.45834C24.676 1.41386 24.9666 1.36265 25.2547 1.30469ZM20.8485 2.91537C20.8231 3.18225 20.8358 3.46934 20.8853 3.778C20.9107 3.94109 20.9056 4.11496 20.8688 4.30231C20.8599 4.34544 20.898 4.38183 20.9374 4.3697C22.4742 3.88987 24.0237 3.48821 25.5846 3.16607C25.6379 3.15394 25.6646 3.12024 25.6646 3.06229L25.6684 2.34658C25.6684 2.29401 25.6493 2.25088 25.61 2.21853C25.5745 2.18888 25.5338 2.16866 25.4882 2.15788C25.4361 2.14575 25.3993 2.11609 25.3752 2.06622C25.3054 1.91796 25.275 1.77104 25.2851 1.62548C25.2876 1.58504 25.2699 1.56752 25.2318 1.57156C23.6696 1.75083 22.214 2.19157 20.865 2.89111C20.8561 2.89515 20.8498 2.90459 20.8485 2.91537Z" fill="#5267D3"/>
<path d="M16.8271 7.37051C16.8915 6.67784 17.1488 6.18978 17.6019 5.90634C17.8305 5.76378 18.2233 5.69334 18.7777 5.69502C22.3722 5.70844 26.0104 5.70508 29.6925 5.68663C30.2633 5.68328 30.6781 5.75707 30.934 5.90802C31.3898 6.17804 31.654 6.65603 31.7238 7.34199C31.7307 7.40573 31.7074 7.43759 31.654 7.43759L16.8764 7.43927C16.8463 7.43927 16.823 7.4074 16.8271 7.37051Z" fill="#5267D3"/>
<path d="M30.1645 19.3686L30.2252 18.9218C30.6742 18.7921 30.9115 18.5065 30.9398 18.0626C31.0706 15.9219 31.1987 13.773 31.3241 11.6145C31.3282 11.549 31.2621 11.5039 31.2028 11.5285C31.1799 11.538 31.1731 11.5572 31.1839 11.5831C31.107 11.5189 31.0288 11.5244 30.952 11.5981C29.7681 12.7375 28.8067 13.8686 28.0691 14.9902C27.2048 16.3016 26.6398 17.7402 26.3728 19.3043C25.7849 19.2415 25.5287 18.9191 25.6029 18.3371C25.7229 17.3959 26.0128 16.4792 26.4699 15.5872C26.5279 15.4738 26.5441 15.3549 26.5683 15.2333C26.6519 15.1637 26.7072 15.1008 26.7355 15.0462C27.5729 13.4451 28.653 12.0353 29.9784 10.8154C30.2886 10.5298 30.7726 10.1378 31.432 9.64051C33.4573 8.20746 35.7752 7.08725 38.2657 7.54217C39.3579 7.74162 40.2681 8.2785 40.8276 9.27302C41.3778 10.2498 41.5059 11.3222 41.2106 12.4888C40.8748 13.8153 40.3813 15.0079 39.73 16.0653C38.9331 17.3576 37.9084 18.3863 36.6544 19.1527C36.0273 19.5352 35.3626 19.7907 34.7154 20.1281C34.0964 20.4505 34.0088 21.0967 33.998 21.736C33.9751 23.0652 34.0209 24.3043 34.1355 25.4518C34.2191 26.2974 34.4093 27.1144 34.5212 27.9614C34.5387 28.1007 34.5171 28.2168 34.4538 28.3097C34.2717 28.5775 33.9791 28.4491 33.7229 28.3835C32.6564 28.1089 31.9862 27.4682 31.7125 26.4614C31.432 25.4313 31.2041 24.1294 31.0302 22.557C30.9614 21.9286 31.045 21.0297 30.8926 20.3166C30.8131 19.9491 30.5704 19.6336 30.1645 19.3686ZM33.9818 9.41783C34.0803 9.67193 34.2299 9.87821 34.4281 10.0353C34.8583 10.3768 34.9311 11.0831 34.8772 11.6022C34.714 13.1856 34.563 14.7552 34.4214 16.3098C34.3661 16.9205 34.3351 17.5667 34.3284 18.247C34.3284 18.2989 34.3796 18.3344 34.4268 18.3153C34.6789 18.2156 34.896 18.0721 35.0794 17.8822C36.8323 16.0667 38.0189 13.6309 38.0472 11.0777C38.0607 9.9711 37.5241 8.8345 36.3226 8.74434C35.6107 8.69106 34.8367 8.89734 34.0007 9.36592C33.9818 9.37548 33.9737 9.39871 33.9818 9.41783Z" fill="#BC2E32"/>
<path d="M21.7187 20.1534L21.8903 27.5205C21.8916 27.5601 21.8562 27.5934 21.814 27.5934C21.1615 27.5972 20.5063 27.5972 19.8484 27.5921C19.4711 27.5896 19.181 27.3503 19.1374 27.0112C18.3705 21.0912 17.6023 15.1188 16.8327 9.09387C16.7727 8.63071 17.1705 8.31725 17.6363 8.31852C18.8364 8.32108 20.0473 8.3198 21.2691 8.31597C21.3209 8.31469 21.3468 8.339 21.3481 8.38889L21.5089 15.2032C21.5102 15.2455 21.547 15.28 21.592 15.28C22.4379 15.2736 23.2606 15.2749 24.0602 15.2813C24.4988 15.2851 24.7167 15.5001 24.714 15.9261C24.7058 17.0149 24.6949 18.2074 24.6799 19.5035C24.6731 20.083 24.1378 20.083 23.6624 20.0741C23.0617 20.0613 22.4433 20.0587 21.8086 20.0651C21.7473 20.0664 21.7173 20.0958 21.7187 20.1534Z" fill="#5267D3"/>
<path d="M31.5856 10.0423C30.8916 10.5122 30.3821 10.8826 30.0557 11.1524C28.6607 12.3051 27.524 13.6372 26.6427 15.1501C26.6129 15.2017 26.5547 15.2611 26.4667 15.3269L26.8329 8.39526C26.8357 8.34492 26.8655 8.3191 26.9209 8.3191C28.3357 8.31394 29.6839 8.31523 30.9654 8.32169C31.2961 8.32298 31.5189 8.42753 31.6367 8.63277C31.8297 8.97225 31.6565 9.64993 31.5856 10.0423Z" fill="#5267D3"/>
<path d="M30.8486 11.8629L29.8863 18.7305L29.8254 19.1485C29.4668 21.6887 29.1108 24.2404 28.7562 26.8036C28.6966 27.2369 28.5356 27.5872 28.0362 27.591C27.2742 27.5974 26.4716 27.5974 25.627 27.5923C25.6067 27.5923 25.5891 27.5757 25.5905 27.5565L26.0195 19.0884C26.2875 17.6247 26.8546 16.2785 27.7222 15.0513C28.4625 14.0017 29.4275 12.9432 30.6158 11.877C30.693 11.808 30.7715 11.8029 30.8486 11.8629Z" fill="#5267D3"/>
<path d="M12.7987 31.0078H12.5485C12.529 31.0078 12.5132 31.0236 12.5132 31.0431V33.0489C12.5132 33.0684 12.529 33.0842 12.5485 33.0842H12.7987C12.8182 33.0842 12.834 33.0684 12.834 33.0489V31.0431C12.834 31.0236 12.8182 31.0078 12.7987 31.0078Z" fill="#757576"/>
<path d="M15.0641 31.0234L14.8071 31.0378C14.7893 31.0387 14.7758 31.0539 14.7768 31.0717L14.792 31.3437C14.793 31.3614 14.8081 31.375 14.8259 31.374L15.0829 31.3597C15.1007 31.3587 15.1142 31.3435 15.1133 31.3257L15.098 31.0537C15.097 31.036 15.0819 31.0224 15.0641 31.0234Z" fill="#757576"/>
<path d="M2.60512 31.3521C2.17317 31.3745 2.27153 32.2748 2.32392 32.5271C2.40625 32.9312 2.8799 32.8211 3.24022 32.7858C3.25625 32.7848 3.26481 32.7922 3.26374 32.8083L3.25412 33.0221C3.25305 33.0414 3.24342 33.0531 3.22418 33.0563C2.90877 33.1151 2.37738 33.1686 2.16034 32.928C1.87273 32.6116 1.92939 31.8278 2.02562 31.4878C2.18065 30.9415 2.77726 31.0452 3.20921 31.1029C3.22739 31.1061 3.23915 31.1168 3.24449 31.135C3.26267 31.1981 3.26802 31.2687 3.26053 31.3446C3.25732 31.3724 3.24235 31.3841 3.21456 31.3799C3.01676 31.3499 2.81361 31.3403 2.60512 31.3521Z" fill="#757576"/>
<path d="M10.2679 31.9486L10.2882 32.6949C10.2893 32.7259 10.3032 32.7548 10.3278 32.774C10.4058 32.8339 10.4914 32.8489 10.5854 32.8179C10.6464 32.7975 10.6795 32.82 10.6838 32.8841L10.6902 32.9953C10.6934 33.0477 10.6699 33.0777 10.6186 33.0873C10.3331 33.1386 10.007 33.1162 9.98243 32.7484C9.96425 32.4843 9.96211 32.2277 9.97387 31.9764C9.97601 31.924 9.95142 31.8973 9.89903 31.8941L9.83702 31.8919C9.80387 31.8909 9.78676 31.8738 9.78356 31.8406L9.76752 31.6589C9.76538 31.6321 9.77714 31.6204 9.80387 31.6236C9.84343 31.6289 9.88192 31.6257 9.91934 31.614C9.95142 31.6033 9.9728 31.5723 9.97173 31.538C9.96853 31.4386 9.96746 31.3424 9.96853 31.2483C9.96853 31.2109 9.98777 31.1906 10.0263 31.1873C10.0851 31.1841 10.1535 31.1841 10.2305 31.1884C10.2626 31.1906 10.2871 31.2162 10.2871 31.2483L10.285 31.5669C10.285 31.6033 10.3032 31.6214 10.3385 31.6204L10.6207 31.614C10.6721 31.6129 10.6966 31.6385 10.6934 31.6888L10.6849 31.8107C10.6817 31.8673 10.6517 31.8962 10.5951 31.8951L10.3235 31.893C10.2861 31.8919 10.2668 31.9112 10.2679 31.9486Z" fill="#757576"/>
<path d="M5.94095 33.0348C5.58598 33.1524 5.22566 33.1235 5.13157 32.6873C5.06528 32.3772 5.05994 31.7442 5.45981 31.6437C5.69183 31.5849 5.96447 31.5732 6.27774 31.6095C6.31944 31.6149 6.33975 31.6384 6.33975 31.6801V33.672C6.33975 33.6923 6.32265 33.7094 6.30126 33.7105L6.04466 33.7137C6.03076 33.7148 6.019 33.703 6.019 33.688L6.02221 33.0936C6.02221 33.0358 5.99548 33.0166 5.94095 33.0348ZM6.02114 32.7268L6.02328 31.9591C6.02328 31.9057 5.97944 31.8608 5.92491 31.8608H5.74956C5.56246 31.8608 5.4117 32.0308 5.41063 32.2414V32.4446C5.40956 32.6541 5.56139 32.8252 5.74743 32.8252H5.92277C5.9773 32.8252 6.02114 32.7814 6.02114 32.7268Z" fill="#757576"/>
<path d="M11.3424 32.4862C11.2515 32.4862 11.2216 32.529 11.2536 32.6145L11.2761 32.6733C11.3199 32.7888 11.4023 32.8433 11.5252 32.8379L12.0684 32.8155C12.0865 32.8144 12.0962 32.823 12.0972 32.8412L12.109 32.9973C12.1101 33.0197 12.1004 33.0336 12.078 33.039C11.8032 33.0999 11.5594 33.1149 11.3477 33.0849C10.8923 33.0208 10.8645 32.4284 10.9425 32.0906C11.0334 31.6918 11.2932 31.5325 11.7241 31.6148C12.1154 31.6886 12.1742 32.0906 12.14 32.4284C12.1368 32.4659 12.1154 32.4851 12.0769 32.4851L11.3424 32.4862ZM11.2708 32.2456L11.8032 32.2413C11.8214 32.2413 11.8364 32.2264 11.8353 32.2082V32.1708C11.8342 31.9879 11.707 31.8425 11.5509 31.8436H11.5145C11.3595 31.8447 11.2355 31.9933 11.2365 32.1751V32.2125C11.2376 32.2317 11.2526 32.2456 11.2708 32.2456Z" fill="#757576"/>
<path d="M17.2775 32.1859C17.3844 32.1806 17.4176 32.1271 17.3769 32.0277L17.3502 31.9614C17.3192 31.8834 17.2604 31.8459 17.1759 31.8513L16.6638 31.8812C16.6242 31.8834 16.605 31.8652 16.6061 31.8256L16.6071 31.6898C16.6082 31.6588 16.6232 31.6428 16.6542 31.6396C17.0904 31.599 17.7383 31.4247 17.6998 32.1474C17.6891 32.3559 17.6881 32.5569 17.6966 32.7505C17.6977 32.774 17.7084 32.7932 17.7266 32.8082C17.8046 32.8691 17.8335 32.9525 17.8153 33.0563C17.81 33.0851 17.7843 33.1065 17.7533 33.1054C17.6571 33.1012 17.5683 33.0787 17.486 33.0391C17.4475 33.0199 17.4026 33.0146 17.3609 33.0231C17.0829 33.0851 16.6221 33.2327 16.5366 32.7997C16.4232 32.2351 16.8659 32.2073 17.2775 32.1859ZM17.394 32.7408L17.3598 32.4586C17.3556 32.4276 17.3278 32.4062 17.2978 32.4094L17.007 32.4458C16.9001 32.4597 16.822 32.5409 16.8327 32.6275L16.8434 32.7056C16.8541 32.7922 16.9493 32.852 17.0551 32.8381L17.3459 32.8029C17.3769 32.7986 17.3983 32.7708 17.394 32.7408Z" fill="#757576"/>
<path d="M4.8025 32.5271C4.80326 32.8415 4.5488 33.097 4.23362 33.0979L4.09249 33.0982C3.77791 33.0991 3.52238 32.8436 3.52162 32.5293L3.521 32.1722C3.52024 31.8578 3.7747 31.6023 4.08988 31.6013L4.23101 31.6011C4.54559 31.6001 4.80112 31.8557 4.80188 32.1699L4.8025 32.5271ZM4.48034 32.1513C4.48144 31.9947 4.35527 31.8674 4.19849 31.8665L4.13647 31.8662C3.97999 31.8653 3.85276 31.9914 3.85166 32.148L3.84958 32.5458C3.84848 32.7025 3.97464 32.8297 4.13143 32.8306L4.19344 32.8309C4.34993 32.8318 4.47716 32.7057 4.47825 32.5491L4.48034 32.1513Z" fill="#757576"/>
<path d="M7.64423 32.6756L7.64529 31.6652C7.64529 31.6342 7.66133 31.6181 7.69234 31.6171L7.91901 31.6149C7.95001 31.6149 7.96498 31.6299 7.96498 31.6598L7.96391 33.022C7.96391 33.0605 7.94467 33.0808 7.90725 33.0829C7.82171 33.0861 7.7458 33.0744 7.67951 33.0476C7.6346 33.0295 7.5897 33.0284 7.54479 33.0444C7.24435 33.1449 6.85089 33.1428 6.78353 32.7558C6.73328 32.466 6.72152 32.0971 6.74932 31.647C6.75039 31.6246 6.76322 31.6128 6.78674 31.6128H7.02944C7.05083 31.6128 7.06686 31.6299 7.0658 31.6513C7.04762 31.9988 7.0551 32.3356 7.08825 32.6638C7.09787 32.7643 7.15347 32.8156 7.25504 32.8188C7.34165 32.821 7.44001 32.8114 7.54907 32.79C7.61215 32.7782 7.64423 32.7397 7.64423 32.6756Z" fill="#757576"/>
<path d="M8.70802 32.4857C8.65349 32.4857 8.63425 32.5124 8.65135 32.5648L8.70588 32.7369C8.72299 32.7893 8.77217 32.8257 8.82777 32.8257L9.44576 32.831C9.48746 32.831 9.50777 32.8524 9.5067 32.8941L9.50563 32.9711C9.50456 33.0181 9.46928 33.0566 9.42224 33.062C9.02236 33.1079 8.47601 33.2223 8.35412 32.6984C8.21192 32.0901 8.40972 31.4421 9.19129 31.6325C9.35915 31.6731 9.46073 31.7779 9.49601 31.9457C9.5345 32.1328 9.55588 32.2355 9.56016 32.2547C9.59437 32.4172 9.53771 32.4964 9.39123 32.4921C9.17953 32.4867 8.95179 32.4846 8.70802 32.4857ZM8.66846 32.244L9.21161 32.2419C9.22444 32.2419 9.2362 32.2312 9.2362 32.2173L9.23513 32.1713C9.23513 31.9906 9.11538 31.8442 8.96783 31.8452H8.90796C8.76148 31.8463 8.6428 31.9928 8.6428 32.1735L8.64387 32.2194C8.64387 32.2333 8.65456 32.244 8.66846 32.244Z" fill="#757576"/>
<path d="M13.6176 32.4866C13.5395 32.4866 13.5139 32.523 13.5406 32.5957L13.5802 32.7037C13.6133 32.7946 13.6775 32.8395 13.7737 32.8373L14.3382 32.8277C14.3831 32.8266 14.4024 32.848 14.397 32.8929L14.3863 32.987C14.3821 33.0212 14.3628 33.0415 14.3297 33.048C14.025 33.1046 13.778 33.1142 13.5909 33.0758C13.1621 32.9881 13.1611 32.4257 13.2306 32.0889C13.3129 31.6912 13.5727 31.534 14.0121 31.6174C14.211 31.6559 14.3382 31.7724 14.3938 31.967C14.428 32.0878 14.4451 32.2151 14.4441 32.3487C14.4441 32.4407 14.3981 32.4866 14.3062 32.4866H13.6176ZM13.5513 32.245L14.0923 32.2429C14.1094 32.2429 14.1233 32.229 14.1233 32.2119L14.1223 32.1883C14.1223 31.998 13.9897 31.843 13.8272 31.8441H13.8122C13.6497 31.8451 13.5192 32.0002 13.5192 32.1905L13.5203 32.214C13.5203 32.2311 13.5342 32.245 13.5513 32.245Z" fill="#757576"/>
<path d="M15.0804 31.6172H14.8152C14.7999 31.6172 14.7874 31.6296 14.7874 31.645V33.0478C14.7874 33.0631 14.7999 33.0756 14.8152 33.0756H15.0804C15.0957 33.0756 15.1082 33.0631 15.1082 33.0478V31.645C15.1082 31.6296 15.0957 31.6172 15.0804 31.6172Z" fill="#757576"/>
<path d="M15.9175 31.7648L16.3035 31.6034C16.3206 31.5959 16.3398 31.6076 16.3398 31.6258L16.343 31.8621C16.3441 31.8931 16.3291 31.9134 16.2992 31.922L15.9057 32.0332C15.8694 32.0428 15.8448 32.077 15.8448 32.1144L15.8469 33.0521C15.8469 33.0681 15.8384 33.0756 15.8223 33.0756H15.5572C15.5369 33.0756 15.5262 33.0649 15.5262 33.0446L15.5273 31.6803C15.5283 31.6386 15.5486 31.6173 15.5903 31.6162L15.7539 31.613C15.7978 31.6119 15.8288 31.6322 15.8459 31.6739C15.8512 31.6878 15.8544 31.7028 15.8534 31.7178C15.8491 31.768 15.8705 31.7841 15.9175 31.7648Z" fill="#757576"/>
<path d="M18.3819 31.9701C18.368 32.0161 18.3734 32.0567 18.398 32.0931C18.4151 32.1177 18.4386 32.1337 18.4696 32.1401C18.6503 32.1776 18.8342 32.2364 19.0213 32.3155C19.0748 32.3379 19.1143 32.3743 19.14 32.4235C19.2993 32.7346 19.1421 33.0286 18.8021 33.081C18.6139 33.1099 18.3905 33.1013 18.1328 33.0543C18.0975 33.0479 18.0804 33.0276 18.0793 32.9923L18.0761 32.8415C18.0751 32.7945 18.0975 32.7752 18.1446 32.7827C18.3702 32.8201 18.5701 32.8276 18.7422 32.8052C18.7968 32.7977 18.8363 32.7656 18.8609 32.7089C18.8812 32.6608 18.8759 32.6159 18.8449 32.5742C18.8246 32.5475 18.7893 32.5293 18.738 32.5176C18.4568 32.4534 18.0056 32.3892 18.0687 31.9776C18.1456 31.4719 18.7668 31.5831 19.1271 31.6419C19.1496 31.6462 19.1603 31.6601 19.1582 31.6836L19.1346 31.9081C19.1336 31.922 19.1261 31.9274 19.1122 31.9242C18.878 31.8696 18.6578 31.8632 18.4525 31.907C18.4193 31.9135 18.3915 31.9381 18.3819 31.9701Z" fill="#757576"/>
<path d="M34.3257 33.6808C33.2822 34.5672 32.646 35.5957 32.4183 36.7676C32.3916 36.9098 32.3306 36.9258 32.2354 36.8157L32.1349 36.697C32.0729 36.6243 32.0462 36.5291 32.0622 36.4361C32.2012 35.5776 32.6225 34.9168 33.1026 34.2282C34.0242 32.9089 35.334 31.9391 36.9452 31.7221C37.4445 31.6547 37.8519 31.6782 38.1673 31.7916C39.028 32.1006 39.3787 32.9185 39.2237 33.7995C38.9777 35.1969 38.2988 36.3709 37.0735 37.1033C36.4865 37.454 35.783 37.5566 35.7766 38.4184C35.7702 39.2801 35.8375 40.1237 35.9787 40.9481C36.0054 41.0999 35.9979 41.2507 35.9562 41.4003C35.9445 41.442 35.9177 41.4624 35.8739 41.4591C35.226 41.4153 34.8314 41.0946 34.6892 40.4958C34.4572 39.5154 34.3086 38.4772 34.3375 37.424C34.3663 36.3634 34.4241 35.1467 34.5107 33.7728C34.5224 33.5974 34.4604 33.5664 34.3257 33.6808ZM35.9551 36.11C35.938 36.2886 35.9263 36.4714 35.9199 36.6606C35.9188 36.7045 35.9402 36.7237 35.984 36.7173C36.0877 36.7002 36.1775 36.6553 36.2535 36.5815C37.205 35.6535 37.7995 34.4057 37.6723 33.0682C37.5792 32.076 36.5336 32.1808 35.8985 32.493C35.8129 32.5347 35.7884 32.6458 35.8482 32.7207C36.0856 33.0179 36.2053 33.2852 36.1722 33.6733C36.1027 34.4998 36.0311 35.3113 35.9551 36.11Z" fill="#BC2E32"/>
<path d="M56.3499 34.5756V34.6643C55.8474 34.8183 55.5042 34.9081 55.3214 34.9338C54.3997 35.0642 53.477 35.1947 52.5522 35.3251C52.0903 35.3903 52.0518 35.7592 51.9791 36.1548C51.7396 37.4538 51.6476 38.7454 51.7032 40.0317C51.73 40.655 51.87 41.1703 52.024 41.7413C52.0443 41.8172 52.0518 41.8974 52.0443 41.9797C52.039 42.0439 52.0048 42.0663 51.9438 42.046C51.4445 41.8803 51.1056 41.5927 50.927 41.1832C50.8522 41.011 50.7923 40.8335 50.7485 40.6496C50.51 39.6596 50.4512 38.6396 50.572 37.5886C50.6405 36.9984 50.7185 36.4103 50.8073 35.8244C50.8468 35.5667 50.7367 35.4203 50.479 35.385C49.8151 35.2962 49.149 35.169 48.4796 35.0054C48.0969 34.9113 47.8007 34.6964 47.5912 34.3618C47.558 34.3083 47.5719 34.2837 47.635 34.2891L50.7378 34.5606C50.911 34.5756 51.0671 34.4548 51.0938 34.2826C51.1986 33.6262 51.298 33.0413 51.3921 32.5281C51.4253 32.3431 51.6198 32.279 51.7866 32.3025C52.3982 32.3891 52.5148 32.8713 52.457 33.4444C52.4303 33.716 52.3993 33.9843 52.364 34.2495C52.3373 34.4558 52.4271 34.5574 52.6356 34.5521C53.6406 34.5307 54.6285 34.5093 55.6004 34.4869C55.8025 34.4826 56.0516 34.5125 56.3499 34.5756Z" fill="#BC2E32"/>
<path d="M41.2133 42.0012C40.0437 41.8664 39.632 40.5385 39.601 39.542C39.5326 37.4133 39.74 35.2738 40.0597 33.1408C40.1463 32.5634 40.7429 32.5688 41.0027 32.9965C41.27 33.4359 41.208 33.885 41.1706 34.3607C41.0487 35.9421 40.914 37.5523 40.7675 39.1924C40.7108 39.8307 40.7654 40.4316 40.9321 40.995C41.0252 41.3105 41.1321 41.6291 41.2518 41.9509C41.2615 41.9766 41.2411 42.0044 41.2133 42.0012Z" fill="#BC2E32"/>
<path d="M21.0839 33.8486H19.7346C19.7186 33.8486 19.7057 33.8616 19.7057 33.8775V41.4302C19.7057 41.4462 19.7186 41.4591 19.7346 41.4591H21.0839C21.0998 41.4591 21.1127 41.4462 21.1127 41.4302V33.8775C21.1127 33.8616 21.0998 33.8486 21.0839 33.8486Z" fill="#5267D3"/>
<path d="M27.8518 36.2702C28.0089 36.1857 28.1736 36.113 28.3436 36.0531C29.1733 35.7602 30.2542 35.8692 30.6327 36.7791C30.8326 37.2624 30.9021 37.8034 30.9053 38.3198C30.9128 39.3484 30.9139 40.3769 30.9086 41.4055C30.9086 41.4472 30.8872 41.4675 30.8455 41.4675H29.571C29.5293 41.4675 29.509 41.4472 29.5101 41.4055C29.5175 40.363 29.5165 39.3548 29.5069 38.3808C29.5036 38.0514 29.4427 37.3436 29.0182 37.2581C28.613 37.1779 28.2153 37.2153 27.8229 37.3704C27.7929 37.3821 27.778 37.4035 27.778 37.4367V41.4076C27.778 41.4418 27.7609 41.4589 27.7277 41.4589H26.4607C26.4084 41.4579 26.3827 41.4322 26.3827 41.3809V33.9201C26.3827 33.8848 26.4116 33.856 26.4479 33.856L27.701 33.857C27.7523 33.857 27.778 33.8827 27.778 33.934V36.2263C27.778 36.2819 27.8026 36.2969 27.8518 36.2702Z" fill="#5267D3"/>
<path d="M1.92828 34.0625L3.30433 34.0689C3.34282 34.07 3.37275 34.0999 3.37275 34.1373V37.0284C3.37275 37.0701 3.39414 37.0915 3.43691 37.0915L5.95377 37.0894C5.99547 37.0894 6.01578 37.0691 6.01578 37.0274V34.148C6.01578 34.0967 6.04144 34.0711 6.09276 34.0711L7.41 34.07C7.44315 34.07 7.45918 34.086 7.45918 34.1181V41.411C7.45918 41.4431 7.44315 41.4591 7.41 41.4591H6.06603C6.03289 41.4591 6.01578 41.442 6.01578 41.4078V38.4462C6.01578 38.4173 5.99226 38.3938 5.96339 38.3938H3.42514C3.38986 38.3938 3.37275 38.4109 3.37275 38.4462V41.3918C3.37275 41.4356 3.35137 41.457 3.3086 41.457H1.92828V34.0625Z" fill="#5267D3"/>
<path d="M22.7272 35.9527L22.7251 34.5681C22.7251 34.5382 22.7497 34.5146 22.7796 34.5146H24.0659C24.1076 34.5146 24.1279 34.535 24.1279 34.5756V35.9602C24.1279 35.9965 24.1578 36.0265 24.1942 36.0265H25.3681C25.3895 36.0254 25.4077 36.0436 25.4077 36.065L25.4205 37.2143C25.4216 37.2411 25.3991 37.2635 25.3724 37.2635H24.1942C24.1503 37.2635 24.1279 37.286 24.1279 37.3298C24.1247 38.167 24.1279 38.9956 24.1354 39.8135C24.1375 40.1129 24.3193 40.3193 24.6454 40.2915C24.8827 40.2711 25.104 40.2637 25.3093 40.2669C25.3446 40.2679 25.3628 40.285 25.3649 40.3203L25.4237 41.3414C25.4259 41.3852 25.4056 41.4141 25.3639 41.4269C24.5245 41.6889 23.032 41.783 22.8352 40.5791C22.7722 40.1931 22.7379 39.8071 22.7315 39.4222C22.7208 38.7411 22.7208 38.044 22.7305 37.3287C22.7315 37.2924 22.7027 37.2635 22.6663 37.2635H22.1584C22.1242 37.2635 22.1071 37.2464 22.1071 37.2122L22.1082 36.0864C22.1082 36.0447 22.1285 36.0243 22.1702 36.0254L22.6524 36.0265C22.7027 36.0265 22.7272 36.0019 22.7272 35.9527Z" fill="#5267D3"/>
<path d="M48.7769 36.8532C48.0531 37.0414 47.7366 37.7695 47.7441 38.4741C47.7451 38.565 47.8082 38.642 47.8959 38.6623C48.2134 38.735 48.5545 38.8077 48.917 38.8815C49.4024 38.9798 49.798 39.2803 49.598 39.8042C49.2709 40.6617 48.6668 41.2893 47.7847 41.6859C47.5463 41.7939 47.3153 41.7779 47.0929 41.6389C47.0769 41.6282 47.0598 41.6186 47.0437 41.6111C46.8181 41.4999 46.8107 41.3769 47.0234 41.2412C47.465 40.96 47.8574 40.6285 48.2017 40.2468C48.3567 40.0747 48.4989 39.8576 48.6283 39.5935C48.6465 39.5583 48.6347 39.5369 48.5951 39.5305L47.1731 39.2974C47.0544 39.2781 46.9379 39.3401 46.8876 39.4492C46.6824 39.8983 46.4674 40.3708 46.2419 40.868C46.0537 41.285 45.4763 42.0516 44.9781 41.5117C44.6285 41.1332 44.4381 40.4884 44.2542 40.002C44.2382 39.9592 44.1794 39.9528 44.1548 39.9923C44.0062 40.2318 43.8608 40.482 43.7175 40.7418C43.3176 41.4678 42.35 41.3449 41.9555 40.7151C41.3632 39.7689 41.6454 38.2966 42.1223 37.3418C42.6194 36.3443 43.586 35.7723 44.7001 36.1476C45.1021 36.2833 45.3448 36.5795 45.4271 37.0371C45.4517 37.1697 45.4261 37.3087 45.3512 37.4552C45.3373 37.4808 45.3202 37.5033 45.2978 37.5215C45.2261 37.5824 45.1812 37.5653 45.1652 37.4723C45.0208 36.634 44.7493 36.3229 44.3526 36.5378C44.0789 36.6864 43.8586 36.8874 43.6929 37.1398C43.0899 38.055 42.8044 39.0728 42.8354 40.1923C42.844 40.4938 42.9498 40.7408 43.154 40.9343C43.1786 40.9578 43.2054 40.9589 43.2321 40.9375C43.5924 40.651 43.756 40.141 43.8469 39.709C43.941 39.2642 44.0447 38.8055 44.1591 38.3319C44.2232 38.0678 44.3825 37.9171 44.6381 37.8796C45.2625 37.7877 45.4571 38.1737 45.4956 38.7232C45.5405 39.3754 45.5832 40.0308 45.6249 40.6884C45.6303 40.7686 45.6527 40.8413 45.7094 40.9012C45.7981 40.9942 45.8783 40.9878 45.95 40.8808C46.3969 40.2105 46.693 39.3808 46.6567 38.5746C46.6471 38.3661 46.6428 38.1555 46.6439 37.9406C46.6503 37.0948 47.3175 36.0952 48.1578 35.907C48.6668 35.7926 49.1329 35.8653 49.5574 36.124C49.7231 36.2245 49.7905 36.4106 49.7552 36.5987C49.6387 37.2285 49.3265 37.7075 48.8186 38.0368C48.7812 38.0603 48.7331 38.0315 48.7373 37.9876L48.8314 36.9003C48.8346 36.8586 48.8165 36.8436 48.7769 36.8532Z" fill="#BC2E32"/>
<path d="M10.0914 39.7518C10.1406 39.8341 10.1716 39.8865 10.1855 39.9089C10.3395 40.1698 10.5683 40.2992 10.8708 40.2981C11.5733 40.2949 12.2629 40.2692 12.9408 40.2233C12.9868 40.2201 13.0092 40.2414 13.0103 40.2874L13.0263 41.2059C13.0274 41.2529 13.0049 41.2818 12.959 41.2935C12.2768 41.4593 11.5904 41.5533 10.9008 41.5758C9.54505 41.6175 8.81052 40.9289 8.65762 39.5999C8.4641 37.916 8.76561 35.9273 10.8527 35.8973C11.6578 35.8867 12.4351 36.1048 12.8531 36.8361C13.0937 37.2563 13.2156 37.8732 13.1846 38.3276C13.1642 38.6313 13.1322 38.9606 13.0894 39.3145C13.0862 39.338 13.0669 39.3562 13.0434 39.3562H10.317C10.0101 39.3562 9.9353 39.4877 10.0914 39.7518ZM10.0551 38.257H11.7829C11.7978 38.257 11.8096 38.2453 11.8096 38.2303V37.9673C11.8096 37.484 11.4589 37.0916 11.0259 37.0916H10.812C10.379 37.0916 10.0283 37.484 10.0283 37.9673V38.2303C10.0283 38.2453 10.0401 38.257 10.0551 38.257Z" fill="#5267D3"/>
<path d="M16.867 37.9959C16.8713 37.3683 16.775 37.0957 16.0715 37.1363C15.4813 37.1705 14.9029 37.1972 14.3362 37.2165C14.2977 37.2176 14.2774 37.1994 14.2753 37.1598L14.2314 36.2788C14.2293 36.2382 14.2475 36.2125 14.287 36.2029C14.9927 36.0147 15.7059 35.9153 16.4265 35.9057C17.7416 35.8864 18.2719 36.5739 18.2601 37.827C18.2527 38.5498 18.2548 39.2896 18.2666 40.0456C18.2698 40.2669 18.3639 40.4134 18.551 40.4829C18.5852 40.4957 18.6012 40.5203 18.5991 40.5566L18.5574 41.5435C18.5563 41.5691 18.5349 41.5884 18.5103 41.5863C17.9715 41.5488 17.6165 41.5488 17.1161 41.2409C17.084 41.2206 17.0445 41.2163 17.0092 41.2291C16.7986 41.3072 16.5922 41.3831 16.3901 41.458C16.2094 41.5253 15.8908 41.5649 15.4343 41.5756C14.2154 41.6034 13.8455 40.5876 13.9235 39.5601C13.9855 38.7518 14.4464 38.3445 15.1862 38.2397C15.4172 38.2076 15.6524 38.1488 15.8908 38.1328C16.1838 38.1135 16.4864 38.0922 16.7996 38.0686C16.8381 38.0654 16.867 38.0344 16.867 37.9959ZM16.8199 39.0715C16.5131 39.0983 16.2127 39.1261 15.9197 39.156C15.4931 39.1998 15.2942 39.4468 15.3252 39.8948C15.3498 40.2476 15.5369 40.4176 15.8855 40.4048C16.2009 40.393 16.5045 40.3396 16.7964 40.2466C16.8392 40.2327 16.8606 40.2038 16.8606 40.1589L16.8627 39.11C16.8627 39.0876 16.8435 39.0694 16.8199 39.0715Z" fill="#5267D3"/>
</g>
<defs>
<clipPath id="clip0_231_558">
<rect width="54.4216" height="41.6526" fill="white" transform="translate(0.928284 0.428711)"/>
</clipPath>
</defs>
</svg>
