<svg width="18" height="18" viewBox="0 0 18 18" fill="none" xmlns="http://www.w3.org/2000/svg">
<path d="M12.3869 17.384C13.7655 17.3171 14.9857 17.0037 15.9951 15.9954C17.0034 14.9871 17.3169 13.7646 17.3838 12.3871C17.4507 11.2003 17.4396 10.0225 17.4396 8.83573C17.4396 7.64785 17.4507 6.47111 17.3838 5.28435C17.3169 3.90573 17.0034 2.6855 15.9951 1.67719C14.9868 0.668885 13.7644 0.354346 12.3869 0.287423C11.2001 0.2205 10.0245 0.231654 8.83549 0.231654C7.64872 0.231654 6.47087 0.2205 5.2841 0.287423C3.9066 0.354346 2.68526 0.668885 1.67695 1.67719C0.668641 2.6855 0.354102 3.90573 0.287179 5.28435C0.236987 6.17331 0.23141 7.05892 0.23141 7.94677V8.83573C0.23141 10.0236 0.220256 11.2003 0.287179 12.3871C0.354102 13.7657 0.668641 14.986 1.67695 15.9954C2.68526 17.0037 3.9066 17.3171 5.2841 17.384C6.47199 17.451 7.64872 17.4398 8.83549 17.4398C10.0234 17.4398 11.2001 17.451 12.3869 17.384ZM8.83549 15.8939C7.58068 15.8939 4.8926 15.9943 3.76049 15.547C3.38861 15.4042 3.05219 15.1823 2.77449 14.8967C2.48929 14.6189 2.26781 14.2825 2.12533 13.9107C1.67695 12.7797 1.77733 10.0905 1.77733 8.83573C1.77733 7.58092 1.67695 4.89173 2.12533 3.76073C2.28149 3.36812 2.4711 3.077 2.77449 2.77473C3.07676 2.47246 3.36899 2.28173 3.76049 2.12446C4.89372 1.67831 7.58179 1.77869 8.83549 1.77869C10.0892 1.77869 12.7795 1.67831 13.9105 2.12558C14.3031 2.28285 14.5942 2.47358 14.8965 2.77585C15.1999 3.07812 15.3895 3.36923 15.5468 3.76185C15.9951 4.89285 15.8936 7.58204 15.8936 8.83685C15.8936 10.0917 15.994 12.7808 15.5468 13.9118C15.3906 14.3045 15.1999 14.5956 14.8965 14.8978C14.6191 15.1833 14.2831 15.4052 13.9116 15.5481C12.7795 15.9965 10.0903 15.895 8.8366 15.895L8.83549 15.8939ZM13.4298 5.27319C13.5652 5.27349 13.6993 5.24703 13.8245 5.19534C13.9497 5.14365 14.0634 5.06775 14.1592 4.97199C14.2549 4.87623 14.3308 4.7625 14.3825 4.63732C14.4342 4.51215 14.4607 4.378 14.4604 4.24258C14.4607 4.10715 14.4342 3.973 14.3825 3.84783C14.3308 3.72266 14.2549 3.60893 14.1592 3.51317C14.0634 3.41741 13.9497 3.3415 13.8245 3.28981C13.6993 3.23812 13.5652 3.21167 13.4298 3.21196C13.2942 3.21152 13.16 3.23787 13.0347 3.28949C12.9094 3.34111 12.7955 3.41699 12.6996 3.51277C12.6037 3.60854 12.5277 3.72233 12.476 3.84757C12.4242 3.97282 12.3977 4.10706 12.398 4.24258C12.398 4.81365 12.8576 5.27319 13.4298 5.27319ZM8.83549 13.2504C9.41548 13.2513 9.98994 13.1377 10.526 12.9162C11.062 12.6946 11.549 12.3695 11.9591 11.9594C12.3692 11.5492 12.6944 11.0622 12.9159 10.5262C13.1375 9.99019 13.2511 9.41572 13.2502 8.83573C13.2509 8.25583 13.1372 7.68149 12.9156 7.1456C12.694 6.60972 12.3688 6.12283 11.9587 5.71283C11.5486 5.30283 11.0616 4.97778 10.5257 4.7563C9.98976 4.53482 9.41539 4.42127 8.83549 4.42215C8.25568 4.42142 7.68143 4.53508 7.14562 4.75662C6.6098 4.97816 6.12296 5.30324 5.71298 5.71322C5.30299 6.12321 4.97792 6.61005 4.75638 7.14586C4.53484 7.68167 4.42118 8.25593 4.42191 8.83573C4.42103 9.41563 4.53458 9.99 4.75606 10.5259C4.97753 11.0619 5.30258 11.5489 5.71258 11.959C6.12258 12.3691 6.60947 12.6942 7.14536 12.9158C7.68124 13.1375 8.25559 13.2512 8.83549 13.2504ZM8.83549 11.7045C8.0752 11.703 7.34649 11.4003 6.80898 10.8626C6.27148 10.3248 5.96901 9.59602 5.96783 8.83573C5.96931 8.07563 6.27191 7.34709 6.80938 6.80962C7.34685 6.27215 8.07539 5.96955 8.83549 5.96808C9.59578 5.96926 10.3246 6.27173 10.8623 6.80923C11.4 7.34673 11.7028 8.07544 11.7043 8.83573C11.7034 9.59641 11.4009 10.3257 10.8631 10.8637C10.3253 11.4017 9.59616 11.7044 8.83549 11.7056V11.7045Z" fill="black"/>
</svg>
