<svg width="60" height="60" viewBox="0 0 60 60" fill="none" xmlns="http://www.w3.org/2000/svg">
<path d="M49.2712 36.8494C50.7368 33.76 51.7809 30.5328 52.4034 27.1678C52.4746 26.7834 52.5103 26.5009 52.5103 26.3203C52.5084 22.1641 52.5118 18.0078 52.5206 13.8516C52.5212 13.7491 52.4965 13.6731 52.4465 13.6238C46.5825 7.83657 38.924 4.47751 30.6571 4.25532C21.7706 4.01626 13.304 7.40251 7.04433 13.6613C7.03301 13.6726 7.02405 13.686 7.01793 13.7008C7.01182 13.7156 7.00868 13.7315 7.0087 13.7475C7.0062 17.8175 7.00683 21.8919 7.01058 25.9706C7.01058 26.3581 7.04339 26.7291 7.10901 27.0834C9.4687 39.87 17.8115 50.49 29.7215 55.7259C29.7333 55.7313 29.7462 55.734 29.7592 55.734C29.7723 55.734 29.7853 55.7313 29.7975 55.7259C38.3568 51.96 45.2606 45.3056 49.2712 36.8494Z" stroke="#989898" stroke-width="2"/>
<path d="M51.5163 14.0926C45.0504 7.72507 36.1817 4.59663 27.1404 5.32319C19.9798 5.89788 13.2532 8.98507 8.03228 14.0466C7.9979 14.0791 7.98071 14.1194 7.98071 14.1676C7.97446 18.1907 7.97821 22.2104 7.99196 26.2266C7.99196 26.3523 7.98634 26.4779 8.00884 26.6026C10.211 39.0357 18.1892 49.4448 29.6988 54.6507C29.7194 54.6601 29.7419 54.6649 29.7647 54.6648C29.7875 54.6646 29.8102 54.6595 29.831 54.6498C41.187 49.4457 49.196 39.2598 51.4385 26.9541C51.5042 26.5941 51.537 26.216 51.537 25.8198C51.5382 21.9241 51.5379 18.0313 51.536 14.1413C51.536 14.1226 51.5295 14.1063 51.5163 14.0926Z" stroke="#927681" stroke-width="2"/>
<path d="M36.4694 10.696C36.4676 10.6216 36.5029 10.5938 36.5754 10.6125C37.8691 10.9438 39.0441 11.3106 40.1004 11.7131C43.8435 13.1375 47.1704 15.26 50.081 18.0806C50.0872 18.0868 50.0951 18.0909 50.1037 18.0926C50.1123 18.0942 50.1211 18.0932 50.1292 18.0898C50.1372 18.0864 50.1441 18.0807 50.1488 18.0734C50.1536 18.0661 50.1561 18.0575 50.156 18.0488V15.2025C50.156 15.1821 50.1518 15.1618 50.1438 15.143C50.1357 15.1241 50.1239 15.1071 50.1091 15.0928C38.8019 4.04346 20.6782 4.07064 9.38414 15.1172C9.36496 15.1363 9.35417 15.1623 9.35414 15.1894L9.35507 18.0703C9.35499 18.0778 9.35711 18.085 9.36117 18.0912C9.36523 18.0975 9.37104 18.1023 9.37786 18.1052C9.38469 18.1081 9.39222 18.109 9.39951 18.1076C9.40681 18.1062 9.41353 18.1027 9.41882 18.0975C13.1698 14.4469 17.8319 11.836 22.9441 10.6303C22.956 10.6276 22.9684 10.6276 22.9803 10.6304C22.9922 10.6331 23.0033 10.6384 23.0128 10.646C23.0223 10.6536 23.0299 10.6632 23.035 10.6741C23.0402 10.6851 23.0428 10.697 23.0426 10.7091L23.0416 10.7775C23.0404 10.8425 23.0082 10.8828 22.9451 10.8985C22.2851 11.066 21.7382 11.2153 21.3044 11.3466C16.7713 12.7191 12.8069 15.061 9.41132 18.3722C9.39297 18.3903 9.37844 18.4118 9.36862 18.4355C9.35879 18.4592 9.35387 18.4845 9.35414 18.51C9.35664 21.1838 9.3632 23.8653 9.37382 26.5547C9.37476 26.6569 9.36539 26.7666 9.38507 26.8688C11.6566 38.4 19.0376 48.0244 29.6716 53.0456C29.6974 53.0577 29.7255 53.0639 29.7538 53.0639C29.7822 53.0639 29.8101 53.0577 29.8357 53.0456C32.3594 51.8581 34.7166 50.4019 36.9073 48.6769C36.9341 48.6556 36.9457 48.6275 36.9419 48.5925C36.8088 47.4431 36.5735 46.3153 36.236 45.2091C36.2337 45.2016 36.2296 45.1947 36.224 45.1892C36.2184 45.1837 36.2115 45.1797 36.2039 45.1775C36.1964 45.1754 36.1884 45.1752 36.1807 45.1769C36.1731 45.1787 36.166 45.1823 36.1601 45.1875C34.2188 46.875 32.1101 48.3181 29.8338 49.5169C29.8099 49.5296 29.7832 49.5363 29.7563 49.5363C29.7293 49.5363 29.7028 49.5296 29.6791 49.5169C28.991 49.1522 28.2166 48.7856 27.6916 48.256C25.7566 46.306 25.6732 43.2338 27.4076 41.1253C27.4301 41.0985 27.4266 41.0756 27.3973 41.0569C25.2888 39.7116 24.176 37.3547 24.6654 34.8741C24.6668 34.8659 24.6662 34.8575 24.6635 34.8496C24.6608 34.8417 24.6561 34.8347 24.6499 34.8292C24.6437 34.8236 24.6362 34.8197 24.628 34.8179C24.6199 34.8161 24.6115 34.8164 24.6035 34.8188C22.4951 35.4656 20.7476 37.3303 19.4585 39.0413C19.3741 39.1531 19.3591 39.1447 19.4135 39.016C20.5891 36.2147 22.6544 33.3225 25.9882 33.1144C26.0232 33.1125 26.0385 33.1288 26.0341 33.1631C25.9879 33.5225 25.9526 33.8828 25.9282 34.2441C25.7813 36.4147 26.4235 38.2197 27.8548 39.6591C29.0707 40.8825 30.7769 41.6878 32.4616 42.0516C32.7229 42.1078 33.1598 42.1931 33.7723 42.3075C35.6529 42.66 37.3966 43.7175 37.7773 45.7388C37.7848 45.7794 37.8088 45.796 37.8494 45.7885C39.611 45.451 41.0941 44.4985 41.3098 42.5766C41.3112 42.5639 41.3153 42.5518 41.3218 42.541C41.3282 42.5301 41.3369 42.5208 41.3473 42.5138C41.7923 42.2156 42.1779 41.8535 42.5041 41.4272C42.5579 41.3566 42.5413 41.331 42.4544 41.3503C40.3366 41.8135 38.3707 41.0691 38.3576 38.611C38.3575 38.5983 38.3546 38.5857 38.349 38.5743C38.3434 38.563 38.3353 38.553 38.3252 38.5452C38.3152 38.5374 38.3035 38.5321 38.2911 38.5295C38.2787 38.5269 38.2658 38.5272 38.2535 38.5303L37.2401 38.791C37.2361 38.7921 37.2319 38.7919 37.2281 38.7904C37.2242 38.7889 37.221 38.7862 37.2189 38.7826C37.2168 38.7791 37.2158 38.775 37.2163 38.7709C37.2167 38.7668 37.2185 38.763 37.2213 38.76C39.041 36.8213 41.4673 36.9544 43.6001 38.2472C43.6263 38.2628 43.6388 38.286 43.6376 38.3166C43.6141 38.9822 43.2804 39.6047 42.9082 40.1991C42.8726 40.2566 42.8857 40.2719 42.9476 40.245C43.7144 39.9131 44.4304 39.4606 45.0954 38.8875C45.2538 38.7516 45.5285 38.6335 45.6982 38.4778C46.4398 37.7972 46.3554 36.7838 45.9963 35.926C45.9263 35.7585 45.9566 35.7381 46.0873 35.865C46.3694 36.1388 47.0632 36.5278 47.3848 36.1369C48.0579 35.3213 46.7829 34.1203 46.2119 33.6619C45.4901 33.0825 44.7023 32.6091 43.8485 32.2416C43.8198 32.2291 43.8023 32.2072 43.796 32.176C43.7485 31.9353 43.6963 31.696 43.6394 31.4578C42.6129 27.1444 36.4291 26.101 32.8113 25.8075C31.6001 25.7094 30.3894 25.606 29.1794 25.4972C27.2776 25.326 25.4201 24.95 23.6069 24.3694C23.6039 24.3685 23.6006 24.3683 23.5974 24.3689C23.5943 24.3695 23.5913 24.3709 23.5888 24.373C23.5863 24.375 23.5843 24.3776 23.5831 24.3806C23.5818 24.3836 23.5813 24.3868 23.5816 24.39C23.9173 27.5963 26.0632 29.2894 29.1794 29.4844C29.2044 29.4863 29.2229 29.4944 29.2348 29.5088C29.256 29.5338 29.2504 29.5488 29.2179 29.5538C26.7663 29.9241 24.4469 29.2781 23.1832 26.9906C23.0294 26.7125 22.9019 26.4288 22.8007 26.1394C22.7952 26.1233 22.7837 26.1099 22.7686 26.1017C22.7536 26.0936 22.7359 26.0913 22.7191 26.0953C19.5316 26.8669 16.5269 28.2225 14.0679 30.405C13.601 30.82 13.1666 31.2069 12.7648 31.5656C12.6323 31.6838 12.6023 31.6619 12.6748 31.5C12.8854 31.0338 13.1413 30.5938 13.4426 30.18C13.4513 30.1681 13.4572 30.1543 13.4596 30.1396C13.462 30.1249 13.461 30.1099 13.4566 30.0956C13.2441 29.4044 13.0488 28.7081 12.8707 28.0069C12.836 27.8719 12.8248 27.8081 12.9448 27.7116C17.771 23.8519 23.7419 21.6806 29.9538 21.7688C36.1969 21.8581 41.7573 23.856 46.6348 27.7622C46.6463 27.7718 46.6554 27.7841 46.6611 27.798C46.6668 27.8119 46.669 27.8269 46.6676 27.8419C46.6619 27.905 46.6482 27.981 46.6263 28.0697C46.3263 29.2785 45.9629 30.4613 45.536 31.6181C45.5254 31.6469 45.5335 31.6685 45.5604 31.6828C46.5173 32.2153 47.356 32.8919 48.0766 33.7125C48.0954 33.7338 48.1098 33.7313 48.1198 33.705C48.9916 31.5256 49.6491 29.2819 50.0923 26.9738C50.1348 26.7544 50.156 26.5991 50.156 26.5078C50.1566 23.8285 50.1566 21.1585 50.156 18.4978C50.156 18.4753 50.1514 18.453 50.1426 18.4322C50.1337 18.4114 50.1207 18.3926 50.1044 18.3769C46.2788 14.6569 41.7666 12.1656 36.5679 10.9031C36.5048 10.8881 36.4726 10.8481 36.4713 10.7831L36.4694 10.696Z" stroke="#795E69" stroke-width="2"/>
<path d="M30.1303 10.2854L30.375 10.8507C30.3848 10.873 30.4008 10.892 30.4211 10.9053C30.4414 10.9186 30.4651 10.9257 30.4893 10.9257L30.6347 10.9247C30.7022 10.9247 30.7222 10.8938 30.6947 10.8319L29.655 8.48349C29.6392 8.44836 29.6136 8.41852 29.5812 8.39761C29.5488 8.3767 29.5111 8.36562 29.4727 8.36572C29.4343 8.36582 29.3967 8.3771 29.3647 8.39817C29.3326 8.41925 29.3074 8.44922 29.2922 8.48443L28.2553 10.8638C28.2284 10.9244 28.2481 10.9551 28.3143 10.9557L28.4184 10.9566C28.4872 10.9572 28.535 10.9257 28.5618 10.8619L28.7953 10.3032C28.8006 10.2901 28.8097 10.2788 28.8213 10.2708C28.833 10.2628 28.8468 10.2584 28.8609 10.2582L30.0637 10.2422C30.0956 10.2416 30.1178 10.256 30.1303 10.2854Z" stroke="#795E69" stroke-width="2"/>
<path d="M32.8649 10.6014C32.2799 11.0186 31.5205 10.7251 31.3058 10.0445C30.9721 8.99169 32.0155 8.33075 32.8527 9.1595C32.9065 9.21263 32.9602 9.21232 33.014 9.15857L33.0327 9.13888C33.0858 9.08513 33.0896 9.02794 33.044 8.96732C32.6427 8.43857 31.8308 8.33169 31.364 8.74419C31.0002 9.06575 30.838 9.57013 30.9721 10.0426C31.2224 10.9192 32.2574 11.4929 33.0524 10.8517C33.1143 10.8017 33.1208 10.7454 33.0721 10.6829L33.0271 10.6258C33.0084 10.6014 32.981 10.5852 32.9507 10.5806C32.9204 10.5761 32.8896 10.5835 32.8649 10.6014Z" stroke="#795E69" stroke-width="2"/>
<path d="M26.6389 10.8451C26.6323 10.8459 26.6257 10.8453 26.6194 10.8433C26.6131 10.8414 26.6073 10.8381 26.6024 10.8338C26.5974 10.8295 26.5934 10.8241 26.5907 10.8182C26.5879 10.8122 26.5864 10.8057 26.5864 10.7991L26.5873 8.68882C26.5873 8.68216 26.586 8.67556 26.5833 8.66948C26.5806 8.66339 26.5766 8.65795 26.5716 8.65351C26.5667 8.64908 26.5608 8.64575 26.5545 8.64375C26.5481 8.64176 26.5414 8.64114 26.5348 8.64194L26.3398 8.66632C26.3285 8.66768 26.3181 8.67308 26.3105 8.68153C26.303 8.68998 26.2987 8.7009 26.2985 8.71225L26.2948 11.1235C26.2948 11.1302 26.2961 11.1368 26.2988 11.1428C26.3015 11.1489 26.3055 11.1544 26.3105 11.1588C26.3154 11.1632 26.3213 11.1666 26.3276 11.1686C26.334 11.1706 26.3407 11.1712 26.3473 11.1704L27.9026 10.9735C27.9142 10.9721 27.9249 10.9664 27.9325 10.9576C27.9401 10.9487 27.9442 10.9374 27.9439 10.9257L27.9392 10.7391C27.939 10.7326 27.9374 10.7262 27.9346 10.7204C27.9318 10.7145 27.9278 10.7093 27.9228 10.7051C27.9179 10.7008 27.9121 10.6977 27.9059 10.6958C27.8997 10.6939 27.8931 10.6933 27.8867 10.6941L26.6389 10.8451Z" stroke="#795E69" stroke-width="2"/>
<path d="M35.2565 9.11727C35.2512 9.11527 35.2454 9.11474 35.2398 9.11573C35.2342 9.11672 35.2289 9.11919 35.2246 9.12289L33.9281 10.2132C33.9234 10.2171 33.9177 10.2197 33.9117 10.2205C33.9057 10.2213 33.8995 10.2204 33.894 10.2178C33.8885 10.2152 33.8838 10.2112 33.8805 10.206C33.8773 10.2009 33.8755 10.1949 33.8756 10.1888L33.8765 8.81914C33.8766 8.81158 33.874 8.80422 33.8692 8.79838C33.8644 8.79254 33.8577 8.7886 33.8502 8.78727L33.6243 8.74977C33.6198 8.74895 33.6151 8.74914 33.6106 8.75031C33.6061 8.75148 33.602 8.75361 33.5984 8.75655C33.5948 8.7595 33.5919 8.76318 33.5899 8.76735C33.5879 8.77152 33.5869 8.77608 33.5868 8.78071L33.5812 11.2276C33.5811 11.2351 33.5836 11.2425 33.5884 11.2483C33.5933 11.2542 33.6 11.2581 33.6074 11.2595L33.8418 11.3016C33.8464 11.3025 33.8512 11.3023 33.8557 11.301C33.8603 11.2998 33.8645 11.2976 33.8681 11.2946C33.8717 11.2915 33.8745 11.2877 33.8765 11.2834C33.8784 11.2791 33.8794 11.2745 33.8793 11.2698L33.8774 10.6623C33.8774 10.6579 33.8784 10.6535 33.8801 10.6495C33.8819 10.6454 33.8845 10.6418 33.8877 10.6388L34.334 10.2423C34.3374 10.2392 34.3415 10.237 34.3459 10.2357C34.3502 10.2343 34.3549 10.234 34.3594 10.2346C34.3639 10.2352 34.3683 10.2368 34.3722 10.2393C34.376 10.2417 34.3793 10.245 34.3818 10.2488L35.2827 11.6616C35.2851 11.6653 35.2881 11.6684 35.2916 11.6708C35.2952 11.6732 35.2992 11.6749 35.3034 11.6757L35.5799 11.7282C35.5859 11.7293 35.5921 11.7286 35.5978 11.7262C35.6034 11.7238 35.6082 11.7199 35.6117 11.7148C35.6152 11.7098 35.6171 11.7039 35.6173 11.6978C35.6175 11.6917 35.6159 11.6856 35.6127 11.6804L34.5927 10.0754C34.5887 10.0689 34.5871 10.0611 34.5883 10.0535C34.5895 10.046 34.5934 10.0391 34.5993 10.0341L35.5331 9.27196C35.5376 9.26842 35.5411 9.26372 35.5432 9.25836C35.5452 9.253 35.5458 9.24717 35.5449 9.2415C35.5439 9.23583 35.5414 9.23053 35.5377 9.22615C35.534 9.22178 35.5291 9.21849 35.5237 9.21664L35.2565 9.11727Z" stroke="#795E69" stroke-width="2"/>
<path d="M25.3584 10.0247C25.6059 9.77434 25.799 9.35434 25.4906 9.05996C25.2084 8.7909 24.2765 9.10215 23.8978 9.22871C23.8615 9.24059 23.8434 9.2659 23.8434 9.30465L23.835 11.6718C23.835 11.6792 23.8368 11.6866 23.84 11.6932C23.8433 11.6998 23.848 11.7056 23.8538 11.7101C23.8596 11.7147 23.8663 11.7178 23.8734 11.7193C23.8806 11.7208 23.8879 11.7206 23.895 11.7187C24.464 11.5678 25.4859 11.46 25.724 10.8675C25.8809 10.4775 25.7646 10.2197 25.3753 10.094C25.3328 10.0797 25.3271 10.0565 25.3584 10.0247Z" stroke="#795E69" stroke-width="2"/>
<path d="M30.7095 14.401L32.1767 14.4882C32.2104 14.4901 32.2273 14.4741 32.2273 14.4404L32.2282 12.9282C32.2288 12.8932 32.2113 12.8741 32.1757 12.871C30.5601 12.7485 28.9441 12.7491 27.3279 12.8729C27.2898 12.876 27.2707 12.8966 27.2707 12.9348L27.2698 14.4619C27.2698 14.4665 27.2707 14.4711 27.2725 14.4753C27.2743 14.4795 27.277 14.4833 27.2803 14.4865C27.2836 14.4897 27.2876 14.4921 27.2919 14.4937C27.2962 14.4953 27.3008 14.496 27.3054 14.4957L28.796 14.4057C28.8026 14.4052 28.8092 14.406 28.8155 14.4082C28.8217 14.4104 28.8274 14.4138 28.8323 14.4183C28.8371 14.4228 28.841 14.4282 28.8436 14.4343C28.8463 14.4404 28.8476 14.4469 28.8476 14.4535L28.8457 18.4594C28.8457 18.4888 28.8601 18.5035 28.8888 18.5035L30.6251 18.4951C30.633 18.4951 30.6407 18.4919 30.6463 18.4863C30.6519 18.4807 30.6551 18.473 30.6551 18.4651L30.6532 14.4544C30.6532 14.4169 30.672 14.3991 30.7095 14.401Z" stroke="#795E69" stroke-width="2"/>
<path d="M25.1006 15.5673C25.1006 15.5734 25.0987 15.5793 25.0952 15.5843C25.0918 15.5893 25.0869 15.5931 25.0812 15.5952C25.0755 15.5973 25.0693 15.5977 25.0634 15.5962C25.0575 15.5948 25.0521 15.5915 25.0481 15.587L23.2434 13.5198C23.2398 13.5156 23.2351 13.5125 23.2298 13.5108C23.2245 13.5092 23.2188 13.509 23.2134 13.5104L21.6084 13.9407C21.602 13.9424 21.5963 13.9461 21.5922 13.9514C21.5881 13.9567 21.5859 13.9631 21.5859 13.9698V19.636C21.5859 19.6406 21.587 19.6451 21.589 19.6492C21.591 19.6534 21.5939 19.657 21.5976 19.6598C21.6012 19.6626 21.6054 19.6645 21.6099 19.6654C21.6144 19.6663 21.619 19.6662 21.6234 19.6651L23.3034 19.2254C23.3099 19.2237 23.3156 19.22 23.3197 19.2147C23.3237 19.2095 23.3259 19.203 23.3259 19.1963V16.6548C23.326 16.6487 23.3278 16.6428 23.3313 16.6378C23.3348 16.6328 23.3397 16.629 23.3454 16.6268C23.3511 16.6247 23.3573 16.6244 23.3632 16.6258C23.3691 16.6273 23.3744 16.6305 23.3784 16.6351L25.2778 18.827C25.281 18.8307 25.2851 18.8336 25.2896 18.8354C25.2942 18.8372 25.2992 18.8378 25.3041 18.8373L26.8566 18.6376C26.8639 18.6367 26.8706 18.6331 26.8754 18.6276C26.8802 18.6221 26.8829 18.6149 26.8828 18.6076V12.9338C26.8827 12.9296 26.8817 12.9255 26.8799 12.9217C26.8781 12.9179 26.8756 12.9145 26.8724 12.9118C26.8692 12.9091 26.8655 12.907 26.8615 12.9058C26.8575 12.9046 26.8532 12.9043 26.8491 12.9048L25.1278 13.1307C25.1205 13.1316 25.1138 13.1352 25.109 13.1407C25.1041 13.1463 25.1015 13.1534 25.1016 13.1607L25.1006 15.5673Z" stroke="#795E69" stroke-width="2"/>
<path d="M34.4099 16.8545C34.41 16.85 34.411 16.8456 34.4129 16.8415C34.4149 16.8374 34.4177 16.8339 34.4212 16.831C34.4247 16.8281 34.4287 16.8261 34.4331 16.825C34.4375 16.8238 34.442 16.8237 34.4465 16.8245L35.9952 17.1264C36.0022 17.1277 36.0086 17.1314 36.0132 17.1368C36.0178 17.1423 36.0204 17.1492 36.0205 17.1564L36.0196 19.1542C36.0196 19.1611 36.0219 19.1678 36.0261 19.1732C36.0304 19.1787 36.0363 19.1825 36.043 19.1842L37.7427 19.622C37.7473 19.6231 37.752 19.6232 37.7566 19.6223C37.7612 19.6213 37.7655 19.6193 37.7692 19.6164C37.7729 19.6135 37.7759 19.6098 37.778 19.6056C37.7801 19.6013 37.7811 19.5967 37.7811 19.592L37.7802 13.9257C37.7802 13.9189 37.7779 13.9122 37.7736 13.9067C37.7694 13.9013 37.7635 13.8974 37.7568 13.8958L36.059 13.4579C36.0544 13.4568 36.0496 13.4567 36.045 13.4577C36.0404 13.4587 36.0361 13.4607 36.0324 13.4636C36.0287 13.4665 36.0257 13.4702 36.0237 13.4744C36.0216 13.4786 36.0205 13.4832 36.0205 13.4879V15.4276C36.0205 15.4321 36.0194 15.4366 36.0175 15.4406C36.0155 15.4447 36.0127 15.4483 36.0092 15.4511C36.0057 15.454 36.0017 15.456 35.9973 15.4572C35.9929 15.4583 35.9884 15.4584 35.9839 15.4576L34.4361 15.1614C34.4291 15.1601 34.4227 15.1564 34.4181 15.1509C34.4135 15.1454 34.4109 15.1385 34.4108 15.1314L34.4155 13.1636C34.4156 13.156 34.4128 13.1486 34.4078 13.1429C34.4028 13.1372 34.3959 13.1335 34.3883 13.1326L32.6568 12.9029C32.6524 12.9024 32.648 12.9028 32.6438 12.9041C32.6396 12.9054 32.6357 12.9076 32.6324 12.9106C32.6291 12.9135 32.6265 12.9171 32.6247 12.9211C32.623 12.9251 32.622 12.9295 32.6221 12.9339L32.6193 18.6029C32.6192 18.6105 32.6219 18.6179 32.627 18.6236C32.632 18.6293 32.6389 18.633 32.6465 18.6339L34.3827 18.8626C34.3871 18.8632 34.3915 18.8628 34.3957 18.8614C34.3999 18.8601 34.4038 18.8579 34.407 18.855C34.4103 18.8521 34.4129 18.8485 34.4147 18.8445C34.4165 18.8404 34.4174 18.8361 34.4174 18.8317L34.4099 16.8545Z" stroke="#795E69" stroke-width="2"/>
<path d="M40.107 16.2544L42.6786 17.386C42.6824 17.3877 42.6867 17.3885 42.6909 17.3881C42.6952 17.3878 42.6992 17.3864 42.7028 17.384C42.7063 17.3817 42.7092 17.3785 42.7112 17.3747C42.7132 17.371 42.7142 17.3668 42.7142 17.3626L42.7151 15.9207C42.7151 15.898 42.7086 15.8757 42.6965 15.8565C42.6844 15.8372 42.6672 15.8218 42.6467 15.8119C41.2642 15.1482 39.8448 14.5751 38.3886 14.0926C38.3856 14.0917 38.3825 14.0915 38.3795 14.092C38.3765 14.0926 38.3737 14.0938 38.3712 14.0956C38.3688 14.0974 38.3668 14.0998 38.3654 14.1025C38.364 14.1052 38.3633 14.1083 38.3632 14.1113L38.3623 19.7757C38.3623 19.8038 38.3761 19.8226 38.4036 19.8319C39.8667 20.3132 41.2904 20.8904 42.6748 21.5635C42.6827 21.5673 42.6914 21.5691 42.7002 21.5686C42.709 21.5681 42.7175 21.5654 42.7249 21.5607C42.7323 21.556 42.7384 21.5495 42.7426 21.5418C42.7468 21.534 42.7489 21.5254 42.7489 21.5166L42.7395 20.0822C42.7395 20.0592 42.733 20.0367 42.7207 20.0171C42.7085 19.9976 42.6909 19.9818 42.6701 19.9716C41.8289 19.5547 40.9704 19.1772 40.0948 18.8391C40.0779 18.8322 40.0692 18.8197 40.0686 18.8016L40.0667 18.2391C40.0666 18.2352 40.0675 18.2314 40.0694 18.2279C40.0713 18.2245 40.074 18.2216 40.0773 18.2194C40.0807 18.2173 40.0846 18.216 40.0886 18.2157C40.0926 18.2153 40.0967 18.216 40.1004 18.2176L42.507 19.2741C42.5098 19.2754 42.5129 19.2759 42.516 19.2756C42.5191 19.2754 42.522 19.2744 42.5246 19.2727C42.5272 19.271 42.5294 19.2688 42.5309 19.2661C42.5324 19.2634 42.5332 19.2603 42.5332 19.2572L42.5323 17.9466C42.5323 17.9066 42.5139 17.8785 42.477 17.8622L40.0948 16.8226C40.0823 16.8169 40.0761 16.8076 40.0761 16.7944L40.0667 16.2816C40.0661 16.251 40.0795 16.2419 40.107 16.2544Z" stroke="#795E69" stroke-width="2"/>
<path d="M17.4626 20.4967C17.4639 20.4917 17.4664 20.487 17.4698 20.4831C17.4732 20.4792 17.4775 20.4761 17.4823 20.4742L19.1923 19.7354C19.1964 19.7336 19.2009 19.7326 19.2054 19.7325C19.2099 19.7323 19.2144 19.7332 19.2186 19.7348C19.2228 19.7365 19.2266 19.739 19.2298 19.7421C19.233 19.7453 19.2356 19.7491 19.2373 19.7532L19.4839 20.3542C19.4872 20.3621 19.4934 20.3684 19.5013 20.3719C19.5091 20.3754 19.518 20.3757 19.5261 20.3729L21.3495 19.7523C21.3539 19.7508 21.358 19.7483 21.3615 19.7451C21.3649 19.7419 21.3676 19.738 21.3695 19.7337C21.3714 19.7294 21.3723 19.7247 21.3722 19.72C21.3722 19.7153 21.3711 19.7106 21.3692 19.7063L19.2204 14.7507C19.2169 14.7425 19.2103 14.7361 19.2021 14.7327C19.1938 14.7294 19.1846 14.7295 19.1764 14.7329L17.5329 15.437C17.5284 15.439 17.5244 15.4419 17.5212 15.4457C17.5179 15.4494 17.5155 15.4538 17.5142 15.4585L15.4498 22.2273C15.448 22.2336 15.4481 22.2403 15.45 22.2466C15.452 22.2529 15.4557 22.2585 15.4608 22.2627C15.4659 22.2669 15.4721 22.2695 15.4786 22.2702C15.4851 22.2709 15.4918 22.2697 15.4976 22.2667L17.2076 21.3704C17.2117 21.3683 17.2153 21.3654 17.2182 21.3618C17.2211 21.3583 17.2232 21.3542 17.2245 21.3498L17.4626 20.4967Z" stroke="#795E69" stroke-width="2"/>
<path d="M44.8555 21.1538C45.0224 21.1857 45.1289 21.2576 45.1752 21.3695C45.4614 22.0676 45.7405 22.7579 46.0124 23.4404C46.0295 23.4839 46.0588 23.5216 46.0967 23.5491L47.7224 24.7276C47.7992 24.7838 47.8205 24.7676 47.7861 24.6788L46.7839 22.1204C46.7818 22.1151 46.7811 22.1094 46.7818 22.1038C46.7825 22.0982 46.7847 22.0929 46.7881 22.0883C46.7915 22.0838 46.796 22.0802 46.8012 22.078C46.8064 22.0757 46.8121 22.0748 46.8177 22.0754C47.5836 22.142 47.7055 21.3807 47.6652 20.8116C47.6121 20.0535 47.3621 19.3682 46.9152 18.7557C46.2589 17.8566 45.4424 17.3748 44.3736 16.7448C43.9992 16.5241 43.618 16.311 43.2299 16.1054C43.2244 16.1024 43.2183 16.101 43.2121 16.1011C43.2059 16.1013 43.1998 16.1031 43.1945 16.1063C43.1892 16.1095 43.1848 16.1141 43.1818 16.1195C43.1788 16.1249 43.1773 16.1311 43.1774 16.1373L43.1783 21.7651C43.1783 21.7767 43.1815 21.7882 43.1874 21.7983C43.1933 21.8083 43.2019 21.8166 43.2121 21.8223L44.7767 22.7054C44.7816 22.708 44.787 22.7093 44.7926 22.7091C44.7981 22.709 44.8034 22.7074 44.8081 22.7046C44.8129 22.7018 44.8168 22.6978 44.8195 22.693C44.8222 22.6882 44.8236 22.6828 44.8236 22.6773L44.8142 21.1885C44.8136 21.1598 44.8274 21.1482 44.8555 21.1538Z" stroke="#795E69" stroke-width="2"/>
<path d="M13.2768 22.1073C14.6615 21.1735 15.9168 20.1404 15.9515 18.3048C15.9618 17.716 15.7733 17.1751 15.0918 17.1488C14.4365 17.1235 13.9677 17.4554 13.333 17.8894C12.7849 18.2651 12.253 18.6513 11.7374 19.0482C11.7202 19.0613 11.7063 19.0783 11.6967 19.0978C11.6871 19.1173 11.6821 19.1388 11.6821 19.1607L11.6812 24.7641C11.6813 24.7692 11.6828 24.7741 11.6855 24.7784C11.6882 24.7827 11.692 24.7862 11.6965 24.7885C11.701 24.7908 11.706 24.7919 11.7111 24.7915C11.7162 24.7912 11.721 24.7895 11.7252 24.7866L13.2037 23.701C13.2162 23.692 13.2263 23.6802 13.2333 23.6667C13.2403 23.6532 13.244 23.6382 13.244 23.6232L13.2412 22.1748C13.2412 22.146 13.253 22.1235 13.2768 22.1073Z" stroke="#795E69" stroke-width="2"/>
<path d="M38.8526 31.8994C39.552 31.6575 40.2579 31.5028 40.991 31.4241C40.9971 31.4235 41.0028 31.4211 41.0075 31.4172C41.0122 31.4134 41.0157 31.4083 41.0175 31.4025C41.0192 31.3967 41.0193 31.3905 41.0176 31.3846C41.0159 31.3788 41.0125 31.3736 41.0079 31.3697C39.6982 30.2259 38.1298 29.3438 36.4179 29.025C36.2235 28.9888 36.2107 29.0222 36.3795 29.1253C37.3948 29.745 38.366 30.7416 38.7879 31.8684C38.7923 31.881 38.8016 31.8913 38.8137 31.897C38.8258 31.9028 38.8398 31.9037 38.8526 31.8994Z" stroke="#795E69" stroke-width="2"/>
<path d="M28.9603 9.92342C28.9583 9.92811 28.9574 9.93321 28.9579 9.93829C28.9583 9.94336 28.96 9.94825 28.9628 9.95251C28.9656 9.95678 28.9694 9.96029 28.9738 9.96274C28.9783 9.96519 28.9833 9.9665 28.9884 9.96655L29.9493 9.96374C29.9544 9.96369 29.9594 9.96238 29.9639 9.95993C29.9684 9.95748 29.9721 9.95397 29.9749 9.9497C29.9777 9.94544 29.9794 9.94055 29.9798 9.93547C29.9803 9.9304 29.9795 9.92529 29.9775 9.92061L29.4937 8.80874C29.4914 8.80308 29.4874 8.79824 29.4823 8.79483C29.4772 8.79143 29.4712 8.78961 29.4651 8.78961C29.459 8.78961 29.453 8.79143 29.4479 8.79483C29.4428 8.79824 29.4389 8.80308 29.4365 8.80874L28.9603 9.92342Z" stroke="#795E69" stroke-width="2"/>
<path d="M24.1385 9.42098C24.1241 9.42411 24.1169 9.43317 24.1169 9.44817L24.1104 10.2244C24.1104 10.2292 24.1115 10.234 24.1136 10.2383C24.1157 10.2427 24.1187 10.2465 24.1225 10.2494C24.1263 10.2524 24.1307 10.2545 24.1355 10.2555C24.1402 10.2565 24.145 10.2565 24.1497 10.2554L24.9963 10.0341C25.0823 10.0118 25.16 9.96495 25.2198 9.89917C25.2796 9.83338 25.3189 9.75158 25.3329 9.66379L25.3497 9.55411C25.3576 9.50427 25.3531 9.45325 25.3364 9.40563C25.3197 9.358 25.2915 9.31526 25.2542 9.28124C25.2169 9.24723 25.1718 9.223 25.1229 9.21073C25.0739 9.19847 25.0227 9.19856 24.9738 9.21098L24.1385 9.42098Z" stroke="#795E69" stroke-width="2"/>
<path d="M24.1451 11.3729C24.6035 11.281 25.2354 11.1901 25.437 10.8366C25.5289 10.6766 25.5251 10.5401 25.4257 10.427C25.196 10.1645 24.4245 10.4466 24.1395 10.5216C24.1245 10.5254 24.117 10.5351 24.117 10.5507L24.1151 11.3485C24.1151 11.3691 24.1251 11.3773 24.1451 11.3729Z" stroke="#795E69" stroke-width="2"/>
<path d="M18.3776 17.4414C18.3752 17.436 18.3713 17.4314 18.3662 17.4283C18.3612 17.4251 18.3553 17.4236 18.3494 17.4239C18.3435 17.4242 18.3378 17.4263 18.3331 17.43C18.3284 17.4336 18.325 17.4386 18.3232 17.4442L17.9144 18.857C17.9129 18.8623 17.913 18.8679 17.9145 18.8732C17.9161 18.8784 17.9191 18.8832 17.9232 18.8868C17.9273 18.8904 17.9324 18.8928 17.9378 18.8937C17.9432 18.8945 17.9488 18.8939 17.9538 18.8917L18.7779 18.5336C18.7848 18.5305 18.7902 18.5249 18.793 18.5179C18.7958 18.5109 18.7957 18.503 18.7929 18.4961L18.3776 17.4414Z" stroke="#795E69" stroke-width="2"/>
<path d="M45.699 20.267C45.7408 20.2924 45.7887 20.306 45.8375 20.3063C45.8864 20.3066 45.9344 20.2935 45.9765 20.2686C46.0185 20.2436 46.0529 20.2077 46.0761 20.1646C46.0992 20.1216 46.1102 20.073 46.1078 20.0242L46.1012 19.8986C46.0862 19.5892 45.9494 19.3501 45.6906 19.1814L44.8703 18.6451C44.8649 18.6418 44.8587 18.6398 44.8523 18.6396C44.8459 18.6394 44.8396 18.6408 44.8341 18.6438C44.8285 18.6468 44.8239 18.6512 44.8207 18.6565C44.8175 18.6619 44.8159 18.668 44.8159 18.6742L44.8187 19.6792C44.8188 19.6955 44.823 19.7116 44.831 19.7258C44.8391 19.7401 44.8507 19.7521 44.8647 19.7608L45.699 20.267Z" stroke="#795E69" stroke-width="2"/>
<path d="M14.1983 19.0444C13.9208 18.9722 13.4699 19.3191 13.2824 19.4626C13.2555 19.4832 13.2421 19.5107 13.2421 19.5451V20.6954C13.242 20.7013 13.2435 20.7071 13.2466 20.7122C13.2496 20.7173 13.254 20.7214 13.2593 20.7241C13.2645 20.7269 13.2704 20.7281 13.2763 20.7276C13.2822 20.7272 13.2879 20.7251 13.2927 20.7216C13.4952 20.5791 13.6977 20.4313 13.9002 20.2782C14.1843 20.0644 14.4655 19.4841 14.2677 19.1007C14.2606 19.0871 14.2508 19.0751 14.2388 19.0654C14.2269 19.0557 14.2131 19.0486 14.1983 19.0444Z" stroke="#795E69" stroke-width="2"/>
<path d="M49.2712 36.8494C45.2606 45.3056 38.3568 51.96 29.7975 55.7259C29.7853 55.7313 29.7723 55.734 29.7592 55.734C29.7462 55.734 29.7333 55.7313 29.7215 55.7259C17.8115 50.49 9.4687 39.87 7.10901 27.0834C7.04339 26.7291 7.01058 26.3581 7.01058 25.9706C7.00683 21.8919 7.0062 17.8175 7.0087 13.7475C7.00868 13.7315 7.01182 13.7156 7.01793 13.7008C7.02405 13.686 7.03301 13.6726 7.04433 13.6613C13.304 7.40251 21.7706 4.01626 30.6571 4.25532C38.924 4.47751 46.5825 7.83657 52.4465 13.6238C52.4965 13.6731 52.5212 13.7491 52.5206 13.8516C52.5118 18.0078 52.5084 22.1641 52.5103 26.3203C52.5103 26.5009 52.4746 26.7834 52.4034 27.1678C51.7809 30.5328 50.7368 33.76 49.2712 36.8494ZM51.5165 14.0925C45.0506 7.72501 36.1818 4.59657 27.1406 5.32313C19.98 5.89782 13.2534 8.98501 8.03245 14.0466C7.99808 14.0791 7.98089 14.1194 7.98089 14.1675C7.97464 18.1906 7.97839 22.2103 7.99214 26.2266C7.99214 26.3522 7.98651 26.4778 8.00901 26.6025C10.2112 39.0356 18.1893 49.4447 29.699 54.6506C29.7196 54.6601 29.742 54.6649 29.7649 54.6647C29.7877 54.6645 29.8103 54.6594 29.8312 54.6497C41.1871 49.4456 49.1962 39.2597 51.4387 26.9541C51.5043 26.5941 51.5371 26.2159 51.5371 25.8197C51.5384 21.9241 51.5381 18.0313 51.5362 14.1413C51.5362 14.1225 51.5296 14.1063 51.5165 14.0925Z" fill="#313030"/>
<path d="M27.1405 5.32313C36.1818 4.59657 45.0505 7.72501 51.5165 14.0925C51.5296 14.1063 51.5361 14.1225 51.5361 14.1413C51.538 18.0313 51.5383 21.9241 51.5371 25.8197C51.5371 26.2159 51.5043 26.5941 51.4386 26.9541C49.1961 39.2597 41.1871 49.4456 29.8312 54.6497C29.8103 54.6594 29.7876 54.6645 29.7648 54.6647C29.742 54.6649 29.7195 54.6601 29.699 54.6506C18.1893 49.4447 10.2111 39.0356 8.00896 26.6025C7.98646 26.4778 7.99209 26.3522 7.99209 26.2266C7.97834 22.2103 7.97458 18.1906 7.98083 14.1675C7.98083 14.1194 7.99802 14.0791 8.0324 14.0466C13.2533 8.98501 19.9799 5.89782 27.1405 5.32313ZM36.4696 10.6959C36.4677 10.6216 36.503 10.5938 36.5755 10.6125C37.8693 10.9438 39.0443 11.3106 40.1005 11.7131C43.8436 13.1375 47.1705 15.26 50.0812 18.0806C50.0874 18.0868 50.0953 18.0909 50.1038 18.0925C50.1124 18.0942 50.1213 18.0932 50.1293 18.0898C50.1374 18.0864 50.1442 18.0807 50.149 18.0734C50.1538 18.0661 50.1562 18.0575 50.1562 18.0488V15.2025C50.1561 15.1821 50.152 15.1618 50.1439 15.143C50.1359 15.1241 50.1241 15.1071 50.1093 15.0928C38.8021 4.04345 20.6783 4.07063 9.38427 15.1172C9.3651 15.1363 9.35431 15.1623 9.35427 15.1894L9.35521 18.0703C9.35513 18.0777 9.35725 18.085 9.36131 18.0912C9.36536 18.0974 9.37117 18.1023 9.378 18.1052C9.38482 18.1081 9.39236 18.109 9.39965 18.1076C9.40694 18.1062 9.41366 18.1027 9.41896 18.0975C13.1699 14.4469 17.8321 11.8359 22.9443 10.6303C22.9562 10.6276 22.9685 10.6276 22.9804 10.6303C22.9923 10.6331 23.0034 10.6384 23.0129 10.646C23.0224 10.6536 23.03 10.6632 23.0352 10.6741C23.0403 10.6851 23.0429 10.697 23.0427 10.7091L23.0418 10.7775C23.0405 10.8425 23.0083 10.8828 22.9452 10.8984C22.2852 11.0659 21.7383 11.2153 21.3046 11.3466C16.7715 12.7191 12.8071 15.0609 9.41146 18.3722C9.3931 18.3903 9.37858 18.4118 9.36875 18.4355C9.35893 18.4592 9.354 18.4845 9.35427 18.51C9.35677 21.1838 9.36334 23.8653 9.37396 26.5547C9.3749 26.6569 9.36552 26.7666 9.38521 26.8688C11.6568 38.4 19.0377 48.0244 29.6718 53.0456C29.6976 53.0577 29.7256 53.0639 29.754 53.0639C29.7823 53.0639 29.8103 53.0577 29.8358 53.0456C32.3596 51.8581 34.7168 50.4019 36.9074 48.6769C36.9343 48.6556 36.9458 48.6275 36.9421 48.5925C36.809 47.4431 36.5736 46.3153 36.2361 45.2091C36.2339 45.2015 36.2298 45.1947 36.2241 45.1892C36.2185 45.1837 36.2116 45.1797 36.2041 45.1775C36.1965 45.1754 36.1885 45.1752 36.1809 45.1769C36.1732 45.1787 36.1661 45.1823 36.1602 45.1875C34.219 46.875 32.1102 48.3181 29.834 49.5169C29.81 49.5296 29.7834 49.5363 29.7564 49.5363C29.7294 49.5363 29.7029 49.5296 29.6793 49.5169C28.9911 49.1522 28.2168 48.7856 27.6918 48.2559C25.7568 46.3059 25.6733 43.2338 27.4077 41.1253C27.4302 41.0984 27.4268 41.0756 27.3974 41.0569C25.289 39.7116 24.1761 37.3547 24.6655 34.8741C24.667 34.8659 24.6663 34.8575 24.6636 34.8496C24.6609 34.8417 24.6562 34.8347 24.65 34.8291C24.6438 34.8236 24.6363 34.8197 24.6282 34.8179C24.6201 34.8161 24.6116 34.8164 24.6036 34.8188C22.4952 35.4656 20.7477 37.3303 19.4586 39.0413C19.3743 39.1531 19.3593 39.1447 19.4136 39.0159C20.5893 36.2147 22.6546 33.3225 25.9883 33.1144C26.0233 33.1125 26.0387 33.1288 26.0343 33.1631C25.988 33.5225 25.9527 33.8828 25.9283 34.2441C25.7815 36.4147 26.4236 38.2197 27.8549 39.6591C29.0708 40.8825 30.7771 41.6878 32.4618 42.0516C32.723 42.1078 33.1599 42.1931 33.7724 42.3075C35.653 42.66 37.3968 43.7175 37.7774 45.7388C37.7849 45.7794 37.809 45.7959 37.8496 45.7884C39.6112 45.4509 41.0943 44.4984 41.3099 42.5766C41.3113 42.5639 41.3154 42.5518 41.3219 42.5409C41.3284 42.5301 41.3371 42.5208 41.3474 42.5138C41.7924 42.2156 42.178 41.8534 42.5043 41.4272C42.558 41.3566 42.5415 41.3309 42.4546 41.3503C40.3368 41.8134 38.3708 41.0691 38.3577 38.6109C38.3577 38.5983 38.3547 38.5857 38.3491 38.5743C38.3435 38.5629 38.3354 38.553 38.3254 38.5452C38.3153 38.5374 38.3037 38.5321 38.2912 38.5295C38.2788 38.5269 38.266 38.5272 38.2537 38.5303L37.2402 38.7909C37.2363 38.7921 37.232 38.7919 37.2282 38.7904C37.2244 38.7889 37.2212 38.7862 37.219 38.7826C37.2169 38.7791 37.216 38.775 37.2164 38.7709C37.2169 38.7668 37.2186 38.763 37.2215 38.76C39.0411 36.8213 41.4674 36.9544 43.6002 38.2472C43.6265 38.2628 43.639 38.2859 43.6377 38.3166C43.6143 38.9822 43.2805 39.6047 42.9083 40.1991C42.8727 40.2566 42.8858 40.2719 42.9477 40.245C43.7146 39.9131 44.4305 39.4606 45.0955 38.8875C45.254 38.7516 45.5287 38.6334 45.6983 38.4778C46.4399 37.7972 46.3555 36.7838 45.9965 35.9259C45.9265 35.7584 45.9568 35.7381 46.0874 35.865C46.3696 36.1388 47.0633 36.5278 47.3849 36.1369C48.058 35.3213 46.783 34.1203 46.2121 33.6619C45.4902 33.0825 44.7024 32.6091 43.8486 32.2416C43.8199 32.2291 43.8024 32.2072 43.7962 32.1759C43.7486 31.9353 43.6965 31.6959 43.6396 31.4578C42.613 27.1444 36.4293 26.1009 32.8115 25.8075C31.6002 25.7094 30.3896 25.6059 29.1796 25.4972C27.2777 25.3259 25.4202 24.95 23.6071 24.3694C23.604 24.3685 23.6007 24.3683 23.5976 24.3689C23.5944 24.3695 23.5914 24.3709 23.5889 24.373C23.5864 24.375 23.5845 24.3776 23.5832 24.3806C23.582 24.3836 23.5815 24.3868 23.5818 24.39C23.9174 27.5963 26.0633 29.2894 29.1796 29.4844C29.2046 29.4863 29.223 29.4944 29.2349 29.5088C29.2561 29.5338 29.2505 29.5488 29.218 29.5538C26.7665 29.9241 24.4471 29.2781 23.1833 26.9906C23.0296 26.7125 22.9021 26.4288 22.8008 26.1394C22.7953 26.1233 22.7839 26.1098 22.7688 26.1017C22.7537 26.0936 22.7361 26.0913 22.7193 26.0953C19.5318 26.8669 16.5271 28.2225 14.068 30.405C13.6011 30.82 13.1668 31.2069 12.7649 31.5656C12.6324 31.6838 12.6024 31.6619 12.6749 31.5C12.8855 31.0338 13.1415 30.5938 13.4427 30.18C13.4515 30.1681 13.4573 30.1542 13.4597 30.1396C13.4622 30.1249 13.4612 30.1099 13.4568 30.0956C13.2443 29.4044 13.049 28.7081 12.8708 28.0069C12.8361 27.8719 12.8249 27.8081 12.9449 27.7116C17.7711 23.8519 23.7421 21.6806 29.954 21.7688C36.1971 21.8581 41.7574 23.8559 46.6349 27.7622C46.6465 27.7718 46.6555 27.7841 46.6612 27.798C46.667 27.8118 46.6692 27.8269 46.6677 27.8419C46.6621 27.905 46.6483 27.9809 46.6265 28.0697C46.3265 29.2784 45.963 30.4613 45.5362 31.6181C45.5255 31.6469 45.5336 31.6684 45.5605 31.6828C46.5174 32.2153 47.3562 32.8919 48.0768 33.7125C48.0955 33.7338 48.1099 33.7313 48.1199 33.705C48.9918 31.5256 49.6493 29.2819 50.0924 26.9738C50.1349 26.7544 50.1562 26.5991 50.1562 26.5078C50.1568 23.8284 50.1568 21.1584 50.1562 18.4978C50.1561 18.4753 50.1516 18.453 50.1427 18.4322C50.1338 18.4114 50.1209 18.3926 50.1046 18.3769C46.279 14.6569 41.7668 12.1656 36.568 10.9031C36.5049 10.8881 36.4727 10.8481 36.4715 10.7831L36.4696 10.6959Z" fill="#F2BBD2"/>
<path d="M36.4696 10.6959L36.4714 10.7831C36.4727 10.8481 36.5049 10.8881 36.568 10.9031C41.7668 12.1656 46.2789 14.6568 50.1046 18.3768C50.1209 18.3925 50.1338 18.4113 50.1427 18.4321C50.1515 18.4529 50.1561 18.4752 50.1561 18.4978C50.1568 21.1584 50.1568 23.8284 50.1561 26.5078C50.1561 26.599 50.1349 26.7543 50.0924 26.9737C49.6493 29.2818 48.9918 31.5256 48.1199 33.705C48.1099 33.7312 48.0955 33.7337 48.0768 33.7125C47.3561 32.8918 46.5174 32.2153 45.5605 31.6828C45.5336 31.6684 45.5255 31.6468 45.5361 31.6181C45.963 30.4612 46.3264 29.2784 46.6264 28.0696C46.6483 27.9809 46.6621 27.905 46.6677 27.8418C46.6692 27.8269 46.6669 27.8118 46.6612 27.7979C46.6555 27.784 46.6465 27.7717 46.6349 27.7621C41.7574 23.8559 36.1971 21.8581 29.9539 21.7687C23.7421 21.6806 17.7711 23.8518 12.9449 27.7115C12.8249 27.8081 12.8361 27.8718 12.8708 28.0068C13.0489 28.7081 13.2443 29.4043 13.4568 30.0956C13.4612 30.1098 13.4622 30.1249 13.4597 30.1395C13.4573 30.1542 13.4515 30.168 13.4427 30.18C13.1414 30.5937 12.8855 31.0337 12.6749 31.5C12.6024 31.6618 12.6324 31.6837 12.7649 31.5656C13.1668 31.2068 13.6011 30.82 14.068 30.405C16.5271 28.2225 19.5318 26.8668 22.7193 26.0953C22.736 26.0912 22.7537 26.0935 22.7688 26.1017C22.7839 26.1098 22.7953 26.1232 22.8008 26.1393C22.9021 26.4287 23.0296 26.7125 23.1833 26.9906C24.4471 29.2781 26.7664 29.924 29.218 29.5537C29.2505 29.5487 29.2561 29.5337 29.2349 29.5087C29.223 29.4943 29.2046 29.4862 29.1796 29.4843C26.0633 29.2893 23.9174 27.5962 23.5818 24.39C23.5815 24.3867 23.582 24.3835 23.5832 24.3805C23.5845 24.3776 23.5864 24.3749 23.5889 24.3729C23.5914 24.3709 23.5944 24.3695 23.5976 24.3689C23.6007 24.3682 23.604 24.3684 23.6071 24.3693C25.4202 24.95 27.2777 25.3259 29.1796 25.4971C30.3896 25.6059 31.6002 25.7093 32.8114 25.8075C36.4293 26.1009 42.613 27.1443 43.6396 31.4578C43.6964 31.6959 43.7486 31.9353 43.7961 32.1759C43.8024 32.2071 43.8199 32.229 43.8486 32.2415C44.7024 32.609 45.4902 33.0825 46.2121 33.6618C46.783 34.1203 48.058 35.3212 47.3849 36.1368C47.0633 36.5278 46.3696 36.1387 46.0874 35.865C45.9568 35.7381 45.9264 35.7584 45.9964 35.9259C46.3555 36.7837 46.4399 37.7971 45.6983 38.4778C45.5286 38.6334 45.2539 38.7515 45.0955 38.8875C44.4305 39.4606 43.7146 39.9131 42.9477 40.245C42.8858 40.2718 42.8727 40.2565 42.9083 40.199C43.2805 39.6046 43.6143 38.9821 43.6377 38.3165C43.6389 38.2859 43.6264 38.2628 43.6002 38.2471C41.4674 36.9543 39.0411 36.8212 37.2214 38.76C37.2186 38.7629 37.2168 38.7668 37.2164 38.7709C37.216 38.7749 37.2169 38.7791 37.219 38.7826C37.2211 38.7861 37.2244 38.7888 37.2282 38.7903C37.232 38.7918 37.2362 38.792 37.2402 38.7909L38.2536 38.5303C38.2659 38.5271 38.2788 38.5268 38.2912 38.5294C38.3036 38.532 38.3153 38.5374 38.3254 38.5452C38.3354 38.5529 38.3435 38.5629 38.3491 38.5743C38.3547 38.5857 38.3577 38.5982 38.3577 38.6109C38.3708 41.069 40.3368 41.8134 42.4546 41.3503C42.5414 41.3309 42.558 41.3565 42.5043 41.4271C42.178 41.8534 41.7924 42.2156 41.3474 42.5137C41.3371 42.5208 41.3284 42.5301 41.3219 42.5409C41.3154 42.5517 41.3113 42.5639 41.3099 42.5765C41.0943 44.4984 39.6111 45.4509 37.8496 45.7884C37.8089 45.7959 37.7849 45.7793 37.7774 45.7387C37.3968 43.7175 35.653 42.66 33.7724 42.3075C33.1599 42.1931 32.723 42.1078 32.4618 42.0515C30.7771 41.6878 29.0708 40.8825 27.8549 39.659C26.4236 38.2196 25.7814 36.4146 25.9283 34.244C25.9527 33.8828 25.988 33.5225 26.0343 33.1631C26.0386 33.1287 26.0233 33.1125 25.9883 33.1143C22.6546 33.3225 20.5893 36.2146 19.4136 39.0159C19.3593 39.1446 19.3743 39.1531 19.4586 39.0412C20.7477 37.3303 22.4952 35.4656 24.6036 34.8187C24.6116 34.8163 24.6201 34.816 24.6282 34.8179C24.6363 34.8197 24.6438 34.8235 24.65 34.8291C24.6562 34.8346 24.6609 34.8417 24.6636 34.8495C24.6663 34.8574 24.667 34.8658 24.6655 34.874C24.1761 37.3546 25.2889 39.7115 27.3974 41.0568C27.4268 41.0756 27.4302 41.0984 27.4077 41.1253C25.6733 43.2337 25.7568 46.3059 27.6918 48.2559C28.2168 48.7856 28.9911 49.1521 29.6793 49.5168C29.7029 49.5295 29.7294 49.5362 29.7564 49.5362C29.7834 49.5362 29.81 49.5295 29.8339 49.5168C32.1102 48.3181 34.2189 46.875 36.1602 45.1875C36.1661 45.1822 36.1732 45.1786 36.1809 45.1769C36.1885 45.1751 36.1965 45.1753 36.2041 45.1775C36.2116 45.1796 36.2185 45.1836 36.2241 45.1891C36.2297 45.1947 36.2339 45.2015 36.2361 45.209C36.5736 46.3153 36.8089 47.4431 36.9421 48.5925C36.9458 48.6275 36.9343 48.6556 36.9074 48.6768C34.7168 50.4018 32.3596 51.8581 29.8358 53.0456C29.8103 53.0576 29.7823 53.0639 29.754 53.0639C29.7256 53.0639 29.6975 53.0576 29.6718 53.0456C19.0377 48.0243 11.6568 38.4 9.3852 26.8687C9.36551 26.7665 9.37488 26.6568 9.37395 26.5546C9.36332 23.8653 9.35676 21.1837 9.35426 18.51C9.35399 18.4845 9.35891 18.4591 9.36874 18.4354C9.37856 18.4118 9.39309 18.3902 9.41145 18.3721C12.8071 15.0609 16.7714 12.719 21.3046 11.3465C21.7383 11.2153 22.2852 11.0659 22.9452 10.8984C23.0083 10.8828 23.0405 10.8425 23.0418 10.7775L23.0427 10.709C23.0429 10.697 23.0403 10.685 23.0351 10.6741C23.03 10.6631 23.0224 10.6535 23.0129 10.6459C23.0034 10.6384 22.9923 10.633 22.9804 10.6303C22.9685 10.6276 22.9562 10.6276 22.9443 10.6303C17.8321 11.8359 13.1699 14.4468 9.41895 18.0975C9.41365 18.1027 9.40693 18.1062 9.39964 18.1075C9.39234 18.1089 9.38481 18.1081 9.37798 18.1052C9.37116 18.1023 9.36535 18.0974 9.36129 18.0912C9.35724 18.085 9.35512 18.0777 9.3552 18.0703L9.35426 15.1893C9.3543 15.1622 9.36509 15.1363 9.38426 15.1171C20.6783 4.07058 38.8021 4.0434 50.1093 15.0928C50.1241 15.107 50.1358 15.1241 50.1439 15.1429C50.152 15.1618 50.1561 15.182 50.1561 15.2025V18.0487C50.1562 18.0574 50.1537 18.066 50.149 18.0733C50.1442 18.0806 50.1373 18.0863 50.1293 18.0898C50.1213 18.0932 50.1124 18.0941 50.1038 18.0925C50.0952 18.0909 50.0873 18.0867 50.0811 18.0806C47.1705 15.26 43.8436 13.1375 40.1005 11.7131C39.0443 11.3106 37.8693 10.9437 36.5755 10.6125C36.503 10.5937 36.4677 10.6215 36.4696 10.6959ZM30.1302 10.2853L30.3749 10.8506C30.3847 10.8729 30.4007 10.8919 30.421 10.9052C30.4414 10.9185 30.4651 10.9256 30.4893 10.9256L30.6346 10.9246C30.7021 10.9246 30.7221 10.8937 30.6946 10.8318L29.6549 8.48339C29.6391 8.44826 29.6135 8.41842 29.5811 8.39752C29.5488 8.37661 29.5111 8.36553 29.4726 8.36563C29.4342 8.36573 29.3966 8.377 29.3646 8.39808C29.3325 8.41915 29.3073 8.44912 29.2921 8.48433L28.2552 10.8637C28.2283 10.9243 28.248 10.955 28.3143 10.9556L28.4183 10.9565C28.4871 10.9571 28.5349 10.9256 28.5618 10.8618L28.7952 10.3031C28.8005 10.29 28.8096 10.2787 28.8212 10.2707C28.8329 10.2627 28.8467 10.2583 28.8608 10.2581L30.0636 10.2421C30.0955 10.2415 30.1177 10.2559 30.1302 10.2853ZM32.8649 10.6012C32.2799 11.0184 31.5205 10.725 31.3058 10.0443C30.9721 8.99152 32.0155 8.33058 32.8527 9.15933C32.9064 9.21246 32.9602 9.21215 33.0139 9.1584L33.0327 9.13871C33.0858 9.08496 33.0896 9.02777 33.0439 8.96714C32.6427 8.4384 31.8308 8.33152 31.3639 8.74402C31.0002 9.06558 30.838 9.56996 30.9721 10.0425C31.2224 10.919 32.2574 11.4928 33.0524 10.8515C33.1143 10.8015 33.1208 10.7453 33.0721 10.6828L33.0271 10.6256C33.0084 10.6012 32.9809 10.585 32.9507 10.5804C32.9204 10.5759 32.8896 10.5833 32.8649 10.6012ZM26.6389 10.845C26.6324 10.8457 26.6258 10.8452 26.6195 10.8432C26.6132 10.8413 26.6074 10.838 26.6024 10.8337C26.5975 10.8294 26.5935 10.824 26.5908 10.8181C26.588 10.8121 26.5865 10.8056 26.5864 10.799L26.5874 8.68871C26.5874 8.68205 26.5861 8.67546 26.5834 8.66937C26.5807 8.66328 26.5767 8.65784 26.5717 8.6534C26.5668 8.64897 26.5609 8.64564 26.5546 8.64365C26.5482 8.64165 26.5415 8.64103 26.5349 8.64183L26.3399 8.66621C26.3286 8.66757 26.3182 8.67298 26.3106 8.68143C26.303 8.68987 26.2988 8.70079 26.2986 8.71214L26.2949 11.1234C26.2948 11.1301 26.2962 11.1366 26.2989 11.1427C26.3016 11.1488 26.3056 11.1543 26.3105 11.1587C26.3155 11.1631 26.3214 11.1665 26.3277 11.1685C26.3341 11.1705 26.3408 11.1711 26.3474 11.1703L27.9027 10.9734C27.9143 10.972 27.9249 10.9663 27.9326 10.9575C27.9402 10.9486 27.9443 10.9373 27.9439 10.9256L27.9393 10.739C27.939 10.7325 27.9375 10.7261 27.9347 10.7203C27.9319 10.7144 27.9279 10.7092 27.9229 10.705C27.918 10.7007 27.9122 10.6976 27.906 10.6957C27.8998 10.6938 27.8932 10.6932 27.8868 10.694L26.6389 10.845ZM35.2564 9.11714C35.2511 9.11515 35.2453 9.11462 35.2397 9.11561C35.2341 9.1166 35.2289 9.11907 35.2246 9.12277L33.928 10.2131C33.9234 10.217 33.9177 10.2196 33.9117 10.2204C33.9056 10.2212 33.8995 10.2203 33.894 10.2177C33.8884 10.2151 33.8838 10.211 33.8805 10.2059C33.8772 10.2008 33.8755 10.1948 33.8755 10.1887L33.8764 8.81902C33.8766 8.81146 33.874 8.8041 33.8692 8.79826C33.8644 8.79242 33.8576 8.78848 33.8502 8.78715L33.6243 8.74964C33.6197 8.74883 33.615 8.74901 33.6106 8.75018C33.6061 8.75136 33.6019 8.75349 33.5983 8.75643C33.5948 8.75938 33.5919 8.76306 33.5899 8.76723C33.5879 8.7714 33.5868 8.77596 33.5868 8.78058L33.5811 11.2275C33.581 11.235 33.5836 11.2424 33.5884 11.2482C33.5932 11.2541 33.5999 11.258 33.6074 11.2593L33.8418 11.3015C33.8464 11.3024 33.8511 11.3021 33.8557 11.3009C33.8602 11.2997 33.8644 11.2975 33.868 11.2944C33.8716 11.2914 33.8745 11.2876 33.8764 11.2833C33.8784 11.279 33.8793 11.2743 33.8793 11.2696L33.8774 10.6621C33.8774 10.6577 33.8783 10.6534 33.8801 10.6493C33.8819 10.6453 33.8844 10.6417 33.8877 10.6387L34.3339 10.2421C34.3374 10.2391 34.3414 10.2369 34.3458 10.2355C34.3502 10.2342 34.3548 10.2339 34.3594 10.2345C34.3639 10.2351 34.3682 10.2367 34.3721 10.2392C34.376 10.2416 34.3793 10.2449 34.3818 10.2487L35.2827 11.6615C35.285 11.6651 35.288 11.6682 35.2916 11.6707C35.2951 11.6731 35.2991 11.6747 35.3033 11.6756L35.5799 11.7281C35.5859 11.7291 35.5921 11.7284 35.5977 11.7261C35.6034 11.7237 35.6082 11.7198 35.6117 11.7147C35.6151 11.7097 35.617 11.7038 35.6172 11.6976C35.6174 11.6915 35.6158 11.6855 35.6127 11.6803L34.5927 10.0753C34.5886 10.0688 34.5871 10.061 34.5883 10.0534C34.5895 10.0458 34.5934 10.039 34.5993 10.034L35.533 9.27183C35.5375 9.26829 35.541 9.2636 35.5431 9.25823C35.5452 9.25287 35.5458 9.24705 35.5448 9.24138C35.5439 9.23571 35.5414 9.23041 35.5377 9.22603C35.5339 9.22165 35.5291 9.21837 35.5236 9.21652L35.2564 9.11714ZM25.3583 10.0246C25.6058 9.77433 25.7989 9.35433 25.4905 9.05996C25.2083 8.79089 24.2764 9.10215 23.8977 9.22871C23.8614 9.24058 23.8433 9.26589 23.8433 9.30464L23.8349 11.6718C23.835 11.6792 23.8367 11.6865 23.84 11.6932C23.8432 11.6998 23.8479 11.7056 23.8537 11.7101C23.8595 11.7147 23.8662 11.7178 23.8734 11.7193C23.8805 11.7207 23.8878 11.7206 23.8949 11.7187C24.4639 11.5678 25.4858 11.46 25.7239 10.8675C25.8808 10.4775 25.7646 10.2196 25.3752 10.094C25.3327 10.0796 25.3271 10.0565 25.3583 10.0246ZM30.7096 14.4009L32.1768 14.4881C32.2105 14.49 32.2274 14.474 32.2274 14.4403L32.2283 12.9281C32.2289 12.8931 32.2114 12.874 32.1758 12.8709C30.5602 12.7484 28.9443 12.749 27.328 12.8728C27.2899 12.8759 27.2708 12.8965 27.2708 12.9346L27.2699 14.4618C27.2699 14.4664 27.2708 14.471 27.2726 14.4752C27.2744 14.4794 27.2771 14.4832 27.2804 14.4864C27.2838 14.4895 27.2877 14.492 27.292 14.4936C27.2963 14.4952 27.3009 14.4958 27.3055 14.4956L28.7961 14.4056C28.8027 14.4051 28.8093 14.4059 28.8156 14.4081C28.8218 14.4103 28.8275 14.4137 28.8324 14.4182C28.8372 14.4227 28.8411 14.4281 28.8437 14.4342C28.8464 14.4402 28.8477 14.4468 28.8477 14.4534L28.8458 18.4593C28.8458 18.4887 28.8602 18.5034 28.8889 18.5034L30.6252 18.495C30.6332 18.495 30.6408 18.4918 30.6464 18.4862C30.652 18.4805 30.6552 18.4729 30.6552 18.465L30.6533 14.4543C30.6533 14.4168 30.6721 14.399 30.7096 14.4009ZM25.1005 15.5671C25.1005 15.5732 25.0986 15.5792 25.0951 15.5841C25.0916 15.5891 25.0867 15.5929 25.081 15.5951C25.0753 15.5972 25.0691 15.5976 25.0632 15.5961C25.0573 15.5946 25.052 15.5914 25.048 15.5868L23.2433 13.5196C23.2397 13.5155 23.2349 13.5124 23.2296 13.5107C23.2243 13.5091 23.2187 13.5089 23.2133 13.5103L21.6083 13.9406C21.6019 13.9422 21.5962 13.946 21.5921 13.9513C21.588 13.9565 21.5858 13.963 21.5858 13.9696V19.6359C21.5858 19.6405 21.5869 19.645 21.5889 19.6491C21.5909 19.6532 21.5938 19.6568 21.5974 19.6596C21.6011 19.6624 21.6053 19.6644 21.6098 19.6653C21.6142 19.6662 21.6189 19.6661 21.6233 19.665L23.3033 19.2253C23.3098 19.2236 23.3155 19.2198 23.3195 19.2146C23.3236 19.2093 23.3258 19.2029 23.3258 19.1962V16.6546C23.3259 16.6486 23.3277 16.6426 23.3312 16.6376C23.3347 16.6327 23.3396 16.6288 23.3453 16.6267C23.351 16.6246 23.3572 16.6242 23.3631 16.6257C23.369 16.6272 23.3743 16.6304 23.3783 16.635L25.2777 18.8268C25.2809 18.8306 25.285 18.8335 25.2895 18.8353C25.2941 18.8371 25.2991 18.8377 25.3039 18.8371L26.8564 18.6375C26.8637 18.6365 26.8704 18.633 26.8753 18.6274C26.8801 18.6219 26.8828 18.6148 26.8827 18.6075V12.9337C26.8826 12.9295 26.8816 12.9254 26.8798 12.9216C26.878 12.9178 26.8755 12.9144 26.8723 12.9117C26.8691 12.9089 26.8654 12.9069 26.8614 12.9057C26.8573 12.9045 26.8531 12.9041 26.8489 12.9046L25.1277 13.1306C25.1204 13.1315 25.1137 13.1351 25.1089 13.1406C25.104 13.1461 25.1014 13.1532 25.1014 13.1606L25.1005 15.5671ZM34.4099 16.8543C34.4099 16.8498 34.411 16.8454 34.4129 16.8413C34.4149 16.8373 34.4177 16.8337 34.4212 16.8308C34.4247 16.828 34.4287 16.8259 34.4331 16.8248C34.4375 16.8237 34.442 16.8235 34.4464 16.8243L35.9952 17.1262C36.0022 17.1275 36.0086 17.1312 36.0132 17.1367C36.0178 17.1421 36.0204 17.1491 36.0205 17.1562L36.0196 19.154C36.0196 19.1609 36.0219 19.1676 36.0261 19.1731C36.0304 19.1785 36.0363 19.1823 36.043 19.184L37.7427 19.6218C37.7473 19.623 37.752 19.6231 37.7566 19.6221C37.7612 19.6211 37.7655 19.6191 37.7692 19.6162C37.7729 19.6133 37.7759 19.6096 37.778 19.6054C37.7801 19.6012 37.7811 19.5965 37.7811 19.5918L37.7802 13.9256C37.7802 13.9187 37.7779 13.912 37.7736 13.9066C37.7694 13.9011 37.7634 13.8973 37.7568 13.8956L36.0589 13.4578C36.0544 13.4566 36.0496 13.4565 36.045 13.4575C36.0404 13.4585 36.0361 13.4605 36.0324 13.4634C36.0287 13.4663 36.0257 13.47 36.0236 13.4742C36.0216 13.4784 36.0205 13.4831 36.0205 13.4878V15.4275C36.0204 15.432 36.0194 15.4364 36.0174 15.4405C36.0155 15.4445 36.0127 15.4481 36.0092 15.451C36.0057 15.4538 36.0017 15.4559 35.9973 15.457C35.9929 15.4581 35.9884 15.4583 35.9839 15.4575L34.4361 15.1612C34.4291 15.1599 34.4227 15.1562 34.4181 15.1507C34.4135 15.1453 34.4109 15.1384 34.4108 15.1312L34.4155 13.1634C34.4156 13.1558 34.4128 13.1484 34.4078 13.1427C34.4028 13.137 34.3959 13.1334 34.3883 13.1325L32.6568 12.9028C32.6524 12.9022 32.648 12.9026 32.6438 12.904C32.6396 12.9053 32.6357 12.9075 32.6324 12.9104C32.6291 12.9133 32.6265 12.9169 32.6247 12.9209C32.6229 12.925 32.622 12.9293 32.6221 12.9337L32.6193 18.6028C32.6192 18.6104 32.6219 18.6177 32.627 18.6234C32.632 18.6291 32.6389 18.6328 32.6464 18.6337L34.3827 18.8625C34.3871 18.863 34.3915 18.8626 34.3957 18.8613C34.3999 18.86 34.4038 18.8578 34.407 18.8548C34.4103 18.8519 34.4129 18.8483 34.4147 18.8443C34.4165 18.8403 34.4174 18.8359 34.4174 18.8315L34.4099 16.8543ZM40.1071 16.2543L42.6786 17.3859C42.6825 17.3876 42.6868 17.3884 42.691 17.388C42.6952 17.3877 42.6993 17.3863 42.7029 17.3839C42.7064 17.3816 42.7093 17.3784 42.7113 17.3746C42.7133 17.3709 42.7143 17.3667 42.7143 17.3625L42.7152 15.9206C42.7152 15.8979 42.7087 15.8756 42.6966 15.8564C42.6845 15.8371 42.6672 15.8217 42.6468 15.8118C41.2643 15.1481 39.8449 14.575 38.3886 14.0925C38.3857 14.0916 38.3826 14.0914 38.3796 14.0919C38.3766 14.0925 38.3737 14.0937 38.3713 14.0955C38.3688 14.0973 38.3668 14.0997 38.3654 14.1024C38.3641 14.1051 38.3633 14.1082 38.3633 14.1112L38.3624 19.7756C38.3624 19.8037 38.3761 19.8225 38.4036 19.8318C39.8668 20.3131 41.2905 20.8903 42.6749 21.5634C42.6828 21.5672 42.6915 21.569 42.7003 21.5685C42.709 21.568 42.7175 21.5653 42.725 21.5606C42.7324 21.5559 42.7385 21.5494 42.7427 21.5417C42.7469 21.5339 42.749 21.5253 42.7489 21.5165L42.7396 20.0821C42.7396 20.0591 42.7331 20.0366 42.7208 20.017C42.7085 19.9975 42.691 19.9817 42.6702 19.9715C41.8289 19.5546 40.9705 19.1771 40.0949 18.839C40.078 18.8321 40.0693 18.8196 40.0686 18.8015L40.0668 18.239C40.0667 18.2351 40.0676 18.2313 40.0695 18.2278C40.0713 18.2244 40.0741 18.2215 40.0774 18.2193C40.0808 18.2172 40.0846 18.2159 40.0887 18.2156C40.0927 18.2152 40.0968 18.2159 40.1005 18.2175L42.5071 19.274C42.5099 19.2753 42.513 19.2758 42.5161 19.2755C42.5191 19.2753 42.5221 19.2743 42.5247 19.2726C42.5273 19.2709 42.5295 19.2687 42.531 19.266C42.5325 19.2633 42.5333 19.2602 42.5333 19.2571L42.5324 17.9465C42.5324 17.9065 42.5139 17.8784 42.4771 17.8621L40.0949 16.8225C40.0824 16.8168 40.0761 16.8075 40.0761 16.7943L40.0668 16.2815C40.0661 16.2509 40.0796 16.2418 40.1071 16.2543ZM17.4627 20.4965C17.464 20.4915 17.4665 20.4869 17.4699 20.483C17.4733 20.4791 17.4776 20.476 17.4824 20.474L19.1924 19.7353C19.1965 19.7334 19.2009 19.7324 19.2055 19.7323C19.21 19.7322 19.2145 19.733 19.2186 19.7347C19.2228 19.7363 19.2267 19.7388 19.2299 19.742C19.2331 19.7451 19.2356 19.7489 19.2374 19.7531L19.4839 20.354C19.4873 20.3619 19.4935 20.3683 19.5013 20.3717C19.5092 20.3752 19.518 20.3756 19.5261 20.3728L21.3496 19.7521C21.354 19.7506 21.3581 19.7482 21.3615 19.745C21.365 19.7418 21.3677 19.7379 21.3696 19.7335C21.3714 19.7292 21.3724 19.7245 21.3723 19.7198C21.3723 19.7151 21.3712 19.7105 21.3693 19.7062L19.2205 14.7506C19.217 14.7424 19.2104 14.7359 19.2021 14.7326C19.1939 14.7293 19.1847 14.7293 19.1764 14.7328L17.533 15.4368C17.5285 15.4388 17.5245 15.4418 17.5212 15.4455C17.518 15.4493 17.5156 15.4536 17.5143 15.4584L15.4499 22.2271C15.4481 22.2335 15.4481 22.2402 15.4501 22.2465C15.452 22.2528 15.4558 22.2583 15.4609 22.2625C15.4659 22.2667 15.4721 22.2693 15.4787 22.27C15.4852 22.2707 15.4918 22.2695 15.4977 22.2665L17.2077 21.3703C17.2118 21.3682 17.2154 21.3652 17.2183 21.3617C17.2212 21.3581 17.2233 21.354 17.2246 21.3496L17.4627 20.4965ZM44.8555 21.1537C45.0224 21.1856 45.1289 21.2575 45.1752 21.3693C45.4614 22.0675 45.7405 22.7578 46.0124 23.4403C46.0295 23.4837 46.0588 23.5215 46.0968 23.549L47.7224 24.7275C47.7993 24.7837 47.8205 24.7675 47.7861 24.6787L46.7839 22.1203C46.7818 22.115 46.7811 22.1093 46.7818 22.1037C46.7825 22.0981 46.7847 22.0928 46.7881 22.0882C46.7915 22.0837 46.796 22.0801 46.8012 22.0778C46.8064 22.0756 46.8121 22.0747 46.8177 22.0753C47.5836 22.1418 47.7055 21.3806 47.6652 20.8115C47.6121 20.0534 47.3621 19.3681 46.9152 18.7556C46.2589 17.8565 45.4424 17.3746 44.3736 16.7446C43.9993 16.524 43.618 16.3109 43.2299 16.1053C43.2244 16.1023 43.2183 16.1009 43.2121 16.101C43.2059 16.1012 43.1998 16.103 43.1945 16.1062C43.1892 16.1094 43.1848 16.114 43.1818 16.1194C43.1788 16.1248 43.1773 16.1309 43.1774 16.1371L43.1783 21.765C43.1784 21.7766 43.1815 21.7881 43.1874 21.7981C43.1934 21.8082 43.2019 21.8165 43.2121 21.8221L44.7768 22.7053C44.7816 22.7079 44.7871 22.7091 44.7926 22.709C44.7981 22.7089 44.8034 22.7073 44.8082 22.7045C44.8129 22.7016 44.8168 22.6976 44.8195 22.6928C44.8222 22.6881 44.8236 22.6826 44.8236 22.6771L44.8143 21.1884C44.8136 21.1596 44.8274 21.1481 44.8555 21.1537ZM13.2768 22.1071C14.6614 21.1734 15.9168 20.1403 15.9514 18.3046C15.9618 17.7159 15.7733 17.175 15.0918 17.1487C14.4364 17.1234 13.9677 17.4553 13.333 17.8893C12.7849 18.265 12.253 18.6512 11.7374 19.0481C11.7202 19.0612 11.7063 19.0782 11.6967 19.0977C11.6871 19.1172 11.6821 19.1387 11.6821 19.1606L11.6811 24.764C11.6813 24.7691 11.6827 24.774 11.6854 24.7783C11.6881 24.7826 11.6919 24.7861 11.6965 24.7884C11.701 24.7907 11.706 24.7917 11.7111 24.7914C11.7161 24.7911 11.721 24.7894 11.7252 24.7865L13.2036 23.7009C13.2161 23.6919 13.2263 23.6801 13.2333 23.6666C13.2403 23.653 13.244 23.6381 13.2439 23.6231L13.2411 22.1746C13.2411 22.1459 13.253 22.1234 13.2768 22.1071ZM38.8527 31.8993C39.5521 31.6575 40.258 31.5028 40.9911 31.424C40.9972 31.4234 41.0029 31.421 41.0076 31.4172C41.0123 31.4133 41.0157 31.4082 41.0175 31.4024C41.0193 31.3966 41.0194 31.3904 41.0177 31.3846C41.016 31.3788 41.0126 31.3736 41.008 31.3696C39.6983 30.2259 38.1299 29.3437 36.418 29.025C36.2236 28.9887 36.2108 29.0221 36.3796 29.1253C37.3949 29.745 38.3661 30.7415 38.788 31.8684C38.7924 31.8809 38.8017 31.8912 38.8138 31.897C38.8259 31.9028 38.8399 31.9036 38.8527 31.8993Z" fill="black"/>
<path d="M30.0638 10.2422L28.861 10.2581C28.8469 10.2584 28.8331 10.2628 28.8215 10.2708C28.8098 10.2788 28.8007 10.29 28.7954 10.3031L28.562 10.8619C28.5351 10.9256 28.4873 10.9572 28.4185 10.9566L28.3145 10.9556C28.2482 10.955 28.2285 10.9244 28.2554 10.8637L29.2923 8.48437C29.3075 8.44916 29.3327 8.41919 29.3648 8.39811C29.3968 8.37704 29.4344 8.36576 29.4728 8.36566C29.5113 8.36556 29.549 8.37664 29.5813 8.39755C29.6137 8.41846 29.6393 8.4483 29.6551 8.48343L30.6948 10.8319C30.7223 10.8937 30.7023 10.9247 30.6348 10.9247L30.4895 10.9256C30.4653 10.9256 30.4416 10.9185 30.4213 10.9052C30.4009 10.8919 30.3849 10.8729 30.3751 10.8506L30.1304 10.2853C30.1179 10.2559 30.0957 10.2416 30.0638 10.2422ZM28.9604 9.92343C28.9584 9.92811 28.9576 9.93322 28.958 9.93829C28.9585 9.94337 28.9601 9.94825 28.9629 9.95252C28.9657 9.95679 28.9695 9.9603 28.974 9.96275C28.9784 9.9652 28.9834 9.9665 28.9885 9.96656L29.9495 9.96374C29.9546 9.96369 29.9596 9.96238 29.964 9.95994C29.9685 9.95749 29.9723 9.95397 29.9751 9.94971C29.9779 9.94544 29.9795 9.94055 29.98 9.93548C29.9804 9.9304 29.9796 9.9253 29.9776 9.92062L29.4938 8.80874C29.4915 8.80308 29.4875 8.79824 29.4825 8.79484C29.4774 8.79144 29.4714 8.78962 29.4653 8.78962C29.4591 8.78962 29.4531 8.79144 29.4481 8.79484C29.443 8.79824 29.439 8.80308 29.4367 8.80874L28.9604 9.92343Z" fill="#F2BBD2"/>
<path d="M31.3059 10.0444C31.5206 10.7251 32.28 11.0185 32.865 10.6013C32.8897 10.5834 32.9205 10.576 32.9508 10.5805C32.9811 10.5851 33.0085 10.6013 33.0272 10.6257L33.0722 10.6829C33.1209 10.7454 33.1144 10.8016 33.0525 10.8516C32.2575 11.4929 31.2225 10.9191 30.9722 10.0426C30.8381 9.57007 31.0003 9.06569 31.3641 8.74413C31.8309 8.33163 32.6428 8.43851 33.0441 8.96726C33.0897 9.02788 33.086 9.08507 33.0328 9.13882L33.0141 9.15851C32.9603 9.21226 32.9066 9.21257 32.8528 9.15944C32.0156 8.33069 30.9722 8.99163 31.3059 10.0444Z" fill="#F2BBD2"/>
<path d="M26.639 10.845L27.8868 10.6941C27.8933 10.6933 27.8998 10.6939 27.906 10.6957C27.9122 10.6976 27.918 10.7008 27.923 10.705C27.9279 10.7092 27.9319 10.7145 27.9347 10.7203C27.9375 10.7262 27.9391 10.7326 27.9393 10.7391L27.944 10.9256C27.9443 10.9373 27.9402 10.9487 27.9326 10.9575C27.925 10.9664 27.9143 10.972 27.9027 10.9734L26.3474 11.1703C26.3408 11.1711 26.3341 11.1705 26.3278 11.1685C26.3214 11.1665 26.3155 11.1632 26.3106 11.1587C26.3056 11.1543 26.3016 11.1489 26.2989 11.1428C26.2962 11.1367 26.2949 11.1301 26.2949 11.1234L26.2987 8.71219C26.2988 8.70084 26.3031 8.68992 26.3107 8.68147C26.3183 8.67302 26.3286 8.66762 26.3399 8.66625L26.5349 8.64188C26.5415 8.64108 26.5482 8.6417 26.5546 8.64369C26.5609 8.64569 26.5668 8.64901 26.5718 8.65345C26.5767 8.65788 26.5807 8.66333 26.5834 8.66941C26.5861 8.6755 26.5875 8.6821 26.5874 8.68875L26.5865 10.7991C26.5866 10.8056 26.588 10.8121 26.5908 10.8181C26.5936 10.8241 26.5975 10.8294 26.6025 10.8337C26.6074 10.8381 26.6132 10.8413 26.6195 10.8433C26.6258 10.8452 26.6325 10.8458 26.639 10.845Z" fill="#F2BBD2"/>
<path d="M28.9604 9.92336L29.4366 8.80868C29.439 8.80302 29.4429 8.79818 29.448 8.79477C29.4531 8.79137 29.4591 8.78955 29.4652 8.78955C29.4714 8.78955 29.4773 8.79137 29.4824 8.79477C29.4875 8.79818 29.4915 8.80302 29.4938 8.80868L29.9776 9.92055C29.9796 9.92523 29.9804 9.93034 29.98 9.93541C29.9795 9.94049 29.9778 9.94537 29.9751 9.94964C29.9723 9.95391 29.9685 9.95742 29.964 9.95987C29.9595 9.96232 29.9545 9.96362 29.9494 9.96368L28.9885 9.96649C28.9834 9.96644 28.9784 9.96513 28.974 9.96268C28.9695 9.96023 28.9657 9.95672 28.9629 9.95245C28.9601 9.94819 28.9584 9.9433 28.958 9.93822C28.9576 9.93315 28.9584 9.92805 28.9604 9.92336Z" fill="black"/>
<path d="M35.2566 9.11721L35.5238 9.21658C35.5292 9.21843 35.5341 9.22171 35.5378 9.22609C35.5416 9.23047 35.544 9.23577 35.545 9.24144C35.546 9.24711 35.5454 9.25294 35.5433 9.2583C35.5412 9.26366 35.5377 9.26836 35.5332 9.27189L34.5994 10.0341C34.5936 10.039 34.5897 10.0459 34.5884 10.0535C34.5872 10.0611 34.5888 10.0688 34.5929 10.0753L35.6129 11.6803C35.616 11.6856 35.6176 11.6916 35.6174 11.6977C35.6172 11.7038 35.6153 11.7097 35.6118 11.7148C35.6084 11.7198 35.6035 11.7238 35.5979 11.7261C35.5923 11.7285 35.5861 11.7292 35.5801 11.7281L35.3035 11.6756C35.2993 11.6748 35.2953 11.6731 35.2917 11.6707C35.2882 11.6683 35.2852 11.6652 35.2829 11.6616L34.3819 10.2488C34.3794 10.2449 34.3761 10.2417 34.3723 10.2392C34.3684 10.2368 34.3641 10.2352 34.3595 10.2345C34.355 10.2339 34.3504 10.2343 34.346 10.2356C34.3416 10.2369 34.3376 10.2392 34.3341 10.2422L33.8879 10.6388C33.8846 10.6418 33.882 10.6454 33.8803 10.6494C33.8785 10.6534 33.8776 10.6578 33.8776 10.6622L33.8794 11.2697C33.8795 11.2744 33.8785 11.2791 33.8766 11.2834C33.8747 11.2876 33.8718 11.2914 33.8682 11.2945C33.8646 11.2975 33.8604 11.2998 33.8559 11.301C33.8513 11.3022 33.8466 11.3024 33.8419 11.3016L33.6076 11.2594C33.6001 11.2581 33.5934 11.2541 33.5886 11.2483C33.5838 11.2424 33.5812 11.2351 33.5813 11.2275L33.5869 8.78064C33.587 8.77602 33.5881 8.77146 33.5901 8.76729C33.5921 8.76312 33.5949 8.75944 33.5985 8.75649C33.6021 8.75355 33.6062 8.75142 33.6107 8.75025C33.6152 8.74907 33.6199 8.74889 33.6244 8.74971L33.8504 8.78721C33.8578 8.78854 33.8645 8.79248 33.8693 8.79832C33.8742 8.80416 33.8767 8.81152 33.8766 8.81908L33.8757 10.1888C33.8757 10.1949 33.8774 10.2008 33.8807 10.206C33.8839 10.2111 33.8886 10.2152 33.8941 10.2178C33.8997 10.2203 33.9058 10.2212 33.9118 10.2204C33.9179 10.2196 33.9235 10.2171 33.9282 10.2131L35.2247 9.12283C35.2291 9.11913 35.2343 9.11666 35.2399 9.11567C35.2455 9.11468 35.2513 9.11521 35.2566 9.11721Z" fill="#F2BBD2"/>
<path d="M25.3754 10.094C25.7648 10.2196 25.881 10.4774 25.7241 10.8674C25.486 11.4599 24.4641 11.5677 23.8951 11.7187C23.888 11.7205 23.8807 11.7207 23.8736 11.7192C23.8664 11.7177 23.8597 11.7146 23.8539 11.7101C23.8481 11.7056 23.8434 11.6998 23.8402 11.6931C23.8369 11.6865 23.8352 11.6792 23.8351 11.6718L23.8435 9.30459C23.8435 9.26584 23.8616 9.24053 23.8979 9.22865C24.2766 9.10209 25.2085 8.79084 25.4907 9.0599C25.7991 9.35428 25.606 9.77428 25.3585 10.0246C25.3273 10.0565 25.3329 10.0796 25.3754 10.094ZM24.1388 9.42084C24.1245 9.42396 24.1173 9.43303 24.1173 9.44803L24.1107 10.2243C24.1107 10.2291 24.1118 10.2339 24.1139 10.2382C24.116 10.2425 24.1191 10.2463 24.1229 10.2493C24.1267 10.2523 24.1311 10.2544 24.1358 10.2554C24.1405 10.2564 24.1454 10.2563 24.1501 10.2552L24.9966 10.034C25.0827 10.0117 25.1604 9.96481 25.2202 9.89902C25.28 9.83324 25.3192 9.75144 25.3332 9.66365L25.3501 9.55397C25.358 9.50413 25.3534 9.45311 25.3367 9.40548C25.3201 9.35786 25.2918 9.31512 25.2546 9.2811C25.2173 9.24709 25.1722 9.22286 25.1232 9.21059C25.0743 9.19833 25.0231 9.19841 24.9741 9.21084L24.1388 9.42084ZM24.1454 11.3727C24.6038 11.2808 25.2357 11.1899 25.4373 10.8365C25.5291 10.6765 25.5254 10.5399 25.426 10.4268C25.1963 10.1643 24.4248 10.4465 24.1398 10.5215C24.1248 10.5252 24.1173 10.5349 24.1173 10.5505L24.1154 11.3483C24.1154 11.369 24.1254 11.3771 24.1454 11.3727Z" fill="#F2BBD2"/>
<path d="M24.1386 9.42092L24.9739 9.21092C25.0228 9.19849 25.074 9.19841 25.123 9.21067C25.1719 9.22294 25.2171 9.24717 25.2543 9.28118C25.2916 9.3152 25.3198 9.35794 25.3365 9.40556C25.3532 9.45319 25.3578 9.50421 25.3498 9.55405L25.333 9.66373C25.319 9.75152 25.2797 9.83332 25.2199 9.8991C25.1602 9.96489 25.0825 10.0118 24.9964 10.034L24.1498 10.2553C24.1452 10.2564 24.1403 10.2565 24.1356 10.2555C24.1309 10.2544 24.1264 10.2524 24.1227 10.2494C24.1189 10.2464 24.1158 10.2426 24.1137 10.2383C24.1116 10.2339 24.1105 10.2292 24.1105 10.2244L24.117 9.44811C24.117 9.43311 24.1242 9.42404 24.1386 9.42092Z" fill="black"/>
<path d="M25.4371 10.8366C25.2355 11.19 24.6037 11.281 24.1452 11.3728C24.1252 11.3772 24.1152 11.3691 24.1152 11.3485L24.1171 10.5506C24.1171 10.535 24.1246 10.5253 24.1396 10.5216C24.4246 10.4466 25.1962 10.1644 25.4259 10.4269C25.5252 10.54 25.529 10.6766 25.4371 10.8366Z" fill="black"/>
<path d="M30.6533 14.4544L30.6552 18.465C30.6552 18.473 30.652 18.4806 30.6464 18.4862C30.6408 18.4919 30.6332 18.495 30.6252 18.495L28.889 18.5034C28.8602 18.5034 28.8458 18.4888 28.8458 18.4594L28.8477 14.4535C28.8477 14.4468 28.8464 14.4403 28.8437 14.4342C28.8411 14.4282 28.8373 14.4227 28.8324 14.4182C28.8276 14.4138 28.8218 14.4103 28.8156 14.4081C28.8094 14.406 28.8027 14.4051 28.7961 14.4056L27.3055 14.4956C27.3009 14.4959 27.2963 14.4952 27.292 14.4936C27.2877 14.492 27.2838 14.4896 27.2804 14.4864C27.2771 14.4833 27.2744 14.4795 27.2726 14.4753C27.2708 14.471 27.2699 14.4665 27.2699 14.4619L27.2708 12.9347C27.2708 12.8966 27.2899 12.8759 27.328 12.8728C28.9443 12.7491 30.5602 12.7484 32.1758 12.8709C32.2115 12.8741 32.229 12.8931 32.2283 12.9281L32.2274 14.4403C32.2274 14.4741 32.2105 14.49 32.1768 14.4881L30.7096 14.401C30.6721 14.3991 30.6533 14.4169 30.6533 14.4544Z" fill="#F2BBD2"/>
<path d="M25.1007 15.5672L25.1017 13.1607C25.1016 13.1533 25.1043 13.1462 25.1091 13.1407C25.1139 13.1351 25.1206 13.1316 25.1279 13.1307L26.8492 12.9047C26.8534 12.9042 26.8576 12.9045 26.8616 12.9058C26.8656 12.907 26.8693 12.909 26.8725 12.9117C26.8757 12.9145 26.8783 12.9179 26.8801 12.9217C26.8819 12.9255 26.8828 12.9296 26.8829 12.9338V18.6075C26.883 18.6149 26.8804 18.622 26.8755 18.6275C26.8707 18.6331 26.864 18.6366 26.8567 18.6375L25.3042 18.8372C25.2993 18.8378 25.2943 18.8371 25.2898 18.8353C25.2852 18.8335 25.2811 18.8306 25.2779 18.8269L23.3786 16.635C23.3745 16.6305 23.3692 16.6272 23.3633 16.6258C23.3574 16.6243 23.3512 16.6246 23.3455 16.6268C23.3398 16.6289 23.3349 16.6327 23.3314 16.6377C23.328 16.6427 23.3261 16.6486 23.3261 16.6547V19.1963C23.3261 19.2029 23.3239 19.2094 23.3198 19.2147C23.3157 19.2199 23.31 19.2237 23.3036 19.2253L21.6236 19.665C21.6191 19.6662 21.6145 19.6663 21.61 19.6654C21.6055 19.6644 21.6013 19.6625 21.5977 19.6597C21.5941 19.6569 21.5911 19.6533 21.5891 19.6492C21.5871 19.6451 21.5861 19.6405 21.5861 19.636V13.9697C21.5861 13.9631 21.5883 13.9566 21.5923 13.9513C21.5964 13.9461 21.6021 13.9423 21.6086 13.9407L23.2136 13.5103C23.2189 13.509 23.2246 13.5091 23.2299 13.5108C23.2352 13.5124 23.2399 13.5155 23.2436 13.5197L25.0482 15.5869C25.0523 15.5915 25.0576 15.5947 25.0635 15.5962C25.0694 15.5976 25.0756 15.5973 25.0813 15.5952C25.087 15.593 25.0919 15.5892 25.0954 15.5842C25.0988 15.5792 25.1007 15.5733 25.1007 15.5672Z" fill="#F2BBD2"/>
<path d="M34.41 16.8543L34.4175 18.8315C34.4175 18.8359 34.4166 18.8403 34.4149 18.8443C34.4131 18.8483 34.4104 18.8519 34.4072 18.8548C34.4039 18.8577 34.4 18.8599 34.3958 18.8613C34.3916 18.8626 34.3872 18.863 34.3828 18.8624L32.6466 18.6337C32.639 18.6328 32.6321 18.6291 32.6271 18.6234C32.6221 18.6177 32.6193 18.6103 32.6194 18.6028L32.6222 12.9337C32.6222 12.9293 32.6231 12.9249 32.6249 12.9209C32.6266 12.9169 32.6293 12.9133 32.6325 12.9104C32.6358 12.9074 32.6397 12.9053 32.6439 12.9039C32.6481 12.9026 32.6525 12.9022 32.6569 12.9028L34.3884 13.1324C34.396 13.1334 34.4029 13.137 34.4079 13.1427C34.413 13.1484 34.4157 13.1558 34.4156 13.1634L34.4109 15.1312C34.411 15.1383 34.4136 15.1453 34.4182 15.1507C34.4229 15.1562 34.4292 15.1599 34.4363 15.1612L35.9841 15.4574C35.9885 15.4583 35.9931 15.4581 35.9974 15.457C36.0018 15.4559 36.0058 15.4538 36.0093 15.4509C36.0128 15.4481 36.0156 15.4445 36.0176 15.4404C36.0195 15.4364 36.0206 15.4319 36.0206 15.4274V13.4878C36.0206 13.4831 36.0217 13.4784 36.0238 13.4742C36.0258 13.47 36.0288 13.4663 36.0325 13.4634C36.0362 13.4605 36.0406 13.4585 36.0452 13.4575C36.0498 13.4565 36.0545 13.4566 36.0591 13.4578L37.7569 13.8956C37.7636 13.8972 37.7695 13.9011 37.7738 13.9065C37.778 13.912 37.7803 13.9187 37.7803 13.9256L37.7813 19.5918C37.7813 19.5965 37.7802 19.6012 37.7781 19.6054C37.7761 19.6096 37.7731 19.6133 37.7694 19.6162C37.7657 19.6191 37.7613 19.6211 37.7567 19.6221C37.7521 19.623 37.7474 19.623 37.7428 19.6218L36.0431 19.184C36.0364 19.1823 36.0305 19.1785 36.0263 19.173C36.022 19.1676 36.0197 19.1609 36.0197 19.154L36.0206 17.1562C36.0205 17.149 36.018 17.1421 36.0133 17.1367C36.0087 17.1312 36.0024 17.1275 35.9953 17.1262L34.4466 16.8243C34.4421 16.8235 34.4376 16.8237 34.4332 16.8248C34.4289 16.8259 34.4248 16.828 34.4213 16.8308C34.4178 16.8337 34.415 16.8373 34.4131 16.8413C34.4111 16.8454 34.4101 16.8498 34.41 16.8543Z" fill="#F2BBD2"/>
<path d="M40.1071 16.2544C40.0796 16.2419 40.0662 16.2509 40.0668 16.2816L40.0762 16.7944C40.0762 16.8075 40.0824 16.8169 40.0949 16.8225L42.4771 17.8622C42.514 17.8784 42.5324 17.9066 42.5324 17.9466L42.5334 19.2572C42.5333 19.2603 42.5325 19.2633 42.531 19.266C42.5295 19.2687 42.5274 19.271 42.5248 19.2726C42.5222 19.2743 42.5192 19.2753 42.5161 19.2756C42.513 19.2758 42.5099 19.2753 42.5071 19.2741L40.1005 18.2175C40.0968 18.2159 40.0927 18.2153 40.0887 18.2156C40.0847 18.2159 40.0808 18.2172 40.0775 18.2194C40.0741 18.2215 40.0714 18.2244 40.0695 18.2279C40.0677 18.2313 40.0667 18.2352 40.0668 18.2391L40.0687 18.8016C40.0693 18.8197 40.0781 18.8322 40.0949 18.8391C40.9706 19.1772 41.829 19.5547 42.6702 19.9716C42.691 19.9817 42.7086 19.9975 42.7209 20.0171C42.7331 20.0366 42.7396 20.0592 42.7396 20.0822L42.749 21.5166C42.7491 21.5253 42.7469 21.534 42.7427 21.5417C42.7385 21.5494 42.7324 21.5559 42.725 21.5606C42.7176 21.5653 42.7091 21.568 42.7003 21.5685C42.6916 21.569 42.6828 21.5673 42.6749 21.5634C41.2906 20.8903 39.8668 20.3131 38.4037 19.8319C38.3762 19.8225 38.3624 19.8037 38.3624 19.7756L38.3634 14.1112C38.3634 14.1082 38.3641 14.1052 38.3655 14.1025C38.3669 14.0997 38.3689 14.0974 38.3713 14.0955C38.3738 14.0937 38.3766 14.0925 38.3796 14.092C38.3827 14.0914 38.3857 14.0916 38.3887 14.0925C39.8449 14.575 41.2643 15.1481 42.6468 15.8119C42.6673 15.8217 42.6846 15.8372 42.6967 15.8564C42.7088 15.8756 42.7152 15.8979 42.7152 15.9206L42.7143 17.3625C42.7144 17.3667 42.7133 17.3709 42.7113 17.3747C42.7094 17.3784 42.7065 17.3816 42.7029 17.384C42.6994 17.3863 42.6953 17.3877 42.691 17.388C42.6868 17.3884 42.6826 17.3877 42.6787 17.3859L40.1071 16.2544Z" fill="#F2BBD2"/>
<path d="M17.4627 20.4966L17.2246 21.3497C17.2233 21.3541 17.2212 21.3582 17.2183 21.3618C17.2154 21.3653 17.2118 21.3682 17.2077 21.3703L15.4977 22.2666C15.4919 22.2696 15.4853 22.2708 15.4787 22.2701C15.4722 22.2694 15.466 22.2668 15.4609 22.2626C15.4558 22.2584 15.4521 22.2528 15.4501 22.2466C15.4482 22.2403 15.4481 22.2336 15.4499 22.2272L17.5143 15.4585C17.5157 15.4537 17.518 15.4493 17.5213 15.4456C17.5245 15.4419 17.5285 15.4389 17.533 15.4369L19.1765 14.7328C19.1847 14.7294 19.1939 14.7293 19.2022 14.7327C19.2104 14.736 19.217 14.7425 19.2205 14.7507L21.3693 19.7063C21.3713 19.7106 21.3723 19.7152 21.3724 19.7199C21.3724 19.7246 21.3715 19.7293 21.3696 19.7336C21.3678 19.7379 21.365 19.7418 21.3616 19.745C21.3581 19.7482 21.3541 19.7507 21.3496 19.7522L19.5262 20.3728C19.5181 20.3757 19.5092 20.3753 19.5014 20.3718C19.4935 20.3683 19.4873 20.362 19.484 20.3541L19.2374 19.7532C19.2357 19.749 19.2331 19.7452 19.2299 19.7421C19.2267 19.7389 19.2229 19.7364 19.2187 19.7347C19.2145 19.7331 19.21 19.7323 19.2055 19.7324C19.201 19.7325 19.1965 19.7335 19.1924 19.7353L17.4824 20.4741C17.4776 20.4761 17.4734 20.4791 17.47 20.4831C17.4665 20.487 17.4641 20.4916 17.4627 20.4966ZM18.3777 17.4413C18.3754 17.4359 18.3714 17.4313 18.3664 17.4282C18.3614 17.425 18.3555 17.4235 18.3496 17.4238C18.3437 17.4241 18.338 17.4262 18.3333 17.4299C18.3286 17.4335 18.3251 17.4385 18.3234 17.4441L17.9146 18.8569C17.9131 18.8622 17.9131 18.8678 17.9147 18.8731C17.9162 18.8783 17.9192 18.8831 17.9234 18.8867C17.9275 18.8903 17.9325 18.8927 17.938 18.8936C17.9434 18.8944 17.9489 18.8938 17.954 18.8916L18.778 18.5335C18.7849 18.5304 18.7903 18.5248 18.7931 18.5178C18.7959 18.5108 18.7959 18.5029 18.793 18.496L18.3777 17.4413Z" fill="#F2BBD2"/>
<path d="M44.8144 21.1885L44.8237 22.6772C44.8237 22.6827 44.8223 22.6881 44.8196 22.6929C44.8169 22.6977 44.813 22.7017 44.8083 22.7045C44.8035 22.7074 44.7982 22.7089 44.7927 22.7091C44.7872 22.7092 44.7817 22.7079 44.7769 22.7053L43.2122 21.8222C43.202 21.8165 43.1935 21.8082 43.1875 21.7982C43.1816 21.7881 43.1785 21.7767 43.1784 21.765L43.1775 16.1372C43.1774 16.131 43.1789 16.1249 43.1819 16.1194C43.185 16.114 43.1893 16.1095 43.1946 16.1062C43.1999 16.103 43.206 16.1012 43.2122 16.1011C43.2184 16.1009 43.2245 16.1024 43.23 16.1053C43.6181 16.311 43.9994 16.5241 44.3737 16.7447C45.4425 17.3747 46.2591 17.8566 46.9153 18.7556C47.3622 19.3681 47.6122 20.0535 47.6653 20.8116C47.7056 21.3806 47.5837 22.1419 46.8178 22.0753C46.8122 22.0747 46.8065 22.0756 46.8013 22.0779C46.7961 22.0802 46.7916 22.0838 46.7882 22.0883C46.7848 22.0928 46.7826 22.0981 46.7819 22.1038C46.7812 22.1094 46.7819 22.1151 46.7841 22.1203L47.7862 24.6788C47.8206 24.7675 47.7994 24.7838 47.7225 24.7275L46.0969 23.5491C46.0589 23.5215 46.0296 23.4838 46.0125 23.4403C45.7406 22.7578 45.4616 22.0675 45.1753 21.3694C45.1291 21.2575 45.0225 21.1856 44.8556 21.1538C44.8275 21.1481 44.8137 21.1597 44.8144 21.1885ZM45.6994 20.2669C45.7411 20.2923 45.789 20.3059 45.8379 20.3062C45.8867 20.3065 45.9348 20.2934 45.9768 20.2684C46.0188 20.2435 46.0532 20.2075 46.0764 20.1645C46.0995 20.1214 46.1105 20.0729 46.1081 20.0241L46.1016 19.8985C46.0866 19.5891 45.9497 19.35 45.6909 19.1813L44.8706 18.645C44.8652 18.6416 44.859 18.6397 44.8526 18.6395C44.8462 18.6393 44.84 18.6407 44.8344 18.6437C44.8288 18.6466 44.8242 18.651 44.821 18.6564C44.8178 18.6617 44.8162 18.6678 44.8162 18.6741L44.8191 19.6791C44.8191 19.6954 44.8233 19.7115 44.8314 19.7257C44.8394 19.74 44.851 19.752 44.865 19.7606L45.6994 20.2669Z" fill="#F2BBD2"/>
<path d="M13.2413 22.1747L13.2441 23.6231C13.2441 23.6382 13.2405 23.6531 13.2335 23.6666C13.2264 23.6802 13.2163 23.6919 13.2038 23.7009L11.7253 24.7866C11.7212 24.7894 11.7163 24.7911 11.7112 24.7915C11.7062 24.7918 11.7011 24.7908 11.6966 24.7885C11.6921 24.7861 11.6883 24.7827 11.6856 24.7784C11.6829 24.7741 11.6814 24.7691 11.6813 24.7641L11.6822 19.1606C11.6822 19.1388 11.6872 19.1173 11.6968 19.0978C11.7064 19.0782 11.7203 19.0613 11.7375 19.0481C12.2531 18.6513 12.785 18.265 13.3331 17.8894C13.9678 17.4553 14.4366 17.1234 15.0919 17.1488C15.7735 17.175 15.9619 17.7159 15.9516 18.3047C15.9169 20.1403 14.6616 21.1734 13.2769 22.1072C13.2531 22.1234 13.2413 22.1459 13.2413 22.1747ZM14.1985 19.0444C13.921 18.9722 13.47 19.3191 13.2825 19.4625C13.2556 19.4831 13.2422 19.5106 13.2422 19.545V20.6953C13.2421 20.7012 13.2437 20.7071 13.2467 20.7121C13.2498 20.7172 13.2542 20.7214 13.2594 20.7241C13.2647 20.7268 13.2706 20.728 13.2765 20.7276C13.2824 20.7271 13.288 20.7251 13.2928 20.7216C13.4953 20.5791 13.6978 20.4313 13.9003 20.2781C14.1844 20.0644 14.4656 19.4841 14.2678 19.1006C14.2607 19.087 14.2509 19.075 14.239 19.0653C14.227 19.0557 14.2133 19.0485 14.1985 19.0444Z" fill="#F2BBD2"/>
<path d="M18.3777 17.4413L18.793 18.496C18.7959 18.503 18.7959 18.5108 18.7931 18.5178C18.7903 18.5248 18.7849 18.5304 18.778 18.5335L17.9539 18.8916C17.9489 18.8938 17.9433 18.8945 17.9379 18.8936C17.9325 18.8927 17.9274 18.8904 17.9233 18.8867C17.9192 18.8831 17.9162 18.8784 17.9146 18.8731C17.9131 18.8678 17.9131 18.8622 17.9146 18.857L18.3233 17.4441C18.3251 17.4385 18.3286 17.4335 18.3332 17.4299C18.3379 17.4263 18.3436 17.4242 18.3495 17.4239C18.3554 17.4236 18.3613 17.4251 18.3663 17.4282C18.3714 17.4313 18.3753 17.4359 18.3777 17.4413Z" fill="black"/>
<path d="M45.6994 20.2669L44.865 19.7607C44.851 19.7521 44.8394 19.7401 44.8314 19.7258C44.8234 19.7115 44.8191 19.6954 44.8191 19.6791L44.8163 18.6741C44.8162 18.6679 44.8179 18.6618 44.8211 18.6564C44.8243 18.6511 44.8289 18.6467 44.8344 18.6437C44.84 18.6408 44.8463 18.6393 44.8527 18.6396C44.859 18.6398 44.8653 18.6417 44.8707 18.6451L45.691 19.1813C45.9497 19.3501 46.0866 19.5891 46.1016 19.8985L46.1082 20.0241C46.1105 20.073 46.0996 20.1215 46.0764 20.1645C46.0533 20.2076 46.0189 20.2435 45.9768 20.2685C45.9348 20.2935 45.8868 20.3065 45.8379 20.3062C45.789 20.306 45.7411 20.2924 45.6994 20.2669Z" fill="black"/>
<path d="M13.2825 19.4625C13.47 19.3191 13.9209 18.9722 14.1984 19.0444C14.2132 19.0485 14.227 19.0556 14.239 19.0653C14.2509 19.075 14.2607 19.087 14.2678 19.1006C14.4656 19.4841 14.1844 20.0644 13.9003 20.2781C13.6978 20.4313 13.4953 20.5791 13.2928 20.7216C13.288 20.725 13.2824 20.7271 13.2765 20.7276C13.2706 20.728 13.2646 20.7268 13.2594 20.7241C13.2541 20.7214 13.2497 20.7172 13.2467 20.7121C13.2437 20.7071 13.2421 20.7012 13.2422 20.6953V19.545C13.2422 19.5106 13.2556 19.4831 13.2825 19.4625Z" fill="black"/>
<path d="M40.9912 31.424C40.258 31.5028 39.5521 31.6574 38.8527 31.8993C38.8399 31.9036 38.8259 31.9028 38.8138 31.897C38.8017 31.8912 38.7924 31.8809 38.788 31.8684C38.3662 30.7415 37.3949 29.7449 36.3796 29.1253C36.2108 29.0221 36.2237 28.9887 36.418 29.0249C38.1299 29.3437 39.6983 30.2259 41.008 31.3696C41.0127 31.3736 41.016 31.3788 41.0177 31.3846C41.0194 31.3904 41.0194 31.3966 41.0176 31.4024C41.0158 31.4082 41.0123 31.4133 41.0076 31.4172C41.0029 31.421 40.9972 31.4234 40.9912 31.424Z" fill="#F2BBD2"/>
</svg>
