<svg width="464" height="280" viewBox="0 0 464 280" fill="none" xmlns="http://www.w3.org/2000/svg">
<path d="M438.534 133.646C425.048 122.945 410.336 114.201 394.381 107.413C393.838 107.188 393.523 106.772 393.4 106.201C392.507 101.751 391.544 97.3354 390.475 92.9372C371.297 13.2684 255.775 -6.00384 188.189 -11.4236C165.561 -13.2417 142.951 -15.1465 120.34 -17.1551C84.8042 -20.3238 50.1091 -27.2673 16.2371 -37.9857C15.9919 -38.0549 15.7467 -37.8645 15.7643 -37.6047C22.0342 21.6145 62.1237 52.8863 120.34 56.488C120.813 56.5226 121.146 56.6785 121.373 56.9382C121.776 57.4057 121.671 57.6828 121.058 57.7693C75.2591 64.609 31.9296 52.6786 8.32083 10.4286C5.44853 5.2859 3.06664 0.0565987 1.17513 -5.29391C0.964966 -5.91727 0.299423 -6.26357 -0.348602 -6.10773C-59.896 8.14296 -116.028 33.1812 -161.967 73.4918C-170.689 81.1626 -178.798 88.2966 -186.312 94.9285C-188.781 97.1102 -189.342 96.712 -187.993 93.7164C-186.364 90.1667 -184.56 86.7036 -182.651 83.3098C-185.296 84.5392 -188.011 85.6993 -190.83 86.7209C-202.635 90.9979 -214.316 93.6645 -225 98.6513C-165.645 271.028 -40.2629 412.392 129.517 491.662C130.498 492.113 131.619 492.113 132.582 491.662C179.73 469.724 223.76 442.833 264.69 410.972C265.198 410.574 265.408 410.054 265.338 409.414C262.851 388.185 258.455 367.354 252.15 346.922C251.975 346.316 251.222 346.108 250.731 346.523C214.46 377.691 175.071 404.34 132.547 426.487C131.637 426.954 130.551 426.954 129.657 426.487C116.802 419.751 102.336 412.98 92.5279 403.197C56.3791 367.181 54.8203 310.438 87.2211 271.495C87.6415 270.993 87.5714 270.577 87.0285 270.231C47.6396 245.383 26.8506 201.852 35.9929 156.035C36.1154 155.377 35.485 154.823 34.8369 155.013C-4.55193 166.961 -37.1979 201.402 -61.2796 233.003C-62.8559 235.063 -63.1361 234.907 -62.1203 232.535C-40.1578 180.796 -1.57457 127.378 60.705 123.534C61.3531 123.499 61.6508 123.794 61.5632 124.434C60.705 131.066 60.0395 137.733 59.5841 144.399C56.8344 184.485 68.8315 217.834 95.5753 244.414C118.291 267.01 150.166 281.884 181.639 288.603C186.525 289.642 194.687 291.218 206.123 293.33C241.256 299.841 273.832 319.373 280.943 356.705C281.083 357.45 281.538 357.761 282.292 357.623C315.2 351.389 342.907 333.796 346.935 298.3C346.988 297.832 347.251 297.399 347.636 297.139C355.955 291.633 363.153 284.949 369.248 277.071C370.247 275.772 369.949 275.287 368.32 275.651C328.756 284.205 292.029 270.456 291.784 225.055C291.767 224.051 290.821 223.323 289.84 223.566L270.908 228.379C270.557 228.466 270.312 228.068 270.557 227.808C304.552 191.999 349.878 194.458 389.722 218.336C390.213 218.631 390.44 219.046 390.423 219.618C389.985 231.912 383.75 243.409 376.797 254.387C376.131 255.444 376.376 255.738 377.532 255.236C391.859 249.106 405.239 240.743 417.657 230.163C420.617 227.652 425.748 225.47 428.918 222.596C442.772 210.025 441.196 191.307 434.488 175.463C433.174 172.364 433.752 172 436.187 174.338C441.458 179.394 454.419 186.58 460.426 179.359C473.001 164.295 449.182 142.113 438.516 133.646H438.534ZM340.998 92.3139C327.302 93.7684 314.114 96.6254 301.049 101.093C300.559 101.249 300.016 101.006 299.841 100.521C291.959 79.7081 273.815 61.3017 254.847 49.8561C251.695 47.9514 251.94 47.328 255.565 48.0034C287.546 53.8906 316.847 70.1846 341.314 91.3095C341.699 91.6385 341.506 92.2619 340.998 92.3139Z" fill="white"/>
</svg>
