<svg width="48" height="12" viewBox="0 0 48 12" fill="none" xmlns="http://www.w3.org/2000/svg">
<g clip-path="url(#clip0_231_543)">
<path d="M3.54731 0.346348H2.84906V0H4.62688V0.346348H3.92863V1.83361H3.54731V0.346348Z" fill="white"/>
<path d="M4.89917 0H5.28088V0.396282H6.45549V0H6.83992V1.83361H6.45549V0.733842H5.28243V1.83361H4.90072L4.89917 0Z" fill="white"/>
<path d="M7.16113 0H8.77215V0.346348H7.5444V0.623186H8.63057V0.947962H7.5444V1.48926H8.79543V1.83361H7.16113V0Z" fill="white"/>
<path d="M1.50273 10.169L5.45134 3.429C5.48584 3.36334 5.53693 3.30851 5.59921 3.2703C5.66148 3.23208 5.73263 3.21191 5.80512 3.21191C5.87761 3.21191 5.94875 3.23208 6.01103 3.2703C6.0733 3.30851 6.12439 3.36334 6.1589 3.429L10.1075 10.1682C10.1731 10.2801 10.1967 10.4129 10.1739 10.5416C10.151 10.6702 10.0833 10.7857 9.98337 10.8665L9.87087 10.9496C9.73099 11.0525 9.57129 11.1234 9.40256 11.1573C9.23382 11.1913 9.05997 11.1877 8.89273 11.1466C8.72549 11.1055 8.56875 11.028 8.43308 10.9192C8.2974 10.8105 8.18595 10.673 8.10624 10.5161L5.80124 6.49219C5.80095 6.49161 5.8005 6.49111 5.79995 6.49077C5.79941 6.49043 5.79878 6.49025 5.79814 6.49025C5.79749 6.49025 5.79687 6.49043 5.79632 6.49077C5.79577 6.49111 5.79533 6.49161 5.79503 6.49219L3.50167 10.5149C3.42222 10.6719 3.31102 10.8095 3.17556 10.9184C3.04011 11.0274 2.88355 11.1052 2.71643 11.1466C2.54932 11.1879 2.37553 11.192 2.20678 11.1583C2.03804 11.1247 1.87825 11.0542 1.7382 10.9516L1.62454 10.8677C1.52522 10.7864 1.45806 10.6706 1.43564 10.542C1.41322 10.4134 1.43707 10.2808 1.50273 10.169Z" fill="white"/>
<path d="M42.4512 3.309L48.2168 6.89192C48.273 6.92323 48.32 6.96961 48.3527 7.02614C48.3855 7.08268 48.4027 7.14728 48.4027 7.2131C48.4027 7.27893 48.3855 7.34352 48.3527 7.40006C48.32 7.4566 48.273 7.50298 48.2168 7.53429L42.4516 11.1164C42.3558 11.1759 42.2421 11.1973 42.132 11.1766C42.0219 11.1558 41.923 11.0944 41.8538 11.0038L41.7832 10.9019C41.6952 10.775 41.6347 10.6301 41.6056 10.477C41.5766 10.324 41.5797 10.1663 41.6148 10.0146C41.6499 9.86286 41.7162 9.72065 41.8091 9.59753C41.9021 9.47441 42.0196 9.37322 42.1537 9.30078L45.5961 7.20951C45.5965 7.20917 45.5968 7.20875 45.597 7.20826C45.5972 7.20778 45.5973 7.20725 45.5973 7.20671C45.5973 7.20618 45.5972 7.20565 45.597 7.20516C45.5968 7.20468 45.5965 7.20425 45.5961 7.20392L42.1541 5.12303C42.02 5.05099 41.9025 4.95017 41.8095 4.82738C41.7165 4.70459 41.6501 4.56268 41.6149 4.41123C41.5797 4.25978 41.5764 4.10231 41.6053 3.94945C41.6342 3.79659 41.6946 3.65189 41.7825 3.52512L41.8542 3.42245C41.9234 3.3322 42.0222 3.27093 42.132 3.25006C42.2418 3.22919 42.3553 3.25014 42.4512 3.309Z" fill="white"/>
<path d="M11.3273 3.42871H12.706V10.9581H11.3273V3.42871Z" fill="white"/>
<path d="M40.0558 3.94591L40.183 3.97387C40.2365 3.98555 40.2872 4.00797 40.3323 4.03986C40.3774 4.07174 40.4159 4.11247 40.4457 4.15971C40.4754 4.20694 40.4958 4.25975 40.5058 4.31513C40.5157 4.3705 40.5149 4.42734 40.5035 4.48241L39.3296 10.1674C39.2833 10.3898 39.1531 10.5842 38.9678 10.7079C38.7824 10.8317 38.5569 10.8746 38.3408 10.8273L38.2136 10.7998C38.1601 10.7881 38.1093 10.7657 38.0643 10.7338C38.0192 10.7019 37.9806 10.6612 37.9509 10.6139C37.9211 10.5667 37.9006 10.5139 37.8906 10.4585C37.8807 10.4032 37.8814 10.3463 37.8928 10.2912L39.0662 4.60585C39.0891 4.49553 39.1328 4.39094 39.195 4.29805C39.2571 4.20517 39.3364 4.1258 39.4283 4.06451C39.5203 4.00322 39.6231 3.96119 39.7308 3.94084C39.8385 3.92049 39.9491 3.92221 40.0562 3.94591H40.0558Z" fill="white"/>
<path d="M14.4268 6.79155H13.4861V5.72654H14.4268C14.4213 5.3782 14.475 5.03156 14.5854 4.70228C14.6802 4.41763 14.8365 4.15892 15.0427 3.94575C15.2489 3.73257 15.4995 3.57053 15.7756 3.47189C16.087 3.35914 16.4153 3.30397 16.7454 3.3089C16.994 3.30849 17.242 3.33338 17.4859 3.3832C17.7081 3.42596 17.9241 3.49765 18.1287 3.59652L17.6399 4.79096C17.5405 4.73592 17.4348 4.69391 17.3253 4.66593C17.1803 4.62625 17.0308 4.6069 16.8807 4.6084C16.6002 4.5949 16.3255 4.69383 16.1142 4.88444C16.0099 4.99584 15.9286 5.12788 15.8753 5.27255C15.822 5.41722 15.7977 5.57153 15.8039 5.72614H17.5421V6.79155H15.8058V10.9581H14.4268V6.79155Z" fill="white"/>
<path d="M18.3191 5.72717H19.6977V6.54251C20 6.31036 20.3229 6.10812 20.6621 5.9385C20.9856 5.77469 21.3241 5.64448 21.6726 5.5498L22.078 6.84931C21.5952 6.89123 21.1225 7.01529 20.6792 7.21643C20.2917 7.39479 19.9544 7.67114 19.6985 8.01978V10.9587H18.3191V5.72717Z" fill="white"/>
<path d="M22.3013 8.09786C22.301 7.78704 22.3798 7.48156 22.5298 7.21182C22.6837 6.85885 22.9074 6.54281 23.1865 6.28383C23.4934 6.00198 23.8502 5.78373 24.2374 5.64107C25.1557 5.32013 26.1513 5.32084 27.0692 5.64306C27.4653 5.78936 27.8294 6.01517 28.1402 6.3074C28.4278 6.56523 28.6581 6.88376 28.8156 7.24138C28.9747 7.5731 29.0553 7.93884 29.051 8.30878C29.051 8.36351 29.051 8.42143 29.0483 8.48335C29.0475 8.54024 29.0437 8.59705 29.0371 8.65353H23.839C23.9008 8.82814 23.9986 8.98691 24.1257 9.11893C24.2696 9.26885 24.4374 9.39222 24.6218 9.48365C24.8407 9.59307 25.0724 9.67283 25.3111 9.72094C25.5965 9.77928 25.8869 9.80738 26.1778 9.80483C26.4956 9.80485 26.8126 9.77031 27.1235 9.70176C27.4285 9.63546 27.7288 9.5479 28.0223 9.4397L28.4878 10.5235C28.3093 10.6092 28.1266 10.6852 27.9404 10.7512C27.7512 10.8181 27.558 10.8726 27.3621 10.9142C27.1543 10.9586 26.9444 10.9914 26.7332 11.0125C26.5142 11.0346 26.2836 11.0457 26.0416 11.046C25.4915 11.056 24.9433 10.9783 24.4162 10.8159C23.9913 10.6845 23.5945 10.4711 23.247 10.1871C22.9444 9.93685 22.7021 9.61788 22.5391 9.25515C22.3793 8.89169 22.2982 8.49681 22.3013 8.09786ZM27.5863 7.7607C27.5351 7.60229 27.4571 7.45447 27.3558 7.32407C27.2473 7.1835 27.1161 7.06322 26.9679 6.96853C26.8001 6.86257 26.618 6.78275 26.4276 6.73164C26.2072 6.67162 25.9801 6.6422 25.7522 6.64416C25.5118 6.64151 25.2721 6.67214 25.0396 6.73524C24.8414 6.78891 24.6517 6.87123 24.476 6.97972C24.3234 7.07399 24.1873 7.1939 24.0733 7.33446C23.9703 7.46095 23.8906 7.60564 23.8378 7.7615L27.5863 7.7607Z" fill="white"/>
<path d="M29.8226 8.19977C29.8162 7.77854 29.9005 7.36108 30.0693 6.97737C30.2296 6.62058 30.4623 6.30332 30.7517 6.04698C31.0556 5.78155 31.4067 5.57941 31.7855 5.45176C32.204 5.30969 32.6424 5.23925 33.0831 5.24323C33.2796 5.24383 33.4759 5.25717 33.6708 5.28318C33.8592 5.30772 34.0462 5.34306 34.2309 5.38904C34.4022 5.43108 34.5706 5.48445 34.7352 5.54883C34.8791 5.60515 35.0185 5.67328 35.1518 5.75257V3.47754H36.532V11.0061H35.1514V10.4736C35.0164 10.5678 34.8736 10.6496 34.7247 10.7181C34.5525 10.7974 34.375 10.8641 34.1937 10.9178C34.0003 10.9765 33.8035 11.0222 33.6044 11.0544C33.4051 11.0878 33.2035 11.1048 33.0016 11.1052C32.5653 11.1102 32.1314 11.0387 31.7184 10.8939C31.349 10.7656 31.0079 10.5636 30.7144 10.2994C30.4358 10.0449 30.2127 9.73246 30.06 9.38263C29.8992 9.0105 29.8183 8.60705 29.8226 8.19977ZM31.2711 8.19977C31.2695 8.42136 31.3143 8.6407 31.4022 8.84293C31.4917 9.04541 31.6218 9.22608 31.7839 9.37304C31.9604 9.53109 32.1644 9.6531 32.3852 9.73257C32.6389 9.82339 32.9061 9.86774 33.1746 9.8636C33.3625 9.86373 33.5499 9.84554 33.7344 9.80927C33.9177 9.77322 34.0977 9.7211 34.2724 9.65347C34.441 9.58806 34.6032 9.50605 34.7565 9.40859C34.9001 9.31919 35.0323 9.21185 35.1503 9.08901V7.12558C35.0137 7.01255 34.866 6.91454 34.7096 6.83316C34.5567 6.75422 34.3978 6.68848 34.2344 6.63661C34.0747 6.58557 33.9112 6.54777 33.7456 6.52356C33.5867 6.50001 33.4263 6.48799 33.2658 6.48761C32.9789 6.48269 32.6932 6.52697 32.4205 6.61864C32.1913 6.69624 31.9792 6.81934 31.796 6.98097C31.6299 7.13031 31.4975 7.31517 31.408 7.52266C31.3163 7.73582 31.2696 7.96662 31.2711 8.19977Z" fill="white"/>
</g>
<defs>
<clipPath id="clip0_231_543">
<rect width="46.9736" height="11.1842" fill="white" transform="translate(0.42865)"/>
</clipPath>
</defs>
</svg>
