<svg width="49" height="54" viewBox="0 0 49 54" fill="none" xmlns="http://www.w3.org/2000/svg">
<path d="M43.3626 49.6964C43.5284 49.5651 43.6182 49.3854 43.6251 49.1712C43.632 49.0123 43.5491 48.9294 43.3902 48.9225C43.2313 48.9156 43.1415 48.8811 43.1277 48.8189C45.1037 46.6562 46.3198 44.5074 46.7689 42.3586C47.0729 40.9284 46.534 39.2908 45.159 37.4322C45.0277 37.2595 44.9517 37.0729 44.9172 36.8587C44.6408 35.1797 42.5956 33.6735 41.3243 32.6924C41.1032 32.5196 41.0203 32.2985 41.0687 32.0153C41.2068 31.2621 41.1032 30.5228 40.7577 29.7904C40.6334 29.521 40.6472 29.2653 40.8061 29.0097C41.4694 27.918 42.6993 25.9903 42.6094 24.6637C42.568 24.0764 42.6578 23.5513 42.8789 23.0814C44.9586 18.6249 43.3902 15.2255 41.2828 11.0315C41.1516 10.762 41.0203 10.762 40.8959 11.0315L40.7854 11.2664C40.5297 11.8053 40.2395 11.826 39.9148 11.3286C35.6932 4.90284 29.6889 1.56561 21.9159 1.32378C21.7708 1.31687 21.7224 1.44815 21.7708 1.7038C21.5289 1.71071 21.3562 1.75216 21.2595 1.82817C21.1766 1.89035 21.1696 2.00781 21.2318 2.16672L20.8864 2.0769C20.8656 1.94562 20.8242 1.82816 20.762 1.72452C20.6376 1.51033 20.4511 1.42742 20.2092 1.4827C19.4699 1.64161 18.7514 1.86271 18.0535 2.146C17.3833 2.41546 16.6855 2.65729 15.9669 2.87148C15.1308 3.12022 14.3432 3.52787 13.6108 4.08753C13.6384 3.61079 13.4657 3.37587 13.0995 3.38278L21.2318 0.342647C21.4391 0.266644 21.674 0.266644 21.8813 0.342647C22.9384 0.722663 24.0232 0.902306 25.1494 0.881578C25.3636 0.881578 25.5709 0.929944 25.7713 1.01977C27.0081 1.62088 28.2103 1.47578 29.5024 1.96635C31.7548 2.8162 34.6706 3.9148 36.4117 5.56614C37.1303 6.25017 37.918 6.94802 38.906 7.18984C40.9857 7.69423 43.1276 8.39899 45.3386 9.2972C45.8085 9.48376 46.1816 9.86378 46.3543 10.3405C49.4636 18.7285 49.3737 27.3031 46.0849 36.0711C45.919 36.5133 45.9674 36.9347 46.223 37.3286C47.7777 39.7538 48.4064 42.2757 46.9002 44.8667C46.4372 45.6682 46.0434 46.5595 45.7256 47.5475C45.6703 47.7134 45.7256 47.8999 45.8569 48.0174C46.0434 48.1763 46.071 48.3628 45.9467 48.577C45.8707 48.7083 45.7601 48.805 45.6288 48.8741C44.931 49.2403 44.171 49.5098 43.3626 49.6964ZM44.4681 33.328L44.7928 22.8741C44.8135 22.0796 44.6132 22.0174 44.1848 22.6807C43.6044 23.5789 43.2244 24.6153 43.0378 25.7899C42.8305 27.1096 42.264 27.6623 41.6283 28.7126C41.4556 28.9889 41.4072 29.286 41.4694 29.6108L41.9461 32.0083C41.9945 32.2502 42.112 32.4436 42.3123 32.5887L44.3092 34.095C44.4473 34.4266 44.6201 34.6615 44.8274 34.7997C45.0208 34.931 45.159 34.8896 45.235 34.6615C47.7293 27.3721 47.674 20.0067 45.0692 12.5584C44.5786 11.1489 43.328 10.6514 42.0291 10.2714C41.732 10.1816 41.6629 10.2714 41.8149 10.5409C42.2018 11.218 42.8167 11.522 43.48 11.8675C43.7633 12.0126 43.9844 12.2613 44.0881 12.5653C46.5409 19.4125 46.6652 26.3357 44.4681 33.328Z" fill="#110D04"/>
<path d="M43.1275 48.8186C42.6922 48.8877 42.2984 49.0328 41.9391 49.2608C41.5107 49.2953 41.2758 49.1502 41.2274 48.8186C42.6507 48.3004 43.6595 47.4436 44.2468 46.2483C44.7236 45.2879 45.2141 44.1202 45.7254 42.7452C46.4647 40.7277 45.3454 38.7516 44.0119 37.2937C43.8322 37.0934 43.7079 36.8723 43.6388 36.6166C43.0929 34.5093 41.5107 34.2052 40.3154 32.6783C40.1565 32.471 40.1012 32.2084 40.1634 31.9528C40.3292 31.3517 40.2601 30.7713 39.963 30.2116C39.659 29.6451 39.7281 28.9541 40.1357 28.4566C41.7042 26.5289 41.8769 24.1521 42.5747 21.8444C43.4246 19.0322 42.9893 15.9437 41.2689 12.5927C41.1652 12.3854 40.8681 12.3992 40.7783 12.6134L40.647 12.9382C40.4881 13.3182 40.3154 13.3251 40.1219 12.9658C36.8469 6.94774 31.347 3.54832 24.486 2.29772C24.2442 2.24936 24.1336 2.353 24.1682 2.59483C24.1889 2.71229 24.2442 2.81593 24.3409 2.89193C24.4653 2.99557 24.5205 3.1683 24.4722 3.32722C24.1889 4.30835 23.6223 5.11675 22.7725 5.75932C21.508 6.71282 20.3058 7.73541 19.1727 8.834C18.3228 9.6493 17.397 10.1675 16.3813 10.3886C11.6138 11.425 7.19181 10.3817 4.7597 5.78005C4.78043 5.40694 4.87025 5.08911 5.02917 4.81965C7.1849 9.7944 11.0818 10.285 15.9322 9.68385C16.6162 9.60094 17.2657 9.31765 17.7977 8.87545L23.0488 4.50182C23.6499 3.99743 23.6223 3.05776 22.9866 2.59483L21.7706 1.70352C21.7222 1.44787 21.7706 1.31659 21.9157 1.3235C29.6887 1.56533 35.693 4.90256 39.9146 11.3283C40.2394 11.8258 40.5296 11.805 40.7852 11.2661L40.8958 11.0312C41.0201 10.7617 41.1514 10.7617 41.2827 11.0312C43.39 15.2252 44.9585 18.6246 42.8788 23.0811C42.6576 23.551 42.5678 24.0761 42.6093 24.6634C42.6991 25.99 41.4692 27.9177 40.8059 29.0094C40.647 29.265 40.6332 29.5207 40.7576 29.7901C41.103 30.5225 41.2067 31.2618 41.0685 32.015C41.0201 32.2983 41.103 32.5194 41.3241 32.6921C42.5955 33.6732 44.6406 35.1795 44.917 36.8584C44.9516 37.0726 45.0276 37.2592 45.1588 37.4319C46.5338 39.2905 47.0727 40.9281 46.7687 42.3583C46.3196 44.5071 45.1036 46.6559 43.1275 48.8186Z" fill="#C3B280"/>
<path d="M41.2274 48.8186C40.0666 49.171 38.8713 49.3022 37.6345 49.2193C37.3996 49.2055 37.1785 49.2539 36.9712 49.3713C36.8192 49.4612 36.6603 49.5372 36.5014 49.6132C36.2665 49.7168 36.0246 49.7375 35.769 49.6615C32.335 48.6458 30.4971 46.8218 28.6109 44.0649C28.4658 43.8576 28.2585 43.6987 28.0167 43.6158C25.9853 42.9594 24.5205 43.2013 23.4081 40.9488C20.9138 35.898 19.988 30.7022 20.6443 25.3612C20.6789 25.0918 20.5614 24.9121 20.3058 24.8292C17.2864 23.8274 15.0132 21.9204 13.4724 19.1221C13.3342 18.8802 13.1339 18.7213 12.8644 18.6522C11.061 18.1824 9.10568 18.445 7.44052 17.602C2.03047 14.8935 2.2723 9.99478 3.66109 5.01312C3.72327 4.78511 3.86837 4.72292 4.08256 4.84038C4.37966 4.9993 4.60767 5.31713 4.75968 5.78006C7.19178 10.3817 11.6138 11.425 16.3813 10.3886C17.3969 10.1675 18.3228 9.64931 19.1726 8.834C20.3058 7.73541 21.508 6.71282 22.7724 5.75933C23.6223 5.11676 24.1889 4.30836 24.4721 3.32723C24.5205 3.16831 24.4652 2.99558 24.3409 2.89194C24.2441 2.81593 24.1889 2.71229 24.1681 2.59483C24.1336 2.35301 24.2441 2.24937 24.486 2.29773C31.347 3.54833 36.8468 6.94774 40.1219 12.9658C40.3154 13.3251 40.4881 13.3182 40.647 12.9382L40.7783 12.6134C40.8681 12.3992 41.1652 12.3854 41.2689 12.5927C42.9893 15.9438 43.4246 19.0322 42.5747 21.8444C41.8769 24.1521 41.7041 26.5289 40.1357 28.4566C39.7281 28.9541 39.659 29.6451 39.963 30.2116C40.2601 30.7713 40.3292 31.3517 40.1634 31.9528C40.1012 32.2084 40.1564 32.471 40.3154 32.6783C41.5107 34.2052 43.0929 34.5093 43.6388 36.6166C43.7079 36.8723 43.8322 37.0934 44.0119 37.2937C45.3454 38.7516 46.4647 40.7277 45.7254 42.7452C45.2141 44.1202 44.7235 45.2879 44.2468 46.2483C43.6595 47.4436 42.6507 48.3004 41.2274 48.8186ZM20.444 8.85473L18.8686 10.8101C16.6645 11.2108 14.3914 11.7359 12.2356 11.6254C9.00895 11.4596 6.40411 9.97405 4.41421 7.16193C4.22075 6.88556 4.10329 6.9132 4.06874 7.25176L3.93746 8.55763C3.30871 12.8484 4.87714 15.7088 8.64966 17.1529C9.81735 17.602 12.5189 17.8646 16.7613 17.9406C17.9566 17.906 18.8894 18.2515 19.5527 18.9839C19.7047 19.1566 19.8912 19.2672 20.1192 19.3294C21.9364 19.7923 23.2837 19.3639 24.175 18.0511C26.925 15.1215 24.7831 11.2523 21.1833 10.8377C21.3215 10.6304 21.5702 10.4992 21.9226 10.437C24.5896 11.0312 26.4897 13.4702 25.8817 16.1649C25.5569 17.5744 24.8798 18.6108 23.8503 19.2672C21.7982 20.5661 19.6978 20.3243 17.5351 18.5348C17.4453 18.4657 17.3624 18.4726 17.2864 18.5555L17.1413 18.7144C17.0238 18.8526 17.0307 19.0599 17.162 19.1843C19.1519 21.0843 21.356 21.4091 23.7812 20.1723C25.322 19.3846 26.317 18.0235 26.7592 16.0889C27.3603 13.4633 25.3289 11.0657 23.1386 9.96023C22.8554 9.81514 22.3371 9.81514 21.5702 9.96023H20.7618C20.4302 9.96023 20.3611 9.82895 20.5545 9.55949C20.6167 9.46967 20.7204 9.38675 20.8654 9.31075L22.2542 9.2002C22.4892 9.17947 22.6826 9.08274 22.8346 8.9031L25.9231 5.38622C26.2409 5.02693 26.7591 4.91638 27.1944 5.11676L31.0775 6.89938C34.0485 8.95837 35.9141 11.4527 36.6741 14.3753C36.7778 14.7692 37.0334 14.9764 37.4411 14.9972L39.3342 15.087C39.6659 15.1008 39.9008 14.7623 39.7695 14.4513C38.1735 10.7824 35.6239 7.99797 32.1208 6.11171C30.3935 4.91638 28.3898 4.05962 26.1028 3.54142C25.8195 3.47923 25.6191 3.58287 25.5086 3.85925C24.7623 5.69714 21.9571 7.56959 20.444 8.85473ZM27.4225 14.0229C27.4086 14.1542 27.4155 14.2855 27.4501 14.4099C27.5054 14.6241 27.6919 14.7692 27.9061 14.7761L35.5963 14.9903C35.9279 14.9972 36.1628 14.6724 36.0523 14.3615C35.389 12.4614 34.3318 10.8308 32.874 9.48348C31.2641 7.68014 29.2189 6.4779 26.7246 5.89061C26.6901 5.8837 26.6624 5.89061 26.6348 5.91134C25.3842 6.96156 24.3132 8.13616 23.4081 9.44203C23.3943 9.46276 23.4012 9.4904 23.4288 9.50421C25.2944 10.285 26.6279 11.7912 27.4225 14.0229ZM39.4931 15.7296L28.0374 15.4601C27.685 15.4532 27.4501 15.619 27.3464 15.9576L26.8835 17.4362C26.773 17.7817 27.0424 18.134 27.4086 18.1202C29.9306 18.0166 32.6598 17.982 35.5963 18.0166C38.1665 18.0442 39.7833 19.965 41.1168 21.8858C41.2827 22.1207 41.642 22.0516 41.7111 21.7753C42.326 19.2672 42.1878 16.918 41.2827 14.7208C41.0892 14.244 40.8888 14.244 40.6885 14.7139C40.5779 14.9834 40.4259 15.2183 40.2324 15.4186C40.0321 15.6328 39.7833 15.7365 39.4931 15.7296ZM27.2428 18.6661C26.4551 18.7144 26.0682 19.0944 26.082 19.8061C26.1166 22.328 27.0079 24.3456 28.7491 25.8449C28.9218 25.99 29.0392 26.1973 29.0738 26.4253C29.1083 26.6395 29.0462 26.826 28.8872 26.978C28.7352 27.1231 28.6731 27.3373 28.7145 27.5377C29.2051 29.7211 28.7629 31.7662 29.3847 33.998C30.2208 36.9828 31.4437 39.8226 33.0398 42.5241L32.3212 42.5034C31.5474 42.455 30.808 42.2823 30.1033 41.9852C29.9236 41.9092 29.9167 41.8194 30.0826 41.7157C30.1862 41.6466 30.2898 41.5499 30.3797 41.4325L31.0153 41.6052C31.3124 41.6812 31.3884 41.5845 31.2433 41.315L30.7597 40.3615C28.7283 35.9533 27.837 31.3448 28.0927 26.5358C28.1134 26.2387 28.0167 25.99 27.8094 25.7758C26.3239 24.2696 25.5569 22.4109 25.5016 20.193C25.4947 19.8683 25.3635 19.8061 25.1078 20.0065C22.9797 21.6854 20.7134 21.948 18.3021 20.7941C17.3555 20.345 16.8165 19.5366 15.9943 18.8872C15.794 18.7282 15.566 18.6453 15.3241 18.6453C15.1238 18.6453 14.9372 18.6315 14.7645 18.597C14.4121 18.5348 14.3223 18.6522 14.5019 18.9632C15.8354 21.2778 17.5489 22.7702 19.6563 23.4266C20.4785 23.9586 21.1211 24.1728 21.5909 24.0692C21.8604 24.0485 21.9709 24.1176 21.9226 24.2903C20.4785 29.9007 21.6048 35.7184 24.3409 40.7139C24.9627 41.847 25.702 42.3998 26.5588 42.3652L29.2051 43.2358C29.4193 43.3049 29.5436 43.45 29.5782 43.6711C29.6058 43.83 29.6127 43.9337 29.592 43.9889C30.656 45.5988 31.9343 46.8287 33.4267 47.6854C34.0555 48.0516 34.8708 48.2313 35.8657 48.2313C36.7432 48.2313 37.6 48.2658 38.436 48.3418C40.9441 48.3349 42.6991 47.3192 43.6871 45.2948C44.0741 44.5071 44.0948 43.6642 44.3435 42.8351C44.4057 42.6347 44.5094 42.4689 44.6614 42.3376C46.14 41.0663 43.3071 37.5563 42.2431 36.5406C41.9322 36.2435 41.7525 35.8773 41.7041 35.4489C41.6765 35.2071 41.5729 34.9998 41.3863 34.834L39.7212 33.3485C39.2168 32.8994 38.4291 32.9961 38.0422 33.5558C37.3098 34.6267 36.2457 34.9584 34.8431 34.5576C34.4631 34.4471 34.3042 34.5853 34.3802 34.9722C34.3871 35.0344 34.3802 35.0896 34.3595 35.1518C34.2144 35.4766 34.0209 35.5042 33.7791 35.2417L31.5128 32.7335C31.3263 32.5332 31.2917 32.3052 31.4092 32.0564C31.727 31.3586 32.0379 30.6331 32.3488 29.8731C32.9016 28.5257 34.4078 27.9246 35.7137 27.4341L36.757 27.3304C38.0145 27.13 38.8022 27.2268 39.12 27.6275C39.3342 27.8901 39.5346 27.8832 39.7212 27.5999L40.2877 26.7638C40.5019 26.4391 40.4466 26.1835 40.1081 25.9969C39.0924 25.4372 37.9454 25.3198 36.6603 25.6514C36.2872 25.7551 36.0108 25.7482 35.8381 25.6376C35.6446 25.5132 35.5755 25.3129 35.6377 25.0365C35.7137 24.6841 35.7413 24.3387 35.7206 24.0139C35.7068 23.7583 35.5755 23.6684 35.3268 23.7306C33.178 24.2972 31.6164 25.5063 30.656 27.358C30.0135 28.5879 30.2346 30.0113 30.428 31.4208L31.7201 36.1606C32.7219 38.6687 34.0485 40.9764 35.6861 43.07C35.8381 43.2704 35.7966 43.4155 35.5617 43.5053C35.3061 43.6089 34.9468 43.6435 34.4838 43.6089C34.1246 43.754 33.6685 43.8369 33.1227 43.8715C33.0121 43.8646 32.9154 43.8438 32.8394 43.8093C32.7427 43.7747 32.6874 43.7056 32.6805 43.602C32.6667 43.4845 32.7012 43.3602 32.791 43.222C32.9845 43.2151 33.178 43.1253 33.3645 42.9456C33.6754 43.0354 33.938 43.0562 34.1522 43.0216C34.4355 42.9732 34.4907 42.8282 34.3249 42.6001C32.4248 39.9193 31.0015 36.7064 30.048 32.9685C29.4676 30.6815 29.5367 28.1526 29.5229 25.8173C29.5229 25.5616 29.4262 25.3543 29.2327 25.1885C27.5261 23.7099 26.7799 21.7684 27.001 19.3708L27.7956 19.5021C27.9752 19.7716 27.9821 19.9927 27.8232 20.1516C27.4708 20.3243 27.4086 20.497 27.6297 20.6698C27.6436 22.6251 28.452 24.0415 30.048 24.919C30.2829 25.0503 30.3728 25.3405 30.2622 25.5823C30.1724 25.7689 30.1447 25.9624 30.1655 26.1489C30.2138 26.5151 30.3451 26.5497 30.5662 26.2525C31.9688 24.3317 33.9933 23.2332 36.6534 22.9637C36.9781 22.9291 37.0334 23.0397 36.833 23.2953C36.5567 23.6477 36.3977 24.0415 36.3632 24.4768C36.3356 24.7739 36.4599 24.8707 36.7432 24.767C37.9178 24.3248 39.0302 24.4561 40.0873 25.154C40.3983 25.3543 40.8128 25.1471 40.8336 24.7809C40.9579 22.5284 40.0321 21.2225 38.056 20.8563C36.073 21.1672 34.5115 21.0912 33.3714 20.6283C33.1987 20.5109 33.1572 20.3588 33.2402 20.1585C33.3507 19.889 33.5442 19.813 33.8275 19.9305C35.389 19.3432 36.7639 19.3017 37.9593 19.8199C38.3876 20.2621 38.7193 20.4625 38.9542 20.4141C39.2375 20.3519 39.3342 19.9927 39.1062 19.7992C38.8368 19.5712 38.588 19.5159 38.3738 19.6403C37.8625 19.0599 37.1578 18.7351 36.2526 18.6661C33.2402 18.4311 30.2346 18.4311 27.2428 18.6661ZM38.2633 29.037C38.208 28.7814 38.2149 28.5257 38.284 28.2839C38.3462 28.0559 38.2633 27.9453 38.0284 27.9523C36.3217 28.0006 34.9053 28.5396 33.7929 29.5552C33.482 29.8385 33.634 30.3636 34.0555 30.4327C35.4995 30.6746 36.9505 30.6884 38.4084 30.4811C38.8022 30.4258 39.0164 29.9905 38.8229 29.6381C38.7607 29.5207 38.664 29.4378 38.5466 29.3825C38.3876 29.3203 38.2978 29.2029 38.2633 29.037ZM34.4286 32.3328C34.3042 32.5746 34.1315 32.6921 33.9173 32.6921C33.7445 32.699 33.5856 32.6437 33.4474 32.5263C33.2194 32.3466 32.9707 32.2153 32.6943 32.1255C32.335 32.0081 32.2314 32.1255 32.3903 32.471C32.5769 32.8648 32.8187 33.2379 33.1296 33.5834C33.3853 33.8667 33.6133 33.8529 33.8275 33.535C34.0278 33.2379 34.2904 33.2241 34.6151 33.4867C36.5774 34.3849 37.3581 34.1016 36.9643 32.6368L38.816 32.1532C39.0302 32.0979 39.1822 31.9182 39.2099 31.7041L39.2306 31.4968C39.2513 31.2964 39.1615 31.1997 38.9611 31.1997L34.47 31.2273C34.1867 31.2273 33.9449 31.1306 33.7445 30.9371L33.4543 30.6538C33.254 30.4604 32.9154 30.5847 32.8809 30.8611L32.8532 31.0477C32.8325 31.1997 32.8878 31.3171 33.0191 31.4069L34.4286 32.3328Z" fill="#110D04"/>
<path d="M5.02959 4.8199C4.87068 5.08937 4.78085 5.4072 4.76013 5.78031C4.60812 5.31738 4.38011 4.99955 4.08301 4.84063C3.86882 4.72317 3.72372 4.78536 3.66153 5.01337C2.27275 9.99503 2.03092 14.8938 7.44097 17.6023C9.10613 18.4452 11.0615 18.1826 12.8648 18.6525C13.1343 18.7216 13.3347 18.8805 13.4729 19.1223C15.0136 21.9206 17.2868 23.8276 20.3062 24.8295C20.5619 24.9124 20.6793 25.092 20.6448 25.3615C19.9884 30.7024 20.9143 35.8983 23.4085 40.9491C24.521 43.2015 25.9857 42.9597 28.0171 43.6161C28.2589 43.699 28.4662 43.8579 28.6113 44.0652C30.4976 46.822 32.3355 48.6461 35.7694 49.6618C36.0251 49.7378 36.2669 49.7171 36.5018 49.6134C36.6607 49.5374 36.8197 49.4614 36.9717 49.3716C37.1789 49.2541 37.4 49.2058 37.635 49.2196C38.8717 49.3025 40.0671 49.1712 41.2278 48.8188C41.2762 49.1505 41.5111 49.2956 41.9395 49.261L41.0344 49.6894L38.4019 50.0971C38.1808 50.1316 37.9873 50.2284 37.8284 50.3873C37.6142 50.6015 37.3586 50.6775 37.0477 50.6291C33.0748 49.9865 30.2005 48.0726 28.4317 44.8874C28.3488 44.7423 28.2175 44.6387 28.0586 44.5834L24.0718 43.2982C23.9406 43.2568 23.83 43.1739 23.754 43.0564C20.3615 37.8813 18.9451 32.1949 19.5117 26.0041C19.5462 25.631 19.3873 25.3753 19.0349 25.244C16.5061 24.2836 14.3158 22.3766 13.1619 20.0551C12.927 19.5783 12.547 19.3365 12.0219 19.3296C5.58234 19.2329 0.69741 14.3341 2.29348 7.72875C2.5284 6.75453 2.69422 5.78031 2.79786 4.79227L3.30916 3.39657C3.7099 2.29798 4.0761 2.3118 4.40775 3.43112C4.51139 3.79041 4.71867 4.25334 5.02959 4.8199Z" fill="#9A8D68"/>
<path d="M32.1213 6.11166C31.686 6.16002 31.3336 6.42258 31.0779 6.89933L27.1949 5.11671C26.7596 4.91634 26.2414 5.02689 25.9235 5.38617L22.8351 8.90305C22.683 9.08269 22.4896 9.17942 22.2547 9.20015L20.8659 9.3107C20.5619 9.3867 20.4237 9.2347 20.4444 8.85468C21.9576 7.56954 24.7628 5.6971 25.509 3.8592C25.6195 3.58283 25.8199 3.47919 26.1032 3.54137C28.3902 4.05957 30.3939 4.91633 32.1213 6.11166Z" fill="#C3B280"/>
<path d="M2.39022 4.6333L2.35567 4.96495C2.32804 5.20678 2.3764 5.21369 2.49386 4.9995C2.55605 4.89586 2.65278 4.82676 2.79787 4.79222C2.69423 5.78026 2.52841 6.75448 2.29349 7.7287C0.697423 14.3341 5.58235 19.2328 12.0219 19.3296C12.547 19.3365 12.927 19.5783 13.1619 20.055C14.3158 22.3766 16.5061 24.2836 19.0349 25.244C19.3873 25.3753 19.5462 25.6309 19.5117 26.004C18.9451 32.1948 20.3615 37.8812 23.754 43.0564C23.83 43.1738 23.9406 43.2567 24.0719 43.2982L28.0586 44.5833C28.2175 44.6386 28.3488 44.7423 28.4317 44.8874C30.2005 48.0726 33.0748 49.9865 37.0477 50.629C37.3586 50.6774 37.6142 50.6014 37.8284 50.3872C37.9873 50.2283 38.1808 50.1316 38.4019 50.097L41.0344 49.6894C40.682 50.6774 40.0187 51.2923 39.0307 51.548C38.5954 51.6655 38.1463 51.6585 37.6833 51.5273C37.248 51.4098 36.868 51.5134 36.5295 51.8382C36.3636 52.004 36.1633 52.1215 35.9422 52.1837C35.3272 52.3564 34.7123 52.536 34.0905 52.7226C33.8417 52.7917 33.2544 53.0404 32.3217 53.4688C31.5133 53.8419 30.5943 54.0146 29.5579 53.9939C30.1037 52.9782 31.1678 52.232 32.75 51.7622C33.4893 51.548 33.4824 51.3753 32.7155 51.2578C31.2991 51.0298 28.9568 52.6604 27.8997 53.5172C27.7269 53.6623 27.5196 53.7314 27.2916 53.7106C27.0222 53.6899 26.7665 53.607 26.5178 53.4481C19.7673 50.2421 14.5162 45.9238 10.7506 40.4999C7.0126 35.1175 5.36125 28.7678 5.79655 21.4507L5.86564 18.991C5.87255 18.7561 5.77582 18.5764 5.57545 18.459C3.94483 17.464 2.6666 15.9854 1.73383 14.0301C1.21563 12.9246 1.00835 11.674 1.12581 10.2852C1.14653 10.0917 1.07744 9.9328 0.932341 9.80843C0.870156 9.75315 0.794155 9.7117 0.704333 9.68406C0.248314 9.55278 0.241402 9.40077 0.683603 9.22804C0.745787 9.2004 0.801064 9.17968 0.863248 9.15895C0.973798 9.11749 1.04289 9.04149 1.07744 8.92403L2.39022 4.6333ZM25.9097 50.401C25.9028 49.9588 26.1308 49.7723 26.5869 49.8345C27.0843 49.9036 27.4782 49.8483 27.7684 49.6686C28.1553 49.4199 28.176 48.8672 27.8098 48.5908C27.2294 48.1555 26.7527 47.6304 26.3727 47.0154C25.9236 46.2831 25.4883 45.7441 25.0737 45.4056C24.0442 44.5488 23.0216 43.6368 22.0198 42.6625C21.847 42.4967 21.7434 42.2825 21.7088 42.0476C21.5707 41.0872 21.163 40.1752 20.4928 39.3115C19.9746 38.6551 19.5946 37.9296 19.3458 37.1419C18.9935 36.0364 18.6687 34.9033 18.3854 33.7425C18.3785 31.9254 18.3716 30.0875 18.3647 28.2288C18.3578 26.9161 17.8189 26.0731 16.5959 25.7276L15.2555 24.2629C15.0966 24.0901 14.8962 24.0279 14.6613 24.0832C14.53 24.1108 14.4056 24.1039 14.2744 24.0556C13.9634 23.9381 13.8252 23.7101 13.8598 23.3854C13.8805 23.1919 13.8045 23.0606 13.618 22.9984C13.3969 22.9224 13.2172 22.7842 13.079 22.5908C12.6852 22.038 12.4365 21.4576 12.3397 20.8496C12.3052 20.6354 12.1808 20.4834 11.9804 20.4074C11.0891 20.055 10.2324 20.0965 9.42397 20.5318C9.2236 20.6354 9.05086 20.6078 8.90577 20.4489L8.24247 19.751C8.15264 19.6336 8.04209 19.5783 7.91772 19.5852C7.6759 19.599 7.54462 19.7234 7.52389 19.9652C6.82604 27.4895 8.15955 33.8116 11.5175 38.9315C14.9446 44.148 20.016 48.418 26.7251 51.7345C26.9807 51.8658 27.2433 51.8727 27.5127 51.7622C28.5837 51.32 29.5786 50.7189 30.4838 49.9519C30.8154 49.6686 30.767 49.565 30.3387 49.6341C28.632 49.8897 27.7753 51.6724 25.9097 50.401Z" fill="#110D04"/>
<path d="M32.8744 9.48316C31.7897 9.55917 30.774 9.4348 29.8136 9.10315C28.8117 8.75768 27.796 9.59371 27.9411 10.6439C28.1 11.8116 27.9273 12.9379 27.4229 14.0226C26.6284 11.7909 25.2948 10.2847 23.4293 9.50389C23.4017 9.49008 23.3948 9.46244 23.4086 9.44171C24.3137 8.13584 25.3847 6.96124 26.6353 5.91102C26.6629 5.89029 26.6905 5.88338 26.7251 5.89029C29.2194 6.47758 31.2645 7.67982 32.8744 9.48316Z" fill="#C3B280"/>
<path d="M32.1213 6.11182C35.6243 7.99808 38.1739 10.7826 39.7699 14.4514C39.9012 14.7624 39.6663 15.1009 39.3347 15.0871L37.4415 14.9973C37.0338 14.9766 36.7782 14.7693 36.6745 14.3754C35.9145 11.4528 34.049 8.95848 31.0779 6.89949C31.3336 6.42274 31.686 6.16018 32.1213 6.11182Z" fill="#FFFFFC"/>
<path d="M18.8694 10.8101C19.6363 10.9483 20.4102 10.9552 21.184 10.8377C24.7838 11.2523 26.9257 15.1215 24.1758 18.0511C23.6991 15.8125 22.7663 14.5964 21.3913 14.4099C19.9058 14.2095 18.4203 14.3131 16.921 14.7346C15.6773 14.8866 14.8136 14.6102 14.323 13.8986C14.1918 13.7051 14.0121 13.56 13.7979 13.4633C12.5335 12.8898 11.2207 12.5029 9.87339 12.3094C8.98208 12.185 8.20132 11.8603 7.53111 11.3283C6.88163 10.8101 6.25287 10.2435 5.64485 9.62165C5.48593 9.46274 5.29247 9.37292 5.06446 9.36601L4.11097 9.33146C4.11097 9.03436 4.05569 8.7718 3.93823 8.55761L4.06951 7.25174C4.10406 6.91318 4.22152 6.88554 4.41498 7.16191C6.40488 9.97403 9.00972 11.4596 12.2364 11.6254C14.3921 11.7359 16.6653 11.2108 18.8694 10.8101Z" fill="#FFFFFC"/>
<path d="M3.93772 8.55762C4.05518 8.77181 4.11045 9.03437 4.11045 9.33147C4.4352 10.7755 4.97413 11.8948 5.72725 12.6894C7.03312 14.0782 8.81574 14.9073 11.0751 15.1768L15.2276 15.5637C15.4695 15.5845 15.6975 15.6536 15.9117 15.7779C16.119 15.8954 16.3401 15.9714 16.575 15.9921C16.8583 16.0197 17.0448 16.303 16.955 16.5725C16.6579 17.45 16.955 17.8507 17.8463 17.7747C17.8878 17.7678 17.8947 17.7816 17.8739 17.8162C17.867 17.8231 17.867 17.8231 17.867 17.8231C17.867 17.8231 17.867 17.8231 17.8601 17.8231C17.4939 17.8507 17.1277 17.8922 16.7615 17.9406C12.5192 17.8646 9.8176 17.602 8.64992 17.1529C4.8774 15.7088 3.30897 12.8483 3.93772 8.55762Z" fill="#9A8D68"/>
<path d="M20.4447 8.85498C20.4239 9.235 20.5621 9.387 20.8661 9.311C20.721 9.387 20.6174 9.46992 20.5552 9.55974C20.3617 9.8292 20.4308 9.96048 20.7625 9.96048H21.5709L21.3429 10.0779C21.2185 10.147 21.2531 10.3405 21.3982 10.3612L21.9233 10.4372C21.5709 10.4994 21.3222 10.6307 21.184 10.838C20.4101 10.9554 19.6363 10.9485 18.8693 10.8103L20.4447 8.85498Z" fill="#5D4924"/>
<path d="M32.8744 9.48352C34.3323 10.8309 35.3894 12.4615 36.0527 14.3615C36.1632 14.6725 35.9283 14.9972 35.5967 14.9903L27.9065 14.7761C27.6923 14.7692 27.5058 14.6241 27.4505 14.4099C27.416 14.2855 27.4091 14.1543 27.4229 14.023C27.9273 12.9382 28.1 11.812 27.9411 10.6443C27.796 9.59407 28.8117 8.75804 29.8135 9.10351C30.7739 9.43516 31.7896 9.55953 32.8744 9.48352Z" fill="#FFFFFC"/>
<path d="M4.1106 9.33154L5.06409 9.36609C5.2921 9.373 5.48556 9.46282 5.64448 9.62174C6.2525 10.2436 6.88126 10.8102 7.53074 11.3284C8.20095 11.8604 8.98171 12.1851 9.87302 12.3095C11.2203 12.5029 12.5331 12.8899 13.7975 13.4634C14.0117 13.5601 14.1914 13.7052 14.3227 13.8986C14.8132 14.6103 15.6769 14.8867 16.9206 14.7347C15.7736 15.1838 15.0205 15.3842 14.6681 15.3358C13.4728 15.1838 12.2775 15.1285 11.0753 15.1769C8.81588 14.9074 7.03326 14.0783 5.72739 12.6895C4.97427 11.8949 4.43534 10.7756 4.1106 9.33154Z" fill="#D8D2CD"/>
<path d="M21.5706 9.96039C22.3376 9.81529 22.8558 9.81529 23.1391 9.96039C25.3293 11.0659 27.3607 13.4634 26.7596 16.089C26.3174 18.0236 25.3224 19.3848 23.7816 20.1724C21.3565 21.4092 19.1524 21.0845 17.1625 19.1844C17.0312 19.06 17.0243 18.8528 17.1417 18.7146L17.2868 18.5557C17.3628 18.4727 17.4457 18.4658 17.5356 18.5349C19.6982 20.3245 21.7987 20.5663 23.8507 19.2673C24.8802 18.6109 25.5574 17.5745 25.8821 16.165C26.4901 13.4704 24.59 11.0313 21.923 10.4371L21.3979 10.3611C21.2528 10.3404 21.2183 10.1469 21.3426 10.0778L21.5706 9.96039Z" fill="#9A8D68"/>
<path d="M44.3095 34.0945C44.2681 33.8389 44.3233 33.5832 44.4684 33.3276C46.6656 26.3353 46.5412 19.4121 44.0884 12.5649C43.9848 12.2609 43.7637 12.0122 43.4804 11.8671C42.8171 11.5216 42.2021 11.2176 41.8152 10.5405C41.6632 10.271 41.7323 10.1812 42.0294 10.271C43.3284 10.651 44.579 11.1485 45.0695 12.558C47.6744 20.0063 47.7296 27.3717 45.2354 34.6611C45.1594 34.8891 45.0212 34.9306 44.8277 34.7993C44.6204 34.6611 44.4477 34.4262 44.3095 34.0945Z" fill="#C3B280"/>
<path d="M24.1758 18.0513C23.2845 19.3641 21.9372 19.7925 20.12 19.3296C19.892 19.2674 19.7054 19.1568 19.5534 18.9841C18.8901 18.2517 17.9574 17.9062 16.762 17.9408C17.1282 17.8924 17.4944 17.851 17.8606 17.8233C17.8675 17.8233 17.8675 17.8233 17.8675 17.8233C17.8675 17.8233 17.8675 17.8233 17.8745 17.8164C17.8952 17.7819 17.8883 17.768 17.8468 17.7749C16.9555 17.851 16.6584 17.4502 16.9555 16.5727C17.0453 16.3033 16.8588 16.02 16.5755 15.9923C16.3406 15.9716 16.1195 15.8956 15.9122 15.7781C15.698 15.6538 15.47 15.5847 15.2282 15.5639L11.0756 15.177C12.2779 15.1287 13.4732 15.1839 14.6685 15.3359C15.0209 15.3843 15.774 15.1839 16.921 14.7348C18.4203 14.3134 19.9058 14.2097 21.3913 14.4101C22.7663 14.5966 23.6991 15.8127 24.1758 18.0513Z" fill="#C3B280"/>
<path d="M40.2329 15.4191C40.4263 15.2187 40.5784 14.9838 40.6889 14.7143C40.8893 14.2445 41.0896 14.2445 41.2831 14.7212C42.1882 16.9184 42.3264 19.2676 41.7115 21.7757C41.6424 22.0521 41.2831 22.1212 41.1173 21.8862C39.7838 19.9654 38.167 18.0446 35.5967 18.017C32.6602 17.9825 29.931 18.017 27.4091 18.1206C27.0429 18.1345 26.7734 17.7821 26.884 17.4366L27.3469 15.958C27.4505 15.6194 27.6854 15.4536 28.0378 15.4605L39.4936 15.73C39.7838 15.7369 40.0325 15.6333 40.2329 15.4191Z" fill="#FFFFFC"/>
<path d="M38.3742 19.6402C38.3396 19.9234 38.2014 19.9787 37.9596 19.8198C36.7643 19.3016 35.3893 19.3431 33.8278 19.9304C31.7965 19.3983 29.7858 19.2532 27.7959 19.502L27.0013 19.3707C27.1533 19.4052 27.2363 19.1703 27.2432 18.6659C30.2349 18.431 33.2405 18.431 36.253 18.6659C37.1581 18.735 37.8629 19.0598 38.3742 19.6402Z" fill="#9A8D68"/>
<path d="M30.7602 40.3617C30.4216 40.5413 30.166 40.6173 29.9933 40.5897C29.9173 40.5759 29.8551 40.5206 29.8067 40.4308C29.7514 40.3271 29.7307 40.2373 29.7445 40.1751C27.8583 36.6721 26.884 32.9341 26.815 28.9612C26.8011 28.2288 27.3677 27.0197 26.884 26.2458C26.2138 25.1749 25.592 24.0832 25.0047 22.9639C24.7352 22.4595 24.4381 22.4526 24.1065 22.9431C22.4551 22.7289 20.9765 22.8948 19.6568 23.4268C17.5495 22.7704 15.8359 21.278 14.5024 18.9633C14.3228 18.6524 14.4126 18.5349 14.765 18.5971C14.9377 18.6317 15.1243 18.6455 15.3247 18.6455C15.5665 18.6455 15.7945 18.7284 15.9949 18.8873C16.8171 19.5368 17.356 20.3452 18.3026 20.7943C20.714 21.9482 22.9802 21.6856 25.1083 20.0066C25.364 19.8063 25.4953 19.8685 25.5022 20.1932C25.5574 22.4111 26.3244 24.2697 27.8099 25.776C28.0172 25.9902 28.1139 26.2389 28.0932 26.536C27.8375 31.3449 28.7288 35.9535 30.7602 40.3617Z" fill="#C3B280"/>
<path d="M27.2432 18.666C27.2363 19.1704 27.1534 19.4053 27.0014 19.3708C26.7803 21.7683 27.5265 23.7099 29.2331 25.1885C29.4266 25.3543 29.5233 25.5616 29.5233 25.8172C29.5371 28.1526 29.4681 30.6814 30.0484 32.9684C31.0019 36.7064 32.4253 39.9193 34.3253 42.6001C34.4912 42.8281 34.4359 42.9732 34.1526 43.0216C33.9384 43.0561 33.6759 43.0354 33.3649 42.9456C33.3166 42.8281 33.2129 42.683 33.0402 42.5241C31.4441 39.8225 30.2212 36.9828 29.3851 33.9979C28.7633 31.7662 29.2055 29.721 28.7149 27.5377C28.6735 27.3373 28.7357 27.1231 28.8877 26.978C29.0466 26.826 29.1088 26.6394 29.0742 26.4253C29.0397 26.1972 28.9222 25.99 28.7495 25.8449C27.0083 24.3455 26.117 22.328 26.0824 19.8061C26.0686 19.0944 26.4556 18.7144 27.2432 18.666Z" fill="#FFFFFC"/>
<path d="M33.8277 19.9302C33.5444 19.8128 33.351 19.8888 33.2404 20.1582C33.1575 20.3586 33.199 20.5106 33.3717 20.6281C31.824 20.0822 30.0898 20.02 28.162 20.4484C28.1828 20.248 28.0722 20.1513 27.8235 20.1513C27.9824 19.9924 27.9755 19.7713 27.7958 19.5018C29.7857 19.2531 31.7964 19.3982 33.8277 19.9302Z" fill="#5D4924"/>
<path d="M8.24247 19.7509C8.20792 20.8978 8.23556 22.5837 8.3392 24.8155C8.60176 30.7575 10.2946 35.8912 13.4245 40.2165C16.3541 44.2654 20.5135 47.6579 25.9098 50.4009C27.7753 51.6722 28.6321 49.8896 30.3387 49.634C30.767 49.5649 30.8154 49.6685 30.4838 49.9518C29.5786 50.7187 28.5837 51.3198 27.5127 51.762C27.2433 51.8726 26.9807 51.8657 26.7251 51.7344C20.0161 48.4179 14.9446 44.1479 11.5175 38.9313C8.15956 33.8115 6.82605 27.4894 7.52389 19.9651C7.54462 19.7232 7.6759 19.5989 7.91773 19.585C8.0421 19.5781 8.15265 19.6334 8.24247 19.7509Z" fill="#C3B280"/>
<path d="M38.3747 19.6405C38.5889 19.5162 38.8376 19.5715 39.1071 19.7995C39.3351 19.9929 39.2384 20.3522 38.9551 20.4144C38.7202 20.4628 38.3885 20.2624 37.9601 19.8202C38.202 19.9791 38.3402 19.9238 38.3747 19.6405Z" fill="#5D4924"/>
<path d="M8.24244 19.751L8.90574 20.4488C9.05084 20.6077 9.22358 20.6354 9.42395 20.5317C10.2323 20.0964 11.0891 20.055 11.9804 20.4074C12.1808 20.4834 12.3052 20.6354 12.3397 20.8496C12.4364 21.4576 12.6852 22.038 13.079 22.5907C13.2172 22.7842 13.3968 22.9224 13.6179 22.9984C13.8045 23.0606 13.8805 23.1918 13.8598 23.3853C13.8252 23.7101 13.9634 23.9381 14.2743 24.0555C14.4056 24.1039 14.53 24.1108 14.6613 24.0832C14.8962 24.0279 15.0965 24.0901 15.2555 24.2628L16.5959 25.7276L13.0168 23.6824C12.6783 23.489 12.3328 23.4682 11.9735 23.6133C11.628 23.7515 11.3171 23.7031 11.0477 23.4751C10.716 23.1988 10.4811 23.2678 10.336 23.6755C10.1287 24.2559 10.184 24.7879 10.5087 25.2785C10.6193 25.4581 10.6676 25.6654 10.6331 25.8727C10.4811 26.7571 10.5571 27.524 10.8611 28.1735C11.1858 28.8575 11.4069 29.5554 11.5382 30.2671C11.7179 31.2344 11.8975 32.1464 12.0702 32.9963C12.0841 33.0861 12.1324 33.1414 12.2222 33.169C12.3121 33.1966 12.3535 33.2588 12.3535 33.3486C12.3328 33.8807 12.3328 34.392 12.3397 34.8825C12.3466 35.1382 12.471 35.304 12.7128 35.3869C12.9063 35.456 13.0168 35.5873 13.0514 35.7877C13.0721 35.9466 13.1412 36.0917 13.2448 36.216C13.3899 36.3957 13.5765 36.4717 13.7976 36.444C14.0256 36.4095 14.0809 36.4924 13.9634 36.6928C13.9012 36.8033 13.9012 36.9139 13.9634 37.0313C14.3572 37.7983 14.7994 38.2958 15.2831 38.5099C15.8289 38.7518 16.3057 39.0903 16.7203 39.5118C17.1486 39.954 17.1901 40.4929 17.045 41.0595C16.9552 41.3912 17.0795 41.5293 17.4181 41.4672C17.6392 41.4326 17.7774 41.5086 17.8396 41.709C17.8948 41.9025 18.0123 42.0545 18.185 42.165L19.3942 42.9319C19.7742 43.1738 19.9608 43.0563 19.9608 42.5727C19.9677 42.4276 20.0299 42.3101 20.1542 42.2203C20.396 42.0475 20.4513 41.8264 20.32 41.557C19.9331 40.7693 19.6498 39.9402 19.4771 39.0765C19.256 37.9641 18.9105 36.9899 18.4476 36.14C18.2749 35.8222 18.2541 35.0207 18.3854 33.7425C18.6687 34.9033 18.9934 36.0364 19.3458 37.1419C19.5946 37.9296 19.9746 38.655 20.4928 39.3114C21.163 40.1751 21.5706 41.0871 21.7088 42.0475C21.7434 42.2825 21.847 42.4967 22.0197 42.6625C23.0216 43.6367 24.0442 44.5487 25.0737 45.4055C25.4883 45.7441 25.9236 46.283 26.3727 47.0154C26.7527 47.6303 27.2294 48.1554 27.8098 48.5907C28.176 48.8671 28.1553 49.4199 27.7684 49.6686C27.4782 49.8482 27.0843 49.9035 26.5869 49.8344C26.1308 49.7722 25.9028 49.9588 25.9097 50.401C20.5135 47.658 16.3541 44.2655 13.4245 40.2166C10.2945 35.8913 8.60173 30.7576 8.33917 24.8156C8.23553 22.5838 8.2079 20.8979 8.24244 19.751Z" fill="#2A2B26"/>
<path d="M27.8235 20.1519C28.0722 20.1519 28.1827 20.2486 28.162 20.449C28.6042 20.5526 29.0741 20.5526 29.5646 20.449C29.7857 20.4006 30.0068 20.4144 30.2279 20.4835C31.2298 20.7875 32.2109 21.1261 33.1713 21.4923C34.871 22.1418 36.5016 21.9276 38.0562 20.8566C40.0323 21.2228 40.9582 22.5287 40.8338 24.7811C40.8131 25.1473 40.3985 25.3546 40.0876 25.1542C39.0305 24.4564 37.9181 24.3251 36.7435 24.7673C36.4602 24.871 36.3358 24.7742 36.3634 24.4771C36.398 24.0418 36.5569 23.648 36.8333 23.2956C37.0337 23.04 36.9784 22.9294 36.6536 22.964C33.9935 23.2334 31.9691 24.332 30.5665 26.2528C30.3454 26.5499 30.2141 26.5154 30.1657 26.1492C30.145 25.9626 30.1726 25.7692 30.2625 25.5826C30.373 25.3408 30.2832 25.0506 30.0483 24.9193C28.4522 24.0418 27.6438 22.6254 27.63 20.6701C27.4089 20.4973 27.4711 20.3246 27.8235 20.1519ZM31.057 23.4269C31.0156 23.6687 30.9119 23.8967 30.753 24.1247C30.525 24.4357 30.5734 24.4909 30.905 24.2906C31.3334 24.0349 31.7273 23.7033 32.0935 23.2956C32.3215 23.04 32.2869 22.8258 31.976 22.6669C31.444 22.3836 30.8843 22.2039 30.3039 22.1141C29.9585 22.0658 29.9239 22.1487 30.2072 22.3559L30.8083 22.7981C31.0225 22.9571 31.1054 23.1643 31.057 23.4269ZM38.2912 22.4941C38.2635 22.736 38.4086 22.9018 38.7334 22.9985C38.9752 23.0676 39.2101 22.8742 39.1894 22.6254C39.1756 22.4389 39.0374 22.2938 38.7817 22.197C38.5606 22.1141 38.3188 22.2592 38.2912 22.4941Z" fill="#FFFFFC"/>
<path d="M33.3715 20.6283C34.5115 21.0912 36.073 21.1672 38.056 20.8563C36.5014 21.9272 34.8708 22.1414 33.1711 21.4919C32.2107 21.1257 31.2296 20.7872 30.2277 20.4832C30.0066 20.4141 29.7855 20.4003 29.5644 20.4486C29.0738 20.5523 28.604 20.5523 28.1618 20.4486C30.0895 20.0202 31.8238 20.0824 33.3715 20.6283Z" fill="#C3B280"/>
<path d="M30.8086 22.798L30.2074 22.3558C29.9242 22.1485 29.9587 22.0656 30.3042 22.114C30.8846 22.2038 31.4442 22.3835 31.9762 22.6667C32.2872 22.8257 32.3217 23.0399 32.0937 23.2955C31.7275 23.7032 31.3337 24.0348 30.9053 24.2905C30.5736 24.4908 30.5253 24.4355 30.7533 24.1246C30.9122 23.8966 31.0158 23.6686 31.0573 23.4268C31.1057 23.1642 31.0228 22.9569 30.8086 22.798Z" fill="#110D04"/>
<path d="M38.2907 22.494C38.3184 22.259 38.5602 22.1139 38.7813 22.1969C39.0369 22.2936 39.1751 22.4387 39.1889 22.6252C39.2097 22.874 38.9748 23.0674 38.7329 22.9984C38.4082 22.9016 38.2631 22.7358 38.2907 22.494Z" fill="#2A2B26"/>
<path d="M44.4684 33.3281C44.3233 33.5837 44.268 33.8394 44.3095 34.095L42.3127 32.5888C42.1123 32.4437 41.9948 32.2502 41.9465 32.0084L41.4697 29.6108C41.4075 29.2861 41.4559 28.989 41.6286 28.7126C42.2643 27.6624 42.8309 27.1097 43.0381 25.79C43.2247 24.6154 43.6047 23.579 44.1851 22.6807C44.6135 22.0174 44.8139 22.0796 44.7931 22.8742L44.4684 33.3281Z" fill="#383838"/>
<path d="M29.7444 40.1749C29.6684 40.3338 29.6339 40.4236 29.6339 40.4444C29.6684 40.8175 29.5717 40.852 29.3575 40.5411C28.5491 39.401 27.8098 38.2264 27.1258 37.0173C26.2414 35.4558 26.0548 33.8044 25.5712 32.16C25.4952 31.9182 25.3639 31.7109 25.1704 31.5451C24.9908 31.4 24.9079 31.2134 24.9286 30.9923C24.9355 30.792 24.9217 30.5847 24.8802 30.3843C24.6177 29.1268 24.5209 27.8002 24.5831 26.4114C24.5969 26.1765 24.6522 25.9554 24.7559 25.7481C24.9355 25.375 24.9424 24.9812 24.7766 24.5597C24.5486 23.9931 24.3275 23.4542 24.1064 22.9429C24.438 22.4523 24.7351 22.4592 25.0046 22.9636C25.5919 24.0829 26.2137 25.1746 26.884 26.2456C27.3676 27.0194 26.801 28.2286 26.8149 28.961C26.884 32.9339 27.8582 36.6718 29.7444 40.1749Z" fill="#FFFFFC"/>
<path d="M24.1058 22.9429C24.3269 23.4542 24.548 23.9931 24.776 24.5597C24.9418 24.9812 24.9349 25.375 24.7552 25.7481C24.6516 25.9554 24.5963 26.1765 24.5825 26.4114C24.5203 27.8002 24.6171 29.1268 24.8796 30.3843C24.9211 30.5847 24.9349 30.792 24.928 30.9923C24.9073 31.2134 24.9902 31.4 25.1698 31.5451C25.3633 31.7109 25.4946 31.9182 25.5706 32.16C26.0542 33.8045 26.2408 35.4558 27.1252 37.0173C27.8092 38.2265 28.5485 39.4011 29.3569 40.5411C29.5711 40.852 29.6678 40.8175 29.6333 40.4444C29.6333 40.4236 29.6678 40.3338 29.7438 40.1749C29.73 40.2371 29.7507 40.3269 29.806 40.4305C29.8544 40.5204 29.9166 40.5756 29.9926 40.5895C30.1653 40.6171 30.4209 40.5411 30.7595 40.3615L31.2432 41.315C31.3883 41.5844 31.3123 41.6811 31.0152 41.6051L30.3795 41.4324L27.7677 41.8055C27.4154 41.8677 27.1044 41.8539 26.835 41.771C26.5931 41.695 26.3859 41.4946 26.22 41.1699C23.8087 36.5198 22.6893 31.6004 22.8621 26.3976C22.8897 25.5823 22.489 24.9881 22.6133 24.2488C22.6548 23.9862 22.5442 23.848 22.2748 23.8273C22.0813 23.8066 21.8533 23.8895 21.5908 24.0691C21.1209 24.1728 20.4783 23.9586 19.6561 23.4266C20.9758 22.8945 22.4544 22.7287 24.1058 22.9429Z" fill="#D8D2CD"/>
<path d="M16.5955 25.7273C17.8184 26.0728 18.3574 26.9157 18.3643 28.2285C18.3712 30.0871 18.3781 31.925 18.385 33.7422C18.2537 35.0204 18.2744 35.8219 18.4472 36.1398C18.9101 36.9896 19.2556 37.9638 19.4767 39.0762C19.6494 39.9399 19.9327 40.769 20.3196 41.5567C20.4509 41.8262 20.3956 42.0473 20.1538 42.22C20.0294 42.3098 19.9672 42.4273 19.9603 42.5724C19.9603 43.056 19.7738 43.1735 19.3938 42.9317L18.1846 42.1647C18.0119 42.0542 17.8944 41.9022 17.8392 41.7087C17.777 41.5083 17.6388 41.4323 17.4177 41.4669C17.0791 41.5291 16.9548 41.3909 17.0446 41.0592C17.1897 40.4927 17.1482 39.9537 16.7198 39.5115C16.3053 39.0901 15.8285 38.7515 15.2827 38.5097C14.799 38.2955 14.3568 37.798 13.963 37.0311C13.9008 36.9136 13.9008 36.8031 13.963 36.6925C14.0805 36.4921 14.0252 36.4092 13.7972 36.4438C13.5761 36.4714 13.3895 36.3954 13.2444 36.2158C13.1408 36.0914 13.0717 35.9463 13.051 35.7874C13.0164 35.587 12.9059 35.4557 12.7124 35.3866C12.4706 35.3037 12.3462 35.1379 12.3393 34.8822C12.3324 34.3917 12.3324 33.8804 12.3531 33.3484C12.3531 33.2585 12.3116 33.1964 12.2218 33.1687C12.132 33.1411 12.0836 33.0858 12.0698 32.996C11.8971 32.1461 11.7174 31.2341 11.5378 30.2668C11.4065 29.5551 11.1854 28.8573 10.8607 28.1732C10.5567 27.5238 10.4807 26.7568 10.6327 25.8724C10.6672 25.6651 10.6189 25.4579 10.5083 25.2782C10.1836 24.7876 10.1283 24.2556 10.3356 23.6752C10.4807 23.2676 10.7156 23.1985 11.0472 23.4749C11.3167 23.7029 11.6276 23.7512 11.9731 23.6131C12.3324 23.468 12.6778 23.4887 13.0164 23.6821L16.5955 25.7273ZM15.9667 26.7015C15.8147 26.6601 15.6627 26.6255 15.5038 26.6048C14.8128 26.515 14.4812 26.819 14.5157 27.5099L14.6125 29.562C14.6194 29.79 14.6816 29.9973 14.799 30.1977C15.1652 30.8403 15.3725 31.4967 15.4209 32.16C15.4278 32.3396 15.4761 32.5123 15.5591 32.6782C15.6558 32.8647 15.7525 33.0582 15.8423 33.2516C16.4366 34.4953 16.8857 34.447 17.1966 33.1065C17.4937 31.8076 17.4937 30.1355 17.1897 28.0903C17.0791 27.3648 16.6715 26.9019 15.9667 26.7015Z" fill="#383838"/>
<path d="M27.7686 41.806L26.5594 42.3657C25.7026 42.4002 24.9633 41.8475 24.3415 40.7143C21.6054 35.7189 20.4792 29.9012 21.9232 24.2908C21.9716 24.118 21.861 24.0489 21.5916 24.0697C21.8541 23.89 22.0821 23.8071 22.2756 23.8278C22.5451 23.8486 22.6556 23.9867 22.6142 24.2493C22.4898 24.9886 22.8905 25.5828 22.8629 26.3981C22.6902 31.6009 23.8095 36.5204 26.2209 41.1704C26.3867 41.4951 26.594 41.6955 26.8358 41.7715C27.1053 41.8544 27.4162 41.8682 27.7686 41.806Z" fill="#9A8D68"/>
<path d="M36.6608 25.6512C37.2343 25.437 37.2688 25.9967 36.7575 27.3302L35.7142 27.4338C35.2167 27.4062 34.9473 27.1713 34.9127 26.7291C34.8505 26.1003 34.0421 25.8999 33.6967 26.425L30.4285 31.4205C30.2351 30.011 30.014 28.5877 30.6565 27.3578C31.6169 25.5061 33.1785 24.297 35.3273 23.7304C35.576 23.6682 35.7073 23.758 35.7211 24.0137C35.7418 24.3384 35.7142 24.6839 35.6382 25.0363C35.576 25.3126 35.6451 25.513 35.8386 25.6374C36.0113 25.7479 36.2877 25.7548 36.6608 25.6512Z" fill="#FFFFFC"/>
<path d="M36.7582 27.3303C37.2695 25.9968 37.235 25.4371 36.6615 25.6513C37.9466 25.3197 39.0936 25.4371 40.1093 25.9968C40.4478 26.1833 40.5031 26.439 40.2889 26.7637L39.7224 27.5998C39.5358 27.883 39.3354 27.89 39.1212 27.6274C38.8034 27.2267 38.0157 27.1299 36.7582 27.3303Z" fill="#C3B280"/>
<path d="M35.7145 27.4343C34.4086 27.9248 32.9024 28.526 32.3496 29.8733C32.0387 30.6333 31.7278 31.3588 31.41 32.0566C31.2925 32.3054 31.3271 32.5334 31.5136 32.7338L33.7799 35.2419C34.0217 35.5044 34.2152 35.4768 34.3603 35.152C34.381 35.0899 34.3879 35.0346 34.381 34.9724C34.305 34.5855 34.4639 34.4473 34.8439 34.5578C36.2465 34.9586 37.3106 34.6269 38.043 33.556C38.4299 32.9963 39.2176 32.8996 39.722 33.3487L41.3871 34.8342C41.5737 35 41.6773 35.2073 41.7049 35.4492C41.7533 35.8775 41.933 36.2437 42.2439 36.5408C43.3079 37.5565 46.1408 41.0665 44.6622 42.3378C44.5102 42.4691 44.4065 42.6349 44.3443 42.8353C44.0956 43.6644 44.0749 44.5074 43.6879 45.295C42.6999 47.3195 40.9449 48.3351 38.4368 48.3421C37.9739 47.7064 37.5455 47.3747 37.1517 47.354C36.9789 47.3471 36.8131 47.2918 36.668 47.1951L35.0167 46.1241C35.4658 46.138 35.756 46.0965 36.1774 46.29C38.6372 47.3955 42.3406 46.7253 42.9003 43.6299C43.4737 40.4515 42.0988 38.2129 39.9983 36.0848C39.7772 35.8637 39.6736 35.6012 39.6943 35.2902C39.715 34.8273 39.1761 34.5578 38.8237 34.8549C37.8495 35.6772 36.82 35.9604 35.7283 35.7048C35.4727 35.6495 35.2999 35.7463 35.2239 35.995C35.0719 36.5132 35.1341 36.9485 35.4174 37.3078C35.6247 37.5634 35.5625 37.7223 35.2378 37.7845C34.7196 37.8743 34.2981 37.7845 33.9872 37.5151C33.1511 36.7896 32.3911 36.3336 31.7209 36.1608L30.4288 31.421L33.697 26.4255C34.0424 25.9004 34.8508 26.1008 34.913 26.7295C34.9476 27.1717 35.217 27.4066 35.7145 27.4343Z" fill="#C3B280"/>
<path d="M17.19 28.0907C17.494 30.1359 17.494 31.808 17.1969 33.1069C16.886 34.4474 16.4369 34.4957 15.8427 33.252C15.7528 33.0586 15.6561 32.8651 15.5594 32.6786C15.4765 32.5127 15.4281 32.34 15.4212 32.1604C15.3728 31.4971 15.1655 30.8407 14.7993 30.1981C14.6819 29.9977 14.6197 29.7904 14.6128 29.5624L14.5161 27.5103C14.4815 26.8194 14.8132 26.5154 15.5041 26.6052C15.663 26.6259 15.815 26.6605 15.967 26.7019C16.6718 26.9023 17.0794 27.3653 17.19 28.0907Z" fill="#5C5F5E"/>
<path d="M38.5471 29.3822C38.6646 29.4375 38.7613 29.5204 38.8235 29.6379C39.0169 29.9902 38.8028 30.4255 38.4089 30.4808C36.951 30.6881 35.5001 30.6743 34.056 30.4324C33.6345 30.3633 33.4825 29.8382 33.7935 29.5549C34.9059 28.5393 36.3223 28.0003 38.0289 27.952C38.2638 27.9451 38.3467 28.0556 38.2845 28.2836C38.2155 28.5254 38.2085 28.7811 38.2638 29.0367C38.2984 29.2026 38.3882 29.32 38.5471 29.3822Z" fill="#FFFFFC"/>
<path d="M36.9649 32.6367C36.3914 33.1825 35.6106 33.4658 34.6157 33.4866C34.664 33.0789 34.6019 32.6989 34.4291 32.3327L33.0196 31.4068C32.8883 31.317 32.8331 31.1996 32.8538 31.0476L32.8814 30.861C32.916 30.5846 33.2545 30.4603 33.4549 30.6537L33.7451 30.937C33.9455 31.1305 34.1873 31.2272 34.4706 31.2272L38.9617 31.1996C39.1621 31.1996 39.2519 31.2963 39.2311 31.4967L39.2104 31.7039C39.1828 31.9181 39.0308 32.0978 38.8166 32.1531L36.9649 32.6367Z" fill="#FFFFFC"/>
<path d="M34.4291 32.333C34.6018 32.6992 34.664 33.0792 34.6156 33.4868C34.2909 33.2243 34.0283 33.2381 33.828 33.5352C33.6138 33.853 33.3858 33.8669 33.1301 33.5836C32.8192 33.2381 32.5774 32.865 32.3908 32.4712C32.2319 32.1257 32.3355 32.0082 32.6948 32.1257C32.9712 32.2155 33.2199 32.3468 33.4479 32.5264C33.5861 32.6439 33.7451 32.6992 33.9178 32.6923C34.132 32.6923 34.3047 32.5748 34.4291 32.333Z" fill="#D8D2CD"/>
<path d="M36.9648 32.6367C37.3587 34.1015 36.5779 34.3848 34.6157 33.4866C35.6106 33.4658 36.3914 33.1826 36.9648 32.6367Z" fill="#C3B280"/>
<path d="M35.0163 46.1238C34.7676 46.034 34.5741 45.9027 34.429 45.7369C34.1872 45.4674 34.2494 45.3154 34.6017 45.267C34.7883 45.2394 34.9196 45.1496 34.9956 45.0045C35.0992 44.811 35.0716 44.6383 34.9265 44.4794C34.6708 44.1961 34.5188 43.9059 34.4843 43.6088C34.9472 43.6433 35.3065 43.6088 35.5621 43.5052C35.7971 43.4153 35.8385 43.2702 35.6865 43.0699C34.049 40.9763 32.7224 38.6686 31.7205 36.1605C32.3907 36.3332 33.1508 36.7892 33.9868 37.5147C34.2977 37.7842 34.7192 37.874 35.2374 37.7842C35.5621 37.722 35.6243 37.5631 35.417 37.3074C35.1338 36.9482 35.0716 36.5129 35.2236 35.9947C35.2996 35.7459 35.4723 35.6492 35.728 35.7045C36.8196 35.9601 37.8491 35.6768 38.8234 34.8546C39.1757 34.5575 39.7147 34.827 39.6939 35.2899C39.6732 35.6008 39.7769 35.8634 39.998 36.0845C42.0984 38.2126 43.4734 40.4512 42.8999 43.6295C42.3402 46.7249 38.6368 47.3951 36.1771 46.2896C35.7556 46.0962 35.4654 46.1376 35.0163 46.1238Z" fill="#FFFFFC"/>
<path d="M30.3797 41.4326C30.2898 41.5501 30.1862 41.6468 30.0826 41.7159C29.9167 41.8195 29.9236 41.9094 30.1033 41.9854C30.808 42.2825 31.5474 42.4552 32.3212 42.5036C32.1899 42.4967 32.0863 42.5174 32.0103 42.5658C31.8859 42.6418 31.8652 42.8145 31.9757 42.9181C32.1761 43.1116 32.4525 43.2152 32.791 43.2221C32.7012 43.3603 32.6667 43.4847 32.6805 43.6022C32.6874 43.7058 32.7427 43.7749 32.8394 43.8094C32.9154 43.844 33.0121 43.8647 33.1227 43.8716C32.2176 44.3967 31.043 44.4382 29.592 43.9891C29.6127 43.9338 29.6058 43.8302 29.5782 43.6713C29.5436 43.4502 29.4193 43.3051 29.2051 43.236L26.5588 42.3654L27.7679 41.8057L30.3797 41.4326Z" fill="#5D4924"/>
<path d="M32.3219 42.5032L33.0404 42.524C33.2132 42.6829 33.3168 42.828 33.3652 42.9455C33.1786 43.1251 32.9852 43.2149 32.7917 43.2218C32.4531 43.2149 32.1768 43.1113 31.9764 42.9178C31.8658 42.8142 31.8866 42.6414 32.0109 42.5654C32.0869 42.5171 32.1906 42.4963 32.3219 42.5032Z" fill="#9A8D68"/>
<path d="M34.484 43.6089C34.5186 43.906 34.6706 44.1962 34.9262 44.4795C35.0713 44.6384 35.0989 44.8111 34.9953 45.0046C34.9193 45.1497 34.788 45.2395 34.6015 45.2671C34.2491 45.3155 34.1869 45.4675 34.4287 45.737C34.5738 45.9028 34.7673 46.0341 35.016 46.1239L36.6674 47.1949C36.8125 47.2916 36.9783 47.3469 37.151 47.3538C37.5449 47.3745 37.9732 47.7061 38.4362 48.3418C37.6001 48.2658 36.7434 48.2313 35.8659 48.2313C34.8709 48.2313 34.0556 48.0516 33.4269 47.6854C31.9344 46.8287 30.6562 45.5988 29.5922 43.9889C31.0431 44.438 32.2177 44.3966 33.1229 43.8714C33.6687 43.8369 34.1247 43.754 34.484 43.6089Z" fill="#9A8D68"/>
</svg>
