<svg width="21" height="15" viewBox="0 0 21 15" fill="none" xmlns="http://www.w3.org/2000/svg">
<path d="M17.6015 14.2506C17.9941 14.206 18.8563 14.206 19.6181 13.4107C19.6181 13.4107 20.2349 12.795 20.4134 11.4164C20.5985 10.0043 20.6141 8.59111 20.6152 8.24646V6.56446C20.6152 6.21981 20.5985 4.80773 20.4145 3.39454C20.2349 2.00588 19.6181 1.40023 19.6181 1.40023C18.8563 0.593807 17.9941 0.593807 17.6015 0.549191C17.6015 0.549191 14.958 0.359576 10.9348 0.348422L10.5768 0.346191C6.35283 0.346191 3.5521 0.546961 3.5521 0.546961C3.15948 0.591576 2.29729 0.591576 1.53548 1.39911C1.53548 1.39911 0.919792 2.00477 0.740215 3.39342C0.615541 4.40119 0.548138 5.41521 0.53833 6.43061L0.53833 8.38142C0.542792 8.87331 0.571792 10.1448 0.739099 11.4164C0.917561 12.795 1.53437 13.4107 1.53437 13.4107C2.29618 14.206 3.30448 14.1837 3.75287 14.2617C3.75287 14.2617 5.35456 14.419 10.5757 14.4636C14.7996 14.4636 17.6004 14.2517 17.6004 14.2517L17.6015 14.2506ZM8.50441 10.0043V4.36938L13.9263 7.20358L8.50441 10.0043Z" fill="black"/>
</svg>
